<svg xmlns="http://www.w3.org/2000/svg" width="44.2365mm" height="17.23474mm" viewBox="0 0 125.39481 48.85439"><defs><style>.cls-1{fill:#fff;}</style></defs><g id="レイヤー_2" data-name="レイヤー 2"><g id="レイヤー_1-2" data-name="レイヤー 1"><path class="cls-1" d="M57.791,24.19941c.0318-.96458-.02654-1.73054-.06161-2.75346A25.09052,25.09052,0,0,0,56.187,13.358,17.8853,17.8853,0,0,0,52.0199,6.913,20.7891,20.7891,0,0,0,45.3796,2.7374,33.2818,33.2818,0,0,0,37.7816.64208L37.48072.5975A52.18156,52.18156,0,0,0,28.90241,0H28.9011a52.17312,52.17312,0,0,0-8.578.5975L20.0219.64208a33.2818,33.2818,0,0,0-7.598,2.09532A20.78916,20.78916,0,0,0,5.78361,6.913a17.8853,17.8853,0,0,0-4.16707,6.445A25.09079,25.09079,0,0,0,.07413,21.446c-.0354,1.02292-.09341,1.78888-.06162,2.75346-.03179.96491,0,2.11467.06162,3.20937a26.9702,26.9702,0,0,0,1.54241,8.08766,17.88513,17.88513,0,0,0,4.16707,6.445A20.789,20.789,0,0,0,12.4239,46.117a33.28082,33.28082,0,0,0,7.598,2.09533l.30121.04458a52.13372,52.13372,0,0,0,8.578.59749h.00131a52.14215,52.14215,0,0,0,8.57831-.59749l.30088-.04458a33.28082,33.28082,0,0,0,7.598-2.09533,20.78893,20.78893,0,0,0,6.6403-4.17559,17.88513,17.88513,0,0,0,4.16707-6.445,26.96027,26.96027,0,0,0,1.54241-8.08766c.06161-1.0947.09341-2.24446.06161-3.20937m-9.62384,1.70268a42.1182,42.1182,0,0,1-.48148,5.94579,14.97915,14.97915,0,0,1-1.5411,4.49646,10.87987,10.87987,0,0,1-4.18574,4.26015,17.16448,17.16448,0,0,1-5.37943,1.96,36.48637,36.48637,0,0,1-7.67764.73285,36.48632,36.48632,0,0,1-7.67765-.73285,17.16439,17.16439,0,0,1-5.37943-1.96,10.8799,10.8799,0,0,1-4.18575-4.26015,14.97971,14.97971,0,0,1-1.5411-4.49646,42.11971,42.11971,0,0,1-.48147-5.94579c-.01049-1.14222.04621-2.41293.04621-2.90882a40.36713,40.36713,0,0,1,.43526-5.98676,14.98281,14.98281,0,0,1,1.5411-4.49646A10.88,10.88,0,0,1,15.84468,8.2499a17.17257,17.17257,0,0,1,5.37943-1.96,36.4856,36.4856,0,0,1,7.67765-.73285,36.48565,36.48565,0,0,1,7.67764.73285,17.17266,17.17266,0,0,1,5.37943,1.96,10.88,10.88,0,0,1,4.18574,4.26015,14.98226,14.98226,0,0,1,1.5411,4.49646,40.36578,40.36578,0,0,1,.43526,5.98676c0,.49589.05671,1.7666.04622,2.90882"/><path class="cls-1" d="M88.12987,14.78188c.00327-.09564-.00266-.17166-.00652-.27294a2.35392,2.35392,0,0,0-.16277-.80218,1.76355,1.76355,0,0,0-.44014-.63942,2.213,2.213,0,0,0-.70089-.414,3.68032,3.68032,0,0,0-.80217-.20789L85.9856,12.441a6.969,6.969,0,0,0-1.81135,0l-.03178.00446a3.68247,3.68247,0,0,0-.80248.20789,2.21659,2.21659,0,0,0-.7009.414,1.76748,1.76748,0,0,0-.44014.63942,2.3613,2.3613,0,0,0-.16275.80218c-.00356.10128-.0098.1773-.00653.27294-.00327.09563,0,.20967.00653.31837a2.54014,2.54014,0,0,0,.16275.80217,1.76637,1.76637,0,0,0,.44014.63913,2.22251,2.22251,0,0,0,.7009.4143,3.6991,3.6991,0,0,0,.80248.2079l.03178.00416a6.9353,6.9353,0,0,0,1.81135,0l.03178-.00416a3.69694,3.69694,0,0,0,.80217-.2079,2.21887,2.21887,0,0,0,.70089-.4143,1.76244,1.76244,0,0,0,.44014-.63913,2.53185,2.53185,0,0,0,.16277-.80217c.00652-.1087.00979-.22274.00652-.31837m-1.016.169a3.93333,3.93333,0,0,1-.0508.58953,1.43069,1.43069,0,0,1-.16276.44609,1.1149,1.1149,0,0,1-.44192.42261,1.89009,1.89009,0,0,1-.56784.19424,4.55211,4.55211,0,0,1-1.62127,0,1.88477,1.88477,0,0,1-.56787-.19424,1.114,1.114,0,0,1-.4422-.42261,1.42217,1.42217,0,0,1-.16246-.44609,3.93128,3.93128,0,0,1-.0511-.58953c-.00088-.11345.00506-.23938.00506-.28867a3.738,3.738,0,0,1,.046-.59369,1.42472,1.42472,0,0,1,.16246-.44608,1.11412,1.11412,0,0,1,.4422-.42263,1.88474,1.88474,0,0,1,.56787-.19423,4.55211,4.55211,0,0,1,1.62127,0,1.89006,1.89006,0,0,1,.56784.19423,1.11506,1.11506,0,0,1,.44192.42263,1.43327,1.43327,0,0,1,.16276.44608,3.77427,3.77427,0,0,1,.04574.59369c0,.04929.00623.17522.00506.28867"/><path class="cls-1" d="M109.79255,12.99113a1.92886,1.92886,0,0,0-.60528-.338,3.69487,3.69487,0,0,0-.80217-.2076l-.03178-.00476a5.90251,5.90251,0,0,0-.90553-.05909h-.00031a5.90206,5.90206,0,0,0-.90551.05909l-.03178.00476a3.69474,3.69474,0,0,0-.80219.2076,2.22043,2.22043,0,0,0-.70118.4143,1.768,1.768,0,0,0-.43985.63913,2.36236,2.36236,0,0,0-.163.80217c-.00356.10157-.00979.1776-.00653.27324-.00326.09562,0,.20967.00653.31837a2.53365,2.53365,0,0,0,.163.80217,1.76821,1.76821,0,0,0,.43985.63913,2.221,2.221,0,0,0,.70118.4143,3.7126,3.7126,0,0,0,.80219.2076l.03178.00446a5.84856,5.84856,0,0,0,.90551.05939h.00031a5.849,5.849,0,0,0,.90553-.05939l.03178-.00446a3.71273,3.71273,0,0,0,.80217-.2076,2.19455,2.19455,0,0,0,.53487-.29253c.057-.04129.17226-.11672.05139-.22453-.12087-.10751-.29253-.338-.35371-.39381a.1553.1553,0,0,0-.2266.01069,1.441,1.441,0,0,1-.36709.27561,1.8875,1.8875,0,0,1-.56785.19423,4.55149,4.55149,0,0,1-1.62127,0,1.9067,1.9067,0,0,1-.575-.1874,1.20275,1.20275,0,0,1-.42707-.36619,1.35784,1.35784,0,0,1-.17909-.44341,3.23679,3.23679,0,0,1-.04217-.57765c-.00119-.11345.00475-.23967.00475-.28868a2.944,2.944,0,0,1,.05672-.613,1.27766,1.27766,0,0,1,.19721-.43865,1.36791,1.36791,0,0,1,.39678-.33383,1.86676,1.86676,0,0,1,.56786-.19453,4.55211,4.55211,0,0,1,1.62127,0,1.8887,1.8887,0,0,1,.56785.19453,1.04925,1.04925,0,0,1,.36232.31481.14509.14509,0,0,0,.20612.0009c.03683-.03207.36649-.40807.39026-.43183a.11074.11074,0,0,0,.00772-.16958"/><path class="cls-1" d="M79.164,17.24314a3.39368,3.39368,0,0,1-.98572-.16127,2.60855,2.60855,0,0,1-.43124-.18146c-.014-.00772-.155-.09414-.1972-.12622-.13988-.10692-.11582-.15949-.0585-.23849l.01425-.0196c.0496-.071.16662-.204.18592-.23343a.316.316,0,0,1,.22838-.14879c.07811,0,.305.20285.43123.27263a2.68991,2.68991,0,0,0,.75288.26552,1.91725,1.91725,0,0,0,.67863-.02347,1.25244,1.25244,0,0,0,.34688-.17789.7524.7524,0,0,0,.21473-.25334.68421.68421,0,0,0,.07692-.31808.4788.4788,0,0,0-.16513-.387,1.5885,1.5885,0,0,0-.463-.25958c-.19809-.07425-.4146-.14315-.64328-.20493a4.26572,4.26572,0,0,1-.69377-.25154,1.77912,1.77912,0,0,1-.56072-.40213.95224.95224,0,0,1-.234-.66882,1.03446,1.03446,0,0,1,.14524-.53757,1.2938,1.2938,0,0,1,.4241-.42321,2.238,2.238,0,0,1,.65487-.27264,3.23313,3.23313,0,0,1,.82147-.10781,2.67967,2.67967,0,0,1,.69586.07723,2.32206,2.32206,0,0,1,.51379.1871c.12563.06534.29492.1384.21176.29491-.01961.03653-.14671.22988-.17018.25779a.271.271,0,0,1-.31362.0401,1.90581,1.90581,0,0,0-.806-.33115,1.70929,1.70929,0,0,0-.58656.03,1.02091,1.02091,0,0,0-.3065.12235.63725.63725,0,0,0-.19691.21057.54814.54814,0,0,0-.07068.27353.48724.48724,0,0,0,.16483.39322,1.63192,1.63192,0,0,0,.46479.26313,5.915,5.915,0,0,0,.63972.204,4.67067,4.67067,0,0,1,.6911.2373,1.766,1.766,0,0,1,.5625.379.871.871,0,0,1,.237.63318,1.231,1.231,0,0,1-.15681.60171,1.50635,1.50635,0,0,1-.45915.49894,2.71238,2.71238,0,0,1-1.6578.48618"/><path class="cls-1" d="M64.27589,16.63694a.1891.1891,0,0,0-.19751-.12443c-.08434-.00119-1.9646.00149-2.15824.00059a.22947.22947,0,0,1-.24769-.26135s.00356-3.52351,0-3.58855a.18423.18423,0,0,0-.13217-.18622c-.04127-.011-.31272-.01247-.38043-.01247-.05822,0-.32343.00089-.36471.01188a.18337.18337,0,0,0-.13276.18562c-.00386.06534-.00445,2.78845-.00386,3.272-.00238.4835-.008.71367-.00238.8001a.48031.48031,0,0,0,.07514.28273.3794.3794,0,0,0,.26581.1482c.04276.00386.2667.00386.32312.003.03.00059.07752.00029.12147-.00208.18057.0003.39055.0003.60082,0,.51469.00237,1.9652.00357,2.0347,0a.19391.19391,0,0,0,.19809-.12385,1.00627,1.00627,0,0,0,.01337-.20255.988.988,0,0,0-.01277-.20255"/><path class="cls-1" d="M100.90291,12.477H96.53624c-.14077,0-.19068.04218-.191.13988-.00059.065.00238.33382.00238.37392,0,.10127.06029.139.1666.14077.01456,0,.79773.0003,1.69969.0003-.00179,1.15708-.00179,3.81842-.00059,3.838a.18366.18366,0,0,0,.13185.1862,1.22567,1.22567,0,0,0,.21593.01249c.05612.00118.48825-.0009.52952-.01189a.18368.18368,0,0,0,.13277-.18562c.00266-.04395.00357-2.68807.003-3.83921.90136,0,1.68394-.0003,1.69849-.0003.10632-.00178.16661-.0395.16661-.14077,0-.0401.003-.30888.00268-.37392-.0006-.0977-.05048-.13988-.19126-.13988"/><path class="cls-1" d="M125.20353,12.477h-4.36667c-.14078,0-.19039.04218-.191.13988-.0006.065.00238.33382.00238.37392,0,.10127.06029.139.1666.14077.01456,0,.79773.0003,1.69969.0003-.00148,1.15708-.00179,3.81842-.0006,3.838a.184.184,0,0,0,.13186.1862,1.22561,1.22561,0,0,0,.21593.01249c.05612.00118.48825-.0009.52952-.01189a.18367.18367,0,0,0,.13276-.18562c.00267-.04395.00357-2.68807.003-3.83921.90136,0,1.68393-.0003,1.69849-.0003.10662-.00178.16691-.0395.16691-.14077,0-.0401.00267-.30888.00238-.37392-.0006-.0977-.05049-.13988-.19126-.13988"/><path class="cls-1" d="M103.22583,12.74893h-.00031v-.071a.1847.1847,0,0,0-.13216-.188,1.21868,1.21868,0,0,0-.21562-.01277c-.05643-.0009-.48854.00119-.52984.01217a.184.184,0,0,0-.13274.18562l-.0006.07425h-.00089c-.00119.62755-.00148,2.25863-.00148,3.16149v.9863h.00029l.0003.07128a.18431.18431,0,0,0,.13217.1877,1.1914,1.1914,0,0,0,.2156.01277c.05614.00089.48827-.00119.52954-.01218a.18368.18368,0,0,0,.13276-.18562s.00058-.03.00058-.07425h.00091c.00118-.62754.00178-1.8755.00178-2.77835,0-.38669-.00029-1.11937-.00029-1.36944"/><path class="cls-1" d="M119.59387,16.51406c-.03474-.00053-1.86508-.00018-2.52443,0l-.08421-.00018c.00044-.39284.00083-.8863.001-1.38168.92309.00052,2.35307.00017,2.39616-.00193a.19423.19423,0,0,0,.19808-.12371,1.57478,1.57478,0,0,0,.00062-.40509.18954.18954,0,0,0-.19783-.12477c-.031-.00052-1.59219-.00035-2.39686-.00017l0-.3582c0-.2574-.00013-.66617-.00022-.98569.83258.0007,2.558.0007,2.60675-.00158a.19479.19479,0,0,0,.19809-.12388,1.0064,1.0064,0,0,0,.01334-.20281.98679.98679,0,0,0-.01273-.20264.18929.18929,0,0,0-.19782-.12441c-.03474-.00053-1.86508-.00018-2.52443,0-.09681-.00053-.19156-.00053-.21829,0-.0175-.00018-.1259-.00018-.15119.00035v.00052c-.02174-.00035-.0465-.00122-.0619-.001-.05643-.00087-.48856.00123-.52985.01225a.18388.18388,0,0,0-.13273.18549l-.00061.07437H115.974c-.00118.62749-.00175,2.25853-.00148,3.16146v.98621h.0003l.00031.0714a.184.184,0,0,0,.13185.18758,1.20364,1.20364,0,0,0,.21589.013c.03858.00053.25049-.00052.39533-.00455l.00013.00473c.63647.00122,2.82173.00139,2.87667-.00123a.19416.19416,0,0,0,.19809-.12389,1.00635,1.00635,0,0,0,.01334-.20281.98418.98418,0,0,0-.01273-.20246A.1894.1894,0,0,0,119.59387,16.51406Z"/><path class="cls-1" d="M115.127,17.00093c-.03208-.0389-1.99816-2.1318-2.32753-2.46.65041-.54676,2.179-1.8452,2.20516-1.87728a.10378.10378,0,0,0-.09533-.16751c-.05583,0-.51914.0006-.58448,0a.59948.59948,0,0,0-.34213.06148c-.0205.01783-1.47606,1.2052-2.119,1.73414V12.7489h-.00029l-.00031-.071a.18492.18492,0,0,0-.13216-.188,1.19149,1.19149,0,0,0-.21532-.01248c-.05643-.00118-.48855.00089-.52983.01189a.18339.18339,0,0,0-.13276.18562s-.00058.03029-.00058.07454h-.00091c-.00117.62725-.00177,2.25862-.00177,3.16148,0,.38668,0,.73594.00031.986h.00029l.00029.07128a.18377.18377,0,0,0,.13187.18769,1.18891,1.18891,0,0,0,.21562.01277c.05643.0009.48854-.00088.52983-.01217a.18345.18345,0,0,0,.13245-.18562l.00089-.07425h.00089c.0006-.37985.0012-.94294.00149-1.56366.103-.09771.17552-.16216.26344-.24057.35548.36412,1.88351,1.9943,1.907,2.0148a.27065.27065,0,0,0,.22037.06118c.065-.00059.7214,0,.77723,0a.10376.10376,0,0,0,.09534-.16751"/><path class="cls-1" d="M70.07358,16.91207c-.03445-.07394-2.01064-4.06106-2.03737-4.12135a.44975.44975,0,0,0-.41193-.32788c-.01009,0-.07068-.00088-.14789-.00148-.07545-.0003-.15831.00148-.1684.00148a.44914.44914,0,0,0-.41193.32788c-.027.06029-2.0136,4.064-2.04805,4.1377a.16572.16572,0,0,0,.13929.23877h.57141a.2864.2864,0,0,0,.27293-.20106c.01367-.02733.213-.46242.53192-1.15619.00207-.00445.02138-.04692.04157-.08375a.1451.1451,0,0,1,.12712-.09177c.22007.00118,1.64771.00118,1.86748,0a.14474.14474,0,0,1,.12711.09177c.0202.03683.0395.0793.04159.08375.319.69377.51825,1.12886.5319,1.15619a.28641.28641,0,0,0,.27294.20106h.57141a.17527.17527,0,0,0,.1289-.25512m-1.91352-1.78343-.692.00119-.69585-.00119c-.05494,0-.07692-.035-.05584-.08108.28571-.62279.52983-1.15292.61507-1.335.03-.063.06564-.18117.13454-.18147.07306.00327.10484.1185.13483.18147.08494.18205.32937.71218.61477,1.335.02139.046-.00088.08108-.05553.08108"/><path class="cls-1" d="M76.76739,12.534c-.08257-.00238-.50192-.00029-.556.0009a.19253.19253,0,0,0-.20107.13007c-.01723.04931-.5429,2.13359-.86781,3.25919-.36827-1.11253-.926-3.18553-.93968-3.23542-.02791-.101-.11256-.15414-.25066-.155-.04247-.0006-.72288.00059-.80218.00207a.19137.19137,0,0,0-.2076.131c-.008.02049-.68694,2.2016-.98244,3.27017-.346-1.04719-1.06264-3.2185-1.08313-3.27373-.04069-.10841-.1387-.12623-.31184-.1292-.04307-.00089-.34214,0-.48172.00178-.15652.00179-.25364.04455-.22067.16929.02228.08286,1.42438,4.28054,1.44813,4.34113.03445.08821.06237.12117.19958.12117.04307,0,.61952.0003.72912.0003a.12374.12374,0,0,0,.12-.09355c.03-.08495,1.02224-3.6043,1.06056-3.71745.05375.163,1.18321,3.62864,1.20608,3.68953.03831.10246.08643.12147.22334.12117.06563-.0003.68783.0003.70684.0003a.1054.1054,0,0,0,.112-.06356c.02316-.06058,1.25686-4.19381,1.27409-4.25619.05643-.20581-.014-.30946-.17492-.31392"/><path class="cls-1" d="M94.035,12.669a.199.199,0,0,0-.21473-.20433h-.597c-.15473,0-.19838.10721-.19838.22809,0,.04692.00624,1.77216.00682,3.013-.8969-1.01452-2.50185-2.86418-2.57223-2.94645a.67042.67042,0,0,0-.52509-.29462c-.10633-.00237-.5922,0-.66467,0-.24947,0-.30621.13068-.30621.27531,0,.06534-.00415,4.16561-.00177,4.20957a.22432.22432,0,0,0,.15027.20581.99375.99375,0,0,0,.1972.01247c.05643.00119.46985-.00089.51113-.01188a.22424.22424,0,0,0,.15147-.20521c.003-.04752.00386-2.28447.00326-3.50956.75377.91206,2.74511,3.22622,2.88944,3.3961.14166.16631.25957.33.42915.33.1283-.00059.51974,0,.60468,0,.08286.00029.13483-.07692.13483-.19691,0-.06534.00031-4.21193.00179-4.30133"/><path class="cls-1" d="M70.47136,33.51312a.83558.83558,0,0,0-.84889-.56962c-.29825-.01738-2.52338-.019-4.73507-.01672-2.21136-.01016-4.43648-.01606-4.73506-.00033a.83591.83591,0,0,0-.85085.567,7.61706,7.61706,0,0,0-.00229,1.8528.83575.83575,0,0,0,.84855.57c.29859.01672,2.52371.01868,4.73539.01639,2.21136.01017,4.43649.01607,4.73507,0a.83567.83567,0,0,0,.85085-.56669,7.61906,7.61906,0,0,0,.0023-1.8528"/><path class="cls-1" d="M98.50746,31.60566a.8356.8356,0,0,0-.84889-.56963c-.14683-.00852-6.11917.00164-7.68518-.0059-.81677-.00393-1.0439-.14978-1.0439-.72106,0-.52113.04228-3.40864-.01048-3.87963-.06261-.56013-.507-.72467-.88953-.79906,2.04519-.156,4.99628-.33431,5.22113-.36413.45294-.06.86036-.28614.93213-.63487a4.68293,4.68293,0,0,0,.0095-.92492,2.50867,2.50867,0,0,0-.17305-.996c-.28319-.44969-.73287-.48868-1.80068-.4251-.29826.01737-3.42766.30743-5.63213.48376-2.20546.16356-6.933.61-7.5472.67026-.78661.077-1.28053.16912-1.35068.6873a5.76155,5.76155,0,0,0,.01377.89477,1.92929,1.92929,0,0,0,.34349,1.10781c.273.25893.72827.217,1.26906.20714.80759-.01442,4.53776-.36938,4.877-.3802.33856-.01114.50244.28385.50605.69911.00327.38314.01148,3.22837.01148,3.60759,0,.74237-.50344.766-1.195.766-1.98093.001-2.59547.00262-3.24214.00327-2.21168-.01015-5.56952-.016-5.86778,0a.83568.83568,0,0,0-.85085.56669,4.86709,4.86709,0,0,0-.058.92624,4.85268,4.85268,0,0,0,.05573.92656.83516.83516,0,0,0,.84855.56964c.29859.017,6.03068-.02623,7.91756-.02623.50376,0,2.09042-.16944,2.17269.88a16.00565,16.00565,0,0,1-.19273,2.7361,6.91952,6.91952,0,0,1-.69943,2.03962,5.17644,5.17644,0,0,1-1.761,2.04551,7.55747,7.55747,0,0,1-2.41358,1.00457,13.41,13.41,0,0,1-2.14057.30514c-.39166.01245-.3543.27072-.32086.43328.01638.079.21959.97606.33332,1.33593a.59353.59353,0,0,0,.48738.43034,15.98829,15.98829,0,0,0,2.31558-.12094,12.20635,12.20635,0,0,0,3.193-.8846,10.56713,10.56713,0,0,0,2.97241-2.01013,8.11375,8.11375,0,0,0,1.89016-2.92356,10.61471,10.61471,0,0,0,.71877-3.63053c.00163-.06687.04883-.65387.07013-1.05963.02622-.5077.78792-.54277,1.24351-.52834,3.79735.001,7.31186-.00164,7.46362-.00984a.83537.83537,0,0,0,.85083-.56669,4.8394,4.8394,0,0,0,.058-.92622,5.01471,5.01471,0,0,0-.05111-.93936"/><path class="cls-1" d="M125.33586,25.88259c-.0908-.34414-.37988-.49753-.83545-.53261.177.01378-11.221,0-15.07243,0-.53784,0-.89413-.25793-.90887-.67615.02787-.93967.05833-1.68859.06392-1.96259.00918-.453-.316-.5821-.806-.59389-.43852-.01049-2.02354,0-2.16547-.00328-.49817-.01016-.76463.234-.77251.62175-.00524.253-.016.627-.02131.71483-.00752,1.71678-.01146,2.66137-.10192,3.7246a9.64992,9.64992,0,0,1-.73549,2.95242,13.631,13.631,0,0,1-1.5093,2.62465,10.6922,10.6922,0,0,1-1.09109,1.2199c-.32055.32087-.31727.61684-.05211.8679.57519.54505.95736.7971,1.2966,1.0842a.67548.67548,0,0,0,.97572.06261,9.44926,9.44926,0,0,0,1.487-1.687,16.80977,16.80977,0,0,0,1.41558-2.24052c.53587-1.00784,1-2.17957,1.3982-2.92423.38641-.7971,1.00391-.845,2.25921-.81381.30185.00754,4.65084-.00065,4.78357,0,1.2507.00623,1.7017.72532,1.6899,1.28545-.01966.96557-.03015,1.66434-.04785,2.53092-.0177.84987-.0118,1.54208-.0993,2.76494-.13471,1.29429-.297,2.19071-.4143,2.80492a6.93936,6.93936,0,0,1-.74105,2.02486,5.17848,5.17848,0,0,1-1.803,2.00881,7.5612,7.5612,0,0,1-2.4336.95442,13.33671,13.33671,0,0,1-2.14644.26121c-.392.00427-.35988.26352-.32974.42674.01477.07932.19961.98031.30579,1.34249a.5939.5939,0,0,0,.47821.44017,15.96137,15.96137,0,0,0,2.31755-.07342,12.19841,12.19841,0,0,0,3.21068-.81873,10.5637,10.5637,0,0,0,3.01305-1.9485,8.11911,8.11911,0,0,0,1.95014-2.8839A12.75811,12.75811,0,0,0,120.687,35.827c.00754-.06654.06227-.65288.09176-1.058.03671-.50737.04033-2.50109.06195-3.38243l.01181-.73776c.0167-.80858-.01739-2.32935.76661-2.32739.23271.00066,2.76133.00164,2.80918,0,.45656-.01475.87149-.16027.89542-.58931.0105-.18452.05933-1.67088.01214-1.84951"/></g></g></svg>