<?xml version="1.0" encoding="UTF-8"?><svg id="_レイヤー_2" xmlns="http://www.w3.org/2000/svg" viewBox="0 0 64.11 46.06"><defs><style>.cls-1{fill:#fff;}</style></defs><g id="_レイヤー_1-2"><path class="cls-1" d="m13.01,16.96v16.6c-.1.4-.3.4-.3.4h-1.7c-.2-.1-.4-.4-.4-.4v-16.6c0-.6-.4-.7-.4-.7h-1.7c-1-.3,1-1.7,1-1.7h6c1,.2-1.3,1.7-1.3,1.7h-.7c-.5.1-.5.7-.5.7"/><path class="cls-1" d="m16.11,33.96c-.3-.1-.4-.6-.4-.6v-13.8c.4-2.2,2.5-2.5,2.5-2.5h1.7c2.1.3,2.6,2.5,2.6,2.5v13.8c0,.4-.5.5-.5.5h-1.3c-.3-.1-.5-.6-.5-.6v-7.5c0-.8-.9-.8-.9-.8-1.2,0-1.1.8-1.1.8v7.7c-.2.5-.5.5-.5.5h-1.6Zm2-11.4s.1.6,1.1.6c0,0,.8,0,.9-.6v-3s0-.7-1-.7c0,0-.9-.1-1,.7v3Z"/><path class="cls-1" d="m25.01,33.86c-.4-.1-.4-.4-.4-.4v-14.2l1.6-1.5c.9-.7.7.8.7.8v14.9c-.1.4-.4.4-.4.4h-1.5Z"/><path class="cls-1" d="m33.01,33.96h-3.4c-1.8-.9-.6-1.8-.6-1.8h1.4c2.4.2,2.4-1.4,2.4-1.4v-4.5c-.4-1.5-2.2-1.6-2.2-1.6-2.1-.8-2.3-3.5-2.3-3.5.1-3.5,2.7-3.8,2.7-3.8h2.8c1.1,0,0,.9,0,.9-.9.9-1.5.8-1.5.8-1.6.3-1.6,1.9-1.6,1.9,0,2.3,2.6,2.3,2.6,2.3,2.1.5,1.9,2.4,1.9,2.4v6.4c-.2,1.5-2.2,1.9-2.2,1.9"/><path class="cls-1" d="m41.41,25.46v7.9s0,.3.4.6h1.6s.3-.1.4-.6v-14.8s.1-1.5-.8-.8l-1.6,1.7v3.2s0,.4-.4.4h-1.4s-.4,0-.4-.4v-4.1s.1-1.4-.7-.8l-1.7,1.7v13.9s0,.5.5.6h1.3s.5-.1.5-.6v-7.9c0-.4.4-.4.4-.4h1.3c.7-.1.6.4.6.4"/><path class="cls-1" d="m46.11,33.86c-.4-.1-.4-.4-.4-.4v-14.2l1.6-1.5c.9-.7.7.8.7.8v14.9c-.1.4-.4.4-.4.4h-1.5Z"/><path class="cls-1" d="m57.71,33.96c-.3-.1-.4-.6-.4-.6v-13.8c.4-2.2,2.5-2.5,2.5-2.5h1.7c2.1.3,2.6,2.5,2.6,2.5v13.8c0,.4-.5.5-.5.5h-1.3c-.3-.1-.5-.6-.5-.6v-7.5c0-.8-.9-.8-.9-.8-1.2,0-1.1.8-1.1.8v7.7c-.2.5-.5.5-.5.5h-1.6Zm1.9-11.4s.1.6,1.1.6c0,0,.8,0,.9-.6v-3s0-.7-1-.7c0,0-.9-.1-1,.7v3Z"/><path class="cls-1" d="m54.31,19.56v14c-.1.4-.3.4-.3.4h-1.7c-.2-.1-.4-.4-.4-.4v-14c0-.6-.4-.7-.4-.7h-1.8c-1.2-.2.9-1.7.9-1.7h6.1c1,.2-1.3,1.7-1.3,1.7h-.7c-.4,0-.4.7-.4.7"/><path class="cls-1" d="m.71,37.26c4.4-3.4,8.5-5.6,8.5-5.6.5-.1.5.2.5.2v1.3c-.5.3-3.2,2.2-3.2,2.2-2.4,1.2-1.1,1.6-1.1,1.6.7.1,5.6-.5,5.6-.5,1.2,5.2,3.8,6.1,3.8,6.1-.9-6.2.9-7.7.9-7.7h1.3c.4.2.2.5.2.5-2.6,4.8,1.3,10.7,1.3,10.7-6.3-.5-8.9-7.6-8.9-7.6-7.7.5-8.9,0-8.9,0-1.6-.3,0-1.2,0-1.2"/><path class="cls-1" d="m36.81,17.86l.6-.6c.3-.3-.1-.8-.1-.8-2.3-2.7-3.8-5.6-3.8-5.6-.6-.8-.5.4-.5.4,1.6,5.2,3,6.5,3,6.5.3.4.8.1.8.1"/><path class="cls-1" d="m37.41,5.46c0-1.5,1.2-2.7,2.7-2.7s2.7,1.2,2.7,2.7-1.2,2.7-2.7,2.7-2.7-1.2-2.7-2.7m2.7,1.8c1,0,1.8-.8,1.8-1.8s-.8-1.8-1.8-1.8-1.8.8-1.8,1.8.8,1.8,1.8,1.8"/><path class="cls-1" d="m40.11,6.56c.6,0,1-.5,1-1,0-.6-.5-1-1-1-.6,0-1,.5-1,1s.5,1,1,1"/><path class="cls-1" d="m44.21,2.16s-8.3-4.7-25.9,14h-1.8s-.6,0-.1-.7l1.4-1.6s.6-.6-.5-.9l-4.9.1s-1.5,0,0-.7c0,0,2.4-.9,4.8-1.6,0,0,2.6-.8-.7-1.3,0,0-1.7-.4,0-.8,0,0,1.3-.4,3-.7,0,0,2.3-.2-.2-1,0,0-1.5-.4-.2-.8,0,0,.8-.2,2.8-.4,0,0,2.3-.3.4-1,0,0-2.5-.9,1.3-1.1,0,0-.5-.1,8-.7,0,0,10.7-7.1,18.9.7,0,0,2,1.2-.1,3.1,0,0-2.3,2.6.8.8,0,0,.7-.4,1.1-.1,0,0,.2.3.8.1,0,0,.3-.2,1.7-1.1,0,0,1.1-.7.2.6l-2.9,2.9s-.3.3-.8,0c0,0-.2-.6-1.1.1,0,0-1,.9.5,1.1,0,0,1,.2.6.8,0,0-.3,1-5.6,5.9,0,0-.8.7-1,.3v-2s2.4-1.8,3.5-3.4c0,0,1.4-1.2-.5-1.2l-1.7-.5s-1.6.1-.5-1.2l2-2.4,1.3-1.5s.6-.9,0-1.4c-.1,0-.8-1.2-4.6-2.4m-15.4,2.1c-1.1-.3-2.3.1-2.3.1-1.2.5.4.9.4.9,1.4.3,1.9-1,1.9-1m-2.9,2.2c-1.1-.3-2.3.1-2.3.1-1.2.3.4.9.4.9,1.1.4,1.9-1,1.9-1m-3.1,2.7c.6-.6-.1-.7-.1-.7-1.7,0-2.1.4-2.1.4-.6.4.4.8.4.8,1.3.5,1.8-.5,1.8-.5m-5.2,3.2h1.4c1.1-.5,1.2-.9,1.2-.9.2-.7-.9-.3-.9-.3l-1.7.6c-.6.3,0,.6,0,.6"/></g></svg>