<?xml version="1.0" encoding="UTF-8"?><svg id="_レイヤー_2" xmlns="http://www.w3.org/2000/svg" viewBox="0 0 198.55 174.84"><defs><style>.cls-1{fill:#fff;stroke-width:0px;}</style></defs><g id="_レイヤー_1-2"><path class="cls-1" d="M52.39,48.58s-.06,0-.08,0c-1.09.12-1.95,1.2-1.93,2.39.01.7.33,1.31.8,1.69-.27-.36-.44-.82-.45-1.33,0-.35.06-.7.19-1.01.31-.74.96-1.3,1.73-1.39.47-.05.9.09,1.25.38-.36-.49-.9-.78-1.51-.74Z"/><path class="cls-1" d="M58.49,48.02c-1.2.1-2.15,1.26-2.12,2.59.01.79.37,1.49.92,1.91-.31-.41-.5-.93-.51-1.5-.02-1.33.92-2.49,2.12-2.59.5-.04.96.12,1.33.42-.41-.55-1.04-.88-1.73-.83Z"/><path class="cls-1" d="M84.36,47.04c-1.64-.06-2.83,1.29-2.71,2.87.06.87.67,1.73,1.45,2.28-.44-.49-.74-1.08-.78-1.67-.11-1.57,1.08-2.92,2.71-2.85.66.02,1.3.26,1.82.64-.6-.74-1.52-1.23-2.49-1.27Z"/><path class="cls-1" d="M93.05,47.34c-1.55-.12-2.92,1.13-2.84,2.8.05,1.09.69,2,1.54,2.51-.46-.5-.76-1.16-.79-1.9-.08-1.66,1.29-2.9,2.84-2.78.55.04,1.1.24,1.59.55-.6-.67-1.47-1.11-2.33-1.18Z"/><path class="cls-1" d="M153.47,52.51c-.02-.2-.14-.37-.34-.44-.22-.08-.26-.1-.49-.17-3.96-1.42-10.1-2.94-11.4-3.25-.14-.03-.24-.14-.27-.28l-1.89-6.66c-.81-2.67-2.34-3.66-4.7-4.62l-11.02-4.44c-1.42-.66-12.14-1.04-15.95-1.04-9.28,0-14.86,2.01-15.1,2.09-.4.14-.74.41-.96.77l-3.82,5.63h0s0,0,0,0c0,0,0,0-.01.02-.11.17-.83,1.18-2.73,1.38-11.08.07-24.01.96-30.69,1.51l-1.3-.89c-.08-.05-.04-.18.05-.18h1.02c.51,0,.92-.32.83-.67l-.29-1.1c-.06-.24-.17-.47-.31-.68-.22-.31-.54-.77-.76-.97-.21-.2-.6-.28-.85-.31-.15-.02-.3,0-.46.02l-2.75.57c-.73.15-1.26.78-1.26,1.42v.69c0,.2.07.39.2.55l.09.11c.18.22.47.36.78.36h1.32s.35.01.35.01c.27,0,.52.11.7.31.26.28.55.59.86.92-.75.07-1.36.12-1.82.17-.58.06-.96.29-1.54.71l-3.75,2.59c-.88.85-1.21,2.12-.85,3.29l3.3,11.32c.04.15-.03.3-.17.36l-1.22.49c-.46.19-.77.64-.77,1.14v1.21c0,.36.16.7.43.93l2.55,2.18c.6.51,1.35.82,2.14.87l2.61.19c.55,1.9,1.59,3.54,2.94,4.7.65.56,1.49.85,2.35.85h4.69c.89,0,1.76-.31,2.42-.91,1.03-.92,1.85-2.14,2.38-3.55l31.62,2.34h0s0,0,0,0h0s.89-.12.89-.12c1.07,2.86,2.85,5.14,5.01,6.39.44.25.94.39,1.44.39h4.82c.48,0,.96-.11,1.38-.35,2.66-1.51,4.74-4.57,5.67-8.37l.12-.55,13.45-1.82c.76,2.46,2.14,4.05,3.69,3.84.74,0,1.91,0,2.65-.01,1.84.32,3.45-1.89,4.09-5.12l.02-.11,5.01-.68c.06,0,.13-.02.19-.04.07-.02.14-.04.21-.07.01,0,.03-.01.04-.02.06-.02.12-.05.18-.08,0,0,.01,0,.02,0h0s0,0,0,0c.06-.03.12-.07.17-.11,0,0,0,0,0,0h0s.06-.05.09-.07c.02-.02.04-.03.06-.05,0,0,.01-.01.02-.02,0,0,0,0,0,0,.04-.04.09-.08.13-.13,0,0,0,0,0,0,0,0,.02-.02.02-.02,0,0,0,0,0,0,0,0,.01-.02.02-.02.04-.05.08-.09.11-.14l1.49-2.13c.06-.09.11-.18.16-.28.05-.1.08-.2.11-.3l2.54-9.32s.01-.07.02-.1c0-.03,0-.06,0-.08ZM134.48,39.09l.72.27c.9.34,1.57,1.11,1.78,2.05l1.15,5.21c.13.58-.4,1.09-.97.95-.81-.19-1.62-.38-2.43-.57-.4-.09-.7-.43-.74-.84l-.59-6.24c-.06-.59.53-1.04,1.08-.83ZM123.03,34.81l8.46,3.16c.56.21.96.72,1.02,1.32l.54,5.37c.1.99-.32,1.88-1.76,1.59-2.55-.52-9.01-1.63-11.5-2.05-.41-.07-.66-.48-.54-.88l2.47-7.86c.17-.55.77-.85,1.31-.65ZM89.63,40.31l.13-.21.18-.28,1.92-3.02s.46-.81.82-1.2c0,0,.43-.69,2.36-1.17,0,0,0,0,0,0,1.86-.47,4.35-1.02,8.99-1.11,0,0,0,0,0,0,3.76-.19,8.65-.12,14.84.56.67.07,1.11.74.91,1.39l-2.13,6.76s-.53,1.73-2.73,1.79h0c-.11-.01-.21-.03-.32-.04-.21-.03-.41-.06-.62-.08-.24-.03-.48-.07-.72-.1-.15-.02-.31-.04-.46-.06-.17-.02-.34-.04-.51-.07-.15-.02-.29-.04-.44-.06-.17-.02-.34-.04-.51-.07-.15-.02-.29-.04-.44-.06-.3-.04-.59-.07-.88-.11-.15-.02-.29-.04-.44-.05-.17-.02-.34-.04-.51-.06-.14-.02-.27-.03-.41-.05-.17-.02-.35-.04-.52-.06-.14-.02-.51-.06-.65-.08l.13-.2c.15-.22.29-.42.42-.61.11-.16.3-.25.49-.25h.54s1.66,0,1.66,0c.44,0,.86-.2,1.13-.55l.14-.18c.2-.25.31-.57.31-.89v-1.1c0-1.02-.83-1.84-1.84-1.84h-3.09c-.15,0-.29.03-.43.09-.22.1-.56.28-.73.55-.18.28-.43.84-.6,1.22-.11.25-.19.51-.23.77l-.21,1.2c-.07.38.23.73.62.73h.74c.15,0,.22.17.13.28l-.56.62c-.07,0-.13-.01-.2-.02-.12-.01-.24-.03-.36-.04-.17-.02-.34-.04-.52-.06-.12-.01-.25-.03-.37-.04-.17-.02-.34-.04-.5-.05-.12-.01-.24-.02-.36-.04-.17-.02-.34-.03-.51-.05,0,0,0,0,0,0-4.49-.45-8.57-.74-11.91-.85-.43-.01-.86-.02-1.3-.03-.2,0-.38-.1-.48-.27-.22-.36-.06-.8.02-.96ZM94.65,67.68c-.21.04-.43.07-.68.08l-44.86-2.31c-.13,0-.25-.06-.35-.14l-1.3-1.11c-.06-.05-.09-.12-.09-.19v-.17c0-.1.06-.2.16-.24l.47-.19s.07-.02.1-.02h.17s13.69.53,13.69.53c.04,0,.08,0,.13,0,.76,0,1.5-.26,2.09-.74l.33-.27c.18-.14.4-.22.62-.21l10.24.3c.27,0,.54.13.71.35.56.73,1.41,1.17,2.33,1.21l18.32.64s-.04,2.05-2.09,2.49ZM97.73,54.21c.1.05.17.14.18.27l.09,1.02c0,.13.01.27.02.41-.46-.01-.96-.03-1.52-.04-.15,0-.28-.1-.29-.23-.03-.4-.04-.65-.06-.98-.08.02-.17.03-.26.04.54-.09,1.06-.26,1.54-.5.1-.05.22-.05.31,0-.09-.04-.19-.05-.29,0,.1,0,.2,0,.29,0ZM54.96,54.47c.07.39.1.59.17.99.01.08-.05.16-.14.16-.9.01-1.56.02-2.22.03,0,.07.02.14.03.21-.15-.74.05-1.1.28-1.26.12-.09.28-.13.43-.14.5-.01.97-.02,1.43-.03,0,.02.02.03.02.05ZM55.2,56.68c.08,0,.15.06.17.13.07.39.1.59.17.98.01.08-.05.16-.14.16-.8,0-1.41,0-2.01,0l-.36-1.24c.65,0,1.3-.01,2.17-.02ZM55.61,59.01c.08,0,.15.06.16.13.06.37.09.55.16.91.02.12-.07.22-.2.21-.66-.01-1.18-.02-1.68-.03l.3,1.05c.47.01.98.02,1.6.04.11,0,.21.08.22.18.02.12.04.22.05.31l-1.74-.07-.79-2.76c.57,0,1.16,0,1.92.01ZM61.33,56.83c.06.38.09.58.15.96.01.09-.06.17-.17.17-1.78,0-2.66-.01-4.43-.02-.08,0-.15-.06-.17-.13-.07-.4-.1-.6-.17-.99-.01-.08.05-.16.14-.16,1.76-.01,2.64-.02,4.4-.03.12,0,.23.08.25.2ZM61.69,59.2c.06.4.09.6.15,1,.01.09-.06.17-.17.17-1.74-.04-2.61-.05-4.34-.08-.11,0-.21-.08-.23-.18-.06-.38-.1-.56-.16-.94-.01-.08.05-.16.15-.16,1.76.01,2.65.02,4.41.04.09,0,.18.07.19.15ZM57.4,61.86c-.01-.09-.03-.18-.05-.29-.02-.12.07-.21.2-.21,1.72.04,2.59.06,4.31.1.09,0,.17.07.19.15.02.17.04.3.06.43.16,0,.31-.03.46-.08-.17.06-.35.09-.53.08l-4.65-.18ZM68,60.34c.01.1-.07.17-.18.17-1.82-.04-2.74-.07-4.57-.1-.09,0-.18-.07-.19-.15-.06-.41-.09-.61-.15-1.02-.01-.09.07-.17.17-.17,1.84.02,2.76.03,4.59.05.1,0,.18.07.19.16.05.43.08.64.13,1.06ZM67.69,57.84c.01.1-.07.18-.18.17-1.84-.02-2.76-.03-4.61-.04-.09,0-.18-.07-.19-.15-.06-.39-.09-.58-.14-.97-.02-.12.08-.23.22-.23,1.78,0,2.69-.01,4.43-.01l.04.42c.02.15.1.27.22.34,0,0,.08.04.17.09.01.11.03.23.05.37ZM69.84,51.77c.38.02.39.1.41.26l.09.99.09,1.02h0l.13,1.45h0l.1,1.13h0v.11c.02.05-.02.1-.06.12l-1.43.52s0,0,0,0c0,0,0,0-.01,0,0,0-.02,0-.03,0l-1.32-.47s-.06-.04-.07-.07l-.4-4.73c0-.05,0-.12.04-.17.02-.02.05-.04.08-.04l2.39-.1ZM69.32,59.15c1.91.03,2.87.05,4.76.08.1,0,.18.07.19.15.05.46.07.69.12,1.15,0,.09-.07.16-.18.16-1.89-.06-2.84-.08-4.74-.13-.1,0-.18-.07-.19-.16-.05-.43-.08-.65-.13-1.08-.01-.1.07-.18.18-.17ZM73.94,58.1c-1.45-.02-2.35-.04-3.55-.05l.99-.36c.23-.07.37-.29.35-.52l-.05-.55c.63,0,1.28,0,2.12.01.1,0,.18.07.19.15.05.46.07.69.12,1.15,0,.09-.07.17-.17.16ZM73.66,55.49c-.82,0-1.46,0-2.08,0l-.13-1.46c.62,0,1.25-.01,2.06-.02.1,0,.18.07.19.15.05.46.07.7.12,1.16,0,.09-.07.17-.17.17ZM73.38,52.87c-.79,0-1.42.02-2.02.02l-.07-.78c-.02-.16-.03-.4-.3-.53,0,0-.14-.07-.27-.15.76-.02,1.51-.04,2.52-.06.1,0,.19.07.19.15.05.47.07.7.12,1.16,0,.09-.07.17-.18.17ZM73.1,50.23c-1.93.05-2.9.08-4.86.14-.13,0-.25-.09-.27-.2-.05-.4-.08-.6-.13-1-.02-.13.09-.24.23-.24,1.96-.08,2.94-.12,4.87-.19.1,0,.19.06.2.15.05.47.07.7.12,1.17,0,.09-.07.17-.17.17ZM67,54.1l.12,1.4c-1.81,0-2.72.01-4.53.03-.13,0-.24-.08-.25-.2-.06-.37-.08-.56-.14-.93-.02-.12.08-.23.22-.23,1.82-.04,2.74-.05,4.56-.08.01,0,.02,0,.03,0ZM62.79,61.86c-.06.03-.11.06-.17.08.06-.02.12-.05.17-.08ZM62.99,61.72l.41-.33-.41.33s0,0,0,0c0,0,0,0,0,0ZM79.01,48.88c.05.49.09.86.12,1.22-1.56.02-2.56.04-4.35.08-.1,0-.19-.07-.2-.15-.05-.48-.07-.71-.12-1.19,0-.09.07-.17.17-.18,1.8-.06,2.8-.09,4.36-.13h0c0,.11,0,.23.01.34ZM79.02,48.24s0-.02,0-.03c0,0,0,.02,0,.03ZM79.06,47.93s0-.02,0-.03c0,.01,0,.02,0,.03ZM80.35,54.15c.04.49.06.73.11,1.22,0,.09-.07.17-.18.17-1.96-.02-2.95-.03-4.95-.05-.1,0-.18-.07-.19-.15-.05-.47-.07-.7-.12-1.17,0-.09.07-.17.18-.17,2.01-.01,3-.01,4.96,0,.1,0,.19.07.19.16ZM80.83,59.55c.04.48.06.72.11,1.2,0,.09-.08.17-.18.16-1.95-.07-2.91-.11-4.88-.17-.1,0-.18-.07-.18-.15-.05-.46-.07-.7-.12-1.16,0-.09.07-.17.18-.16,1.97.04,2.94.07,4.89.12.1,0,.18.07.19.16ZM80.7,58.07c0,.09-.07.17-.18.16-1.96-.05-2.93-.07-4.91-.11-.1,0-.18-.07-.19-.15-.05-.47-.07-.7-.12-1.17,0-.09.07-.17.17-.17,1.99.02,2.97.03,4.93.06.1,0,.18.07.19.16.04.49.06.73.11,1.21ZM80.87,62.06c.1,0,.18.07.19.16.02.22.03.39.05.56l.41.02-3.03-.12c-.35-.01-.68-.18-.9-.46l-.23-.29c1.17.04,2.07.08,3.51.14ZM81.11,54.17s.01,0,.02,0c0,0-.01,0-.02,0ZM87.4,58.43c-2.07-.06-3.11-.09-5.16-.15-.1,0-.19-.07-.19-.16-.04-.49-.07-.74-.11-1.23,0-.09.07-.17.18-.17,2.06.03,3.09.05,5.17.1.11,0,.2.08.21.16.04.51.06.76.1,1.27,0,.09-.08.17-.2.17ZM87.71,59.76c.04.5.06.75.1,1.26,0,.09-.08.17-.2.16-2.06-.08-3.09-.13-5.13-.2-.1,0-.18-.07-.19-.16-.04-.49-.06-.73-.11-1.22,0-.09.08-.17.18-.16,2.05.06,3.08.09,5.14.16.11,0,.2.08.2.16ZM82.46,62.82c-.01-.16-.03-.33-.05-.54,0-.09.08-.17.19-.16,2.04.08,3.06.12,5.12.21.11,0,.2.08.2.16.02.21.03.38.04.53l1.39.05-6.89-.26ZM94.87,54.8h0c.22,0,.43-.01.65-.03-.21.02-.43.04-.65.03ZM95.06,61.27c0,.12-.12.22-.28.22-2.14-.1-3.21-.14-5.35-.23-.11,0-.2-.08-.21-.16-.04-.51-.06-.76-.1-1.27,0-.09.08-.17.2-.16,2.14.07,3.22.11,5.37.19.15,0,.28.11.29.22.03.48.05.72.08,1.2ZM94.88,58.44c0,.13-.12.22-.27.22-2.16-.08-3.23-.11-5.38-.18-.11,0-.2-.08-.21-.17-.04-.51-.06-.77-.1-1.28,0-.09.08-.17.2-.17,2.15.05,3.24.08,5.4.13.15,0,.28.1.29.23.03.49.05.73.08,1.21ZM89.38,63.09c-.01-.15-.02-.31-.04-.51,0-.09.08-.17.2-.16,2.13.09,3.2.14,5.33.24.15,0,.28.11.28.22,0,0,0,.01,0,.02.34-.15.63-.34.9-.56-.71.6-1.67.96-2.96.89h0s-3.72-.14-3.72-.14ZM96.56,61.35c-.03-.49-.05-.73-.08-1.22,0-.13.12-.22.28-.22.27.01.53.02.77.03-.24.75-.59,1.45-1.09,2.02.11-.13.22-.26.32-.4-.11-.03-.2-.11-.2-.21ZM96.67,58.74c-.15,0-.28-.11-.29-.23-.03-.49-.05-.74-.08-1.23,0-.13.12-.23.28-.22.53.01.99.03,1.43.04.01-.21.02-.42.02-.62,0,.69-.06,1.49-.2,2.3-.35-.01-.73-.03-1.15-.04ZM97.82,58.78c-.07.39-.16.79-.29,1.17.12-.38.22-.78.29-1.17ZM96.44,61.97c-.11.13-.24.25-.37.36.13-.11.25-.23.37-.36ZM93.26,53.82c-1.92-.03-3.72-1.61-3.83-3.71-.12-2.12,1.62-3.7,3.59-3.55,1.94.15,3.88,1.79,3.92,3.87.04,2.03-1.85,3.41-3.67,3.38ZM94.85,54.8c-.07,0-.14,0-.2,0,.02.25.03.47.05.8,0,.13-.12.23-.27.22-2.17-.05-3.25-.08-5.41-.12-.11,0-.2-.08-.21-.17-.03-.33-.04-.56-.06-.82,2.04.03,4.08.06,6.11.09ZM87.32,54.69c.02.25.04.47.06.8,0,.09-.08.17-.19.17-2.08-.04-3.12-.06-5.19-.09-.1,0-.19-.07-.19-.16-.04-.4-.06-.63-.09-.97,0,0,0,0,0,0,.32.11.65.17.99.17,1.8.03,3.59.06,5.37.08-.25,0-.51,0-.76-.01ZM81.4,54.32s0,0,.01,0c0,0,0,0-.01,0ZM84.72,53.51c-1.79-.03-3.8-1.81-3.94-3.61-.11-1.44.65-2.73,1.86-3.3.45-.21.97-.33,1.53-.3.44.02.86.11,1.27.26,1.48.55,2.63,1.92,2.76,3.52.15,1.83-1.71,3.47-3.48,3.44ZM80.85,54.01s-.01,0-.02-.01c0,0,.01,0,.02.01ZM80.58,53.81s0,0,0,0c0,0,0,0,0,0ZM80.34,53.59s0,0,0,0c0,0,0,0,0,0ZM79.74,52.83c-1.77,0-2.77,0-4.67.02-.1,0-.18-.07-.19-.15-.05-.47-.07-.71-.12-1.18,0-.09.07-.17.18-.17,1.78-.03,2.78-.05,4.34-.07,0,.06.01.12.02.19.05.49.21.95.46,1.36,0,0,0,0,0,0ZM80.12,53.36s0,0,0,0c0,0,0,0,0,0ZM79.14,50.16c.03.25.05.51.08.79-.03-.29-.05-.54-.08-.79ZM79.25,47.35h0c-1.79.05-2.8.08-4.74.15-.1,0-.19-.06-.2-.15-.01-.12-.02-.22-.03-.32-.43.02-.86.04-1.29.06,2.16-.1,4.37-.19,6.56-.25-.12.16-.22.33-.3.52ZM79.14,47.64s0-.01,0-.02c0,0,0,.01,0,.02ZM72.96,47.09c0,.09.02.19.03.3,0,.09-.07.17-.17.18-1.94.08-2.93.12-4.9.21-.13,0-.25-.08-.27-.2,0-.08-.02-.14-.03-.21,1.72-.1,3.51-.19,5.34-.28ZM66.35,47.44c.42-.03.85-.05,1.27-.08-.43.02-.85.05-1.27.08ZM62.89,50.55c0-.42,0-.85-.01-1.27,0-.13,0-.26-.02-.39,0,.09.02.18.02.27,1.15-.06,2.02-.1,3.42-.16.13,0,.25.08.27.2.05.39.08.59.13.99.02.13-.09.24-.23.24-1.46.05-2.35.08-3.57.13ZM66.34,47.44c0,.06.01.11.02.18.02.13-.09.24-.23.24-1.43.07-2.31.11-3.48.18,0,0,0,0,0,0-.05-.12-.11-.24-.18-.35,1.23-.08,2.53-.17,3.87-.25ZM62.84,48.76c-.01-.09-.03-.19-.05-.27.02.09.04.18.05.27ZM62.76,48.37c-.03-.11-.07-.22-.11-.33.04.11.08.22.11.33ZM62.9,51.67h0c1.31-.04,2.21-.07,3.73-.12.08,0,.16.03.21.09-.03.08-.04.18-.03.28l.09,1.02s-.07.03-.11.03c-1.73.03-2.65.05-4.3.09,0,0,0,0,0,0,.23-.4.38-.88.41-1.39ZM62,53.68s0,0,0,0c0,0,0,0,0,0ZM61.8,53.85s0,0,0,0c0,0,0,0,0,0ZM61.59,53.99s0,0,0,0c0,0,0,0,0,0ZM61.36,54.11s0,0,0,0c0,0,0,0,0,0ZM60.96,54.4c.06.37.08.55.14.91.02.12-.08.23-.22.23-1.77.02-2.65.03-4.41.05-.08,0-.15-.06-.17-.13-.07-.4-.1-.6-.17-1,0-.03,0-.05.01-.08,1.42-.03,2.8-.06,4.4-.09.11,0,.22-.02.33-.04,0,0,0,0,0,0,.05.04.08.09.09.14ZM58.6,53.69c-1.54.04-2.81-1.31-2.84-3.02-.02-1.01.4-1.95,1.07-2.57.46-.43,1.04-.71,1.67-.76.62-.05,1.2.15,1.67.51.71.54,1.18,1.47,1.19,2.54.03,1.79-1.21,3.27-2.75,3.3ZM56.12,54.39c-.34,0-.69.02-1.04.02.35,0,.7-.02,1.04-.02ZM52.43,53.85c-.14,0-.28,0-.42-.03-1.25-.18-2.23-1.34-2.26-2.77-.03-1.59,1.11-3.02,2.56-3.17.59-.06,1.13.11,1.58.45.66.5,1.1,1.36,1.12,2.37.03,1.7-1.13,3.1-2.58,3.14ZM96.79,65.22l-.05-.02h.05s0,.01,0,.02ZM98.02,56.47c0-.2,0-.38,0-.56,0,.18,0,.36,0,.56ZM91.32,44.89c-1.35-.04-2.81-.07-4.37-.07-.23,0-.46,0-.7,0-.58,0-1.16,0-1.75,0-9.53.07-20.19.73-27.1,1.25-.57.04-1.11.08-1.62.12-2.04.16-3.64.3-4.62.39-.27.03-.52.12-.74.28h0s-1.6,1.11-1.6,1.11c-.84.58-1.21,1.65-.9,2.62l3.44,11.03-1.4-.05c-.15,0-.28-.11-.32-.25l-3.49-11.97c-.09-.28-.08-.57.01-.83.09-.25.28-.46.5-.61l3.4-2.35c.48-.34.54-.35.62-.36.67-.07,1.81-.17,3.32-.3.77-.06,1.62-.13,2.56-.2,7.08-.54,18.71-1.28,28.85-1.32.28,0,.56,0,.84,0,.48,0,.94,0,1.4,0,.05,0,.09,0,.14,0,1.25.01,2.44.03,3.54.07,2.66.08,5.88.3,9.45.62-.29.3-.6.63-.91.99-.18.21-.45.32-.72.29-2.94-.25-5.59-.41-7.85-.48ZM115.48,66.39c-.01.37-.04.74-.08,1.1,0,.06-.01.12-.02.18-.01.11-.03.22-.04.33,0,0,0,0,0,0,0,.05-.01.11-.02.16-.04.31-.1.62-.16.92-.04.19-.08.38-.13.57-.02.09-.05.18-.07.27,0,.01,0,.03-.01.04-.72,2.7-2.09,4.55-3.61,4.55-1.34,0-2.48-1.44-3.12-3.64,0,0,0-.01,0-.02-.01-.05-.03-.09-.04-.14-.06-.21-.11-.44-.16-.66-.06-.28-.12-.57-.16-.87,0-.05-.01-.1-.02-.15,0,0,0,0,0,0-.01-.08-.02-.16-.03-.23-.04-.3-.07-.61-.09-.92,0-.14-.02-.28-.02-.43,0-.04,0-.08,0-.12,0,.04.02.08.03.12.04.15.08.29.12.43.09.3.19.59.3.87.03.08.06.16.1.24,0,0,0,0,0,0,.02.05.05.1.07.15.14.3.29.58.45.83.15.22.3.43.46.6.05.05.09.1.14.14,0,0,.01.02.02.02.45.43.95.67,1.49.67.71,0,1.38-.42,1.97-1.14h0s.02-.03.03-.04c.07-.08.13-.17.19-.26.14-.2.27-.41.4-.64.16-.29.31-.61.45-.96.02-.05.04-.11.06-.17,0,0,0,0,0,0,.06-.16.12-.32.18-.49,0,0,0,0,0,0,.13-.37.24-.77.34-1.18.25-1.05.41-2.22.44-3.45,0-.27,0-.53,0-.8,0-.3-.02-.6-.04-.9.09.28.16.58.23.89.26,1.17.4,2.51.36,3.93,0,.06,0,.13,0,.19ZM109.8,63.37c0-.29.04-.56.1-.81.2-.76.68-1.29,1.23-1.29.52,0,.97.47,1.19,1.16.09.28.14.6.14.95,0,1.16-.6,2.1-1.34,2.1s-1.34-.94-1.34-2.1ZM141.43,63.71c-.01.27-.03.53-.07.78,0,0,0,0,0,0,0,.05-.01.1-.02.16,0,.06-.02.13-.03.19-.02.11-.04.22-.06.32-.03.14-.06.28-.09.41-.07.27-.14.53-.23.77-.01.04-.03.07-.04.11-.48,1.3-1.23,2.15-2.04,2.15-.7,0-1.3-.64-1.68-1.65-.01-.03-.02-.06-.03-.09-.08-.23-.15-.47-.21-.73,0-.03-.01-.05-.02-.08-.02-.07-.03-.15-.05-.23-.03-.19-.06-.38-.09-.58,0-.05-.01-.1-.02-.15,0,0,0,0,0,0-.04-.4-.05-.83-.04-1.26,0-.02,0-.05,0-.07,0,.02.01.05.02.07.12.46.27.86.45,1.21,0,0,0,0,0,0,.03.05.05.1.08.14.12.2.25.37.39.52.04.04.07.07.11.11.07.07.15.12.22.17.23.15.48.24.74.24.38,0,.75-.17,1.09-.49.13-.12.26-.27.38-.43.05-.07.1-.14.15-.22.07-.11.14-.23.21-.35.03-.05.05-.11.08-.17,0,0,0,0,0,0,.21-.44.39-.94.53-1.5.01-.06.03-.12.04-.18.06-.27.11-.55.14-.84.03.26.06.53.07.81,0,.05,0,.11,0,.17,0,.22,0,.44,0,.66ZM137.82,61.54c0-.2.02-.38.07-.55.13-.52.45-.88.82-.88.35,0,.65.32.79.79.06.19.1.41.1.64s-.4,1.43-.89,1.43-.89-.64-.89-1.43ZM151.25,53.58l-.27.99s0,0,0,0c-.04-.03-.09-.06-.14-.07-4.92-1.58-11.17-3.04-17.78-4.29-3.87-.73-7.87-1.4-11.8-1.97-3.99-.58-7.9-1.07-11.54-1.45-.24-.02-.48-.05-.71-.07-.19-.02-.39-.01-.58.03-.08.02-.16.04-.23.06-.26.08-.5.23-.7.42-.03.03-.07.06-.1.1-.06.06-.12.12-.2.18-.13.12-.27.25-.42.41,1.21.13,2.45.28,3.71.43,0,0,.02,0,.03,0,1.25.15,2.52.32,3.81.49.02,0,.04,0,.07,0,.86.12,1.72.23,2.59.36,0,0,.01,0,.02,0,.42.06.84.12,1.25.18.03,0,.06,0,.1.01.86.13,1.72.26,2.59.39.06,0,.12.02.18.03.26.04.53.08.79.12.15.03.31.05.46.07.85.14,1.7.27,2.55.42.06,0,.11.02.17.03.37.06.74.12,1.1.19.07.01.13.02.2.03.83.14,1.66.29,2.49.44.08.01.16.03.24.04.34.06.68.13,1.02.19.08.01.16.03.23.04.81.15,1.62.31,2.42.46.09.02.19.04.28.06.32.06.64.13.97.19.08.02.17.03.25.05.4.08.79.16,1.19.24.03,0,.06.01.09.02.36.07.71.15,1.06.23.1.02.21.04.31.07.3.07.6.13.9.2.09.02.17.04.26.06.38.08.75.17,1.13.25.06.01.11.03.17.04.31.07.63.14.94.22.11.03.22.05.32.08.29.07.57.14.85.2.08.02.17.04.25.06.36.09.72.18,1.07.26.07.02.14.03.2.05.29.07.57.14.85.22.1.03.21.05.31.08.27.07.55.14.82.22.08.02.15.04.23.06.34.09.67.18,1,.27.08.02.15.04.23.06.26.07.51.14.77.22.05.01.11.03.16.04,0,0,0,0,.01,0,1.07.32,1.69,1.44,1.4,2.52l-.93,2.6-.27.76c-.23.64-.83,1.06-1.5,1.06l-2.24.2v-2.45c.07-1.74-1.12-3.27-2.82-3.63l-4.37-1.14c-2.24-.47-4.35,1.25-4.35,3.54l-.31,5.61c-.02.44-.36.8-.79.85l-9.8,1.23v-6.12c.1-2.34-1.51-4.4-3.8-4.88l-6.9-1.44c-3.02-.63-5.84,1.67-5.84,4.75l-.38,8.45c-.02.4-.34.72-.75.73l-2.05.05c-.42.01-.77-.31-.81-.72l-.95-11.23h0s-.36-4.23-.36-4.23l-.18-2.07v-.06c-.04-.23.04-.54.2-.9.2-.45.52-.97.93-1.52.4-.55.88-1.12,1.4-1.67.41-.44.85-.87,1.28-1.26.03-.01.07-.02.11-.03,0,0,0,0,.01,0,.41.04.82.08,1.23.13h0s-.88.99-.88.99c-.1.09-.17.21-.22.33-.04.1-.05.2-.05.3,0,.02,0,.05,0,.07.06.41.46.68.88.65.22-.02.48-.09.75-.31.09-.08.24-.26.42-.51.24-.34.55-.82.89-1.33,1.03.12,2.08.24,3.16.37,2.24.28,4.56.59,6.91.93,4.73.68,9.62,1.49,14.35,2.4,7.16,1.37,13.97,2.96,19.32,4.69.35.11.71.23,1.05.35.08.03.13.12.11.2Z"/><path class="cls-1" d="M19.65,69.88c.5.95.54,2.02.2,3.1-.33,1.03-.71,1.73-1.15,2.27-.39.48-.68.81-.97,1.06-.17.13-.37.25-.53.2-.14-.04-.28-.11-.37-.22-.49-.42-1.15-.95-1.78-1.34-.15-.1-.22-.2-.17-.37.02-.07.1-.15.23-.24.35-.2.73-.48,1.07-.9.25-.29.46-.62.58-1,.2-.62,0-1.21-1.04-1.55-.28-.09-.59-.11-.95-.04-.69.12-1.24.47-2.14.98-1.41.82-2.22,1.24-3.54,1.45-.74.11-1.36.09-2.16-.17-1.08-.35-2.05-1.06-2.58-2.07-.55-1.05-.62-2.05-.26-3.15.25-.79.56-1.43.99-1.95.48-.59.82-.93,1.12-1.12.11-.1.34-.16.45-.12.09.03.2.12.28.19.42.4,1.22,1.13,1.62,1.5.06.05.12.12.08.24-.02.07-.08.18-.22.27-.2.15-.41.32-.66.61-.27.26-.47.56-.61.91-.19.6.04,1.25.96,1.55.28.09.56.13.91.08.57-.08,1.21-.38,1.93-.83,1.52-.94,2.81-1.45,3.84-1.59.79-.12,1.39-.11,2.09.12,1.34.43,2.25,1.17,2.75,2.13Z"/><path class="cls-1" d="M25.14,57.34c.45.96.44,1.97-.13,3.09l-.72,1.41c-.57,1.12-1.39,1.75-2.42,1.93-1.02.16-1.93.03-2.66-.34-.33-.17-1.15-.58-1.96-1.06-.83-.45-1.46-.8-1.9-1.02-.44-.22-1.09-.53-1.94-.93-.86-.38-1.68-.8-2.01-.97-.75-.38-1.39-1.04-1.84-1.95-.49-.95-.44-1.97.13-3.09l.72-1.41c.57-1.12,1.36-1.74,2.42-1.93,1-.17,1.9-.02,2.66.34.33.17,1.14.61,1.96,1.06.82.47,1.46.8,1.9,1.02.43.25,1.08.55,1.94.93.85.4,1.68.8,2.01.97.72.39,1.36,1.03,1.84,1.95ZM14.19,54.62c-.65-.25-1.12-.03-1.38.48-.27.54-.16,1.02.43,1.4.56.37,1.81,1.03,3.6,1.94,1.77.9,3.06,1.53,3.69,1.76.63.24,1.09.05,1.36-.49.26-.52.16-1.02-.4-1.39-.56-.37-1.83-1.04-3.6-1.94-1.79-.91-3.06-1.53-3.69-1.76Z"/><path class="cls-1" d="M24.27,38.77c1.59,1.27,2.73,2.11,3.4,2.61.66.49.98.72,1.75,1.26.79.52,1.5,1.05,1.82,1.28.66.49,1.17,1.21,1.5,2.23.3,1.01.11,1.98-.64,3.03l-.79,1.07c-.75,1.01-1.66,1.5-2.71,1.5-1.06-.03-1.91-.29-2.57-.77-.3-.22-1.04-.76-1.76-1.36-.74-.58-1.31-1.03-1.7-1.32-.94-.69-2.15-1.55-3.69-2.6-1.52-1.06-2.34-1.63-2.46-1.72-.26-.19-.33-.46-.17-.69l1.6-2.17c.16-.22.45-.23.71-.04.12.09.9.7,2.37,1.84s2.63,2.07,3.57,2.76,2.55,1.85,3.21,2.24c.68.41,1.22.31,1.56-.16.34-.46.28-1.01-.31-1.54-.59-.5-2.17-1.69-3.09-2.41-.94-.69-2.16-1.53-3.69-2.6-1.52-1.06-2.34-1.63-2.46-1.72-.26-.19-.35-.44-.17-.69l1.46-1.98c.16-.22.43-.25.71-.04.12.09.96.74,2.55,1.97Z"/><path class="cls-1" d="M32.98,26.28c.36.48.57.76.69.92.24.32.11.55-.14.79l-.97.95c-.32.32-.27.44-.06.69.42.46,2.33,2.44,3.14,3.27.82.83,1.9,1.85,3.23,3.14,1.36,1.31,2.07,2,2.17,2.1.21.21.24.49.04.69l-1.9,1.87c-.2.19-.48.16-.69-.05-.1-.11-.78-.83-2.07-2.21-1.27-1.36-2.27-2.45-3.09-3.28-.82-.83-2.76-2.77-3.22-3.2-.24-.21-.37-.26-.69.05l-.97.95c-.25.25-.48.37-.8.12-.16-.12-.42-.35-.91-.71-.49-.35-.75-.58-.89-.69-.14-.14-.21-.28.03-.51l5.88-5.79c.23-.23.37-.16.51-.02.1.14.33.41.67.9Z"/><path class="cls-1" d="M53.62,28.88l-2.15,1.53c-.25.18-.52.1-.69-.15-.1-.14-.6-.88-1.5-2.28-.9-1.4-1.68-2.57-1.75-2.68-.14-.2-.3-.15-.4-.08l-1.6,1.14c-.1.07-.18.19-.03.39.07.1.91,1.24,1.94,2.54,1.02,1.31,1.56,2.02,1.66,2.16.17.24.18.51-.07.69l-2.17,1.55c-.25.17-.52.1-.69-.15-.09-.12-.62-.96-1.67-2.52-1.04-1.54-1.88-2.77-2.53-3.73-.68-.95-1.58-2.13-2.7-3.61-1.12-1.48-1.73-2.26-1.82-2.38-.19-.26-.17-.55.07-.72l2.17-1.55c.25-.17.5-.08.68.18.07.1.55.82,1.4,2.14.83,1.29,1.6,2.42,1.67,2.52.14.2.27.17.38.1l1.6-1.14c.1-.07.2-.2.05-.4-.07-.1-.9-1.18-1.86-2.39-.97-1.23-1.49-1.92-1.56-2.02-.19-.26-.17-.55.07-.72l2.15-1.53c.25-.18.52-.1.71.17.09.12.64.94,1.66,2.5,1.04,1.54,1.88,2.77,2.55,3.72.68.95,1.56,2.14,2.68,3.63,1.15,1.49,1.75,2.28,1.84,2.4.17.24.16.53-.09.7Z"/><path class="cls-1" d="M65.29,22.66l-6.85,3.39c-.27.13-.53.01-.66-.25-.07-.13-.46-1.04-1.25-2.75-.78-1.69-1.42-3.03-1.91-4.09-.52-1.04-1.22-2.35-2.09-4-.87-1.64-1.35-2.51-1.42-2.64-.14-.29-.08-.57.19-.7l6.76-3.35c.25-.12.59-.04.7.18l.85,2.07c.05.17.04.48-.39.69l-3.47,1.72c-.25.12-.41.31-.26.6l1.13,2.29c.09.18.22.28.47.16l2.23-1.1c.32-.16.47-.07.61.22l.9,1.82c.18.35.02.54-.19.64l-2.21,1.09c-.2.1-.29.26-.17.5l1.11,2.24c.17.33.55.42,1.18.11l3.02-1.49c.45-.22.65-.1.83.2l1.12,1.93c.11.22-.04.43-.24.53Z"/><path class="cls-1" d="M78.68,18.09l-2.5.77c-.26.08-.53.06-.72-.29-.28-.48-.69-1.21-1.25-2.34-.69-1.39-1.16-2.13-1.41-2.44-.41-.47-.82-.6-1.35-.44l-.38.12c.38,1.15.9,2.75,1.34,3.92.38,1.15.63,1.78.66,1.89.08.26,0,.54-.3.64l-2.57.79c-.29.09-.52-.07-.61-.36-.04-.14-.29-1.1-.79-2.92-.5-1.79-.91-3.22-1.23-4.34-.34-1.11-.83-2.52-1.42-4.28-.6-1.76-.94-2.69-.98-2.83-.09-.31,0-.57.3-.66l4.35-1.34c1.11-.34,2.17-.31,3.09.21.92.49,1.55,1.36,1.95,2.66.69,2.22-.08,3.58-.76,4.28,1.01.47,1.53,1.21,4.67,6.18.08.08.21.27.24.37.04.14.04.3-.32.41ZM70.26,7.08c-.84.26-1.04.55-.86,1.15l.58,1.87c.11.35.25.55.92.34.96-.3,1.34-.85.96-2.11-.33-1.06-.75-1.5-1.59-1.24Z"/><path class="cls-1" d="M91.92,15.96l-2.44.32c-.22.03-.62-.12-.77-.42-.52-1.23-1.38-3.12-2.1-4.57-.46-1.01-1.23-2.61-1.43-2.96l.26,1.96c.03.2.2,1.35.5,3.01.29,1.63.48,2.68.5,2.86.04.27-.11.54-.38.57l-2.39.32c-.3.04-.5-.16-.54-.45-.02-.15-.1-1.14-.3-3.01-.19-1.85-.36-3.32-.49-4.48-.15-1.15-.4-2.62-.69-4.46-.29-1.83-.47-2.81-.49-2.96-.04-.32.1-.56.4-.6l2.47-.33c.3-.04.59.07.74.45l3.53,7.5-.28-2.14c-.01-.1-.22-1.45-.5-2.98-.28-1.54-.44-2.54-.46-2.69-.04-.32.08-.56.35-.6L89.81,0c.3-.04.5.16.55.48.02.15.12,1.13.32,2.98.17,1.85.34,3.33.49,4.48s.37,2.62.69,4.46c.3,1.86.45,2.84.47,2.99.04.29-.11.54-.41.58Z"/><path class="cls-1" d="M113.35,16.84l-2.55-.28c-.23-.02-.44-.1-.46-.38l-.16-1.96c-.03-.23-.16-.42-.48-.45l-2.15-.24c-.23-.03-.49.05-.57.33l-.56,1.86c-.07.22-.26.32-.54.29l-2.3-.26c-.25-.03-.51-.18-.47-.55.01-.12.31-.94.93-2.44,1.18-2.86,2.46-6.4,3.52-9.6.49-1.44.76-2.28.8-2.45.13-.48.37-.63.8-.58l2.07.23c.38.04.61.22.65.75,0,.15.07,1,.25,2.57.28,3.17.82,6.99,1.32,10.19.25,1.62.38,2.46.38,2.53-.03.25-.15.48-.48.44ZM109.54,6.88c-.01-.13-.03-.38-.1-.46-.08.07-.13.28-.17.43l-1.08,3.57c-.04.14-.03.25.17.27l1.2.13c.12.01.24-.07.23-.22l-.25-3.71Z"/><path class="cls-1" d="M124.83,19.71l-6.68-1.81c-.29-.08-.4-.34-.33-.63.04-.14.35-1.09.89-2.89.54-1.78.95-3.21,1.28-4.33.3-1.12.65-2.57,1.08-4.38.44-1.81.65-2.78.69-2.92.08-.31.31-.48.6-.4l2.57.7c.29.08.38.33.29.64-.04.14-.32,1.09-.86,2.87-.53,1.78-.97,3.2-1.28,4.33-.25,1.04-.37,1.36-.55,2.13-.14.6-.31,1.25-.48,1.95-.11.48.04.73.6.88l2.69.73c.44.12.56.36.46.69l-.46,2.18c-.05.27-.29.31-.53.24Z"/><path class="cls-1" d="M136.05,24.23l-6.34-2.75c-.28-.12-.35-.39-.23-.67.06-.14.5-1.03,1.29-2.73.79-1.68,1.4-3.04,1.89-4.1.46-1.07,1.01-2.45,1.7-4.17.69-1.72,1.04-2.65,1.1-2.79.13-.3.38-.43.66-.31l2.45,1.06c.28.12.33.38.2.68-.06.14-.48,1.04-1.26,2.72-.79,1.68-1.42,3.03-1.89,4.09-.4.99-.56,1.3-.85,2.03-.22.58-.49,1.19-.75,1.86-.17.46-.07.73.46.96l2.56,1.11c.42.18.5.43.36.75l-.77,2.09c-.09.26-.33.26-.56.16Z"/><path class="cls-1" d="M151.82,33.17c-1.06.17-2.09-.13-3-.8-.87-.64-1.41-1.23-1.79-1.81-.33-.52-.55-.9-.7-1.25-.07-.21-.12-.43-.02-.57.09-.12.2-.22.33-.28.56-.33,1.27-.79,1.84-1.26.14-.11.26-.14.4-.04.06.04.11.14.15.3.08.4.22.84.51,1.3.19.33.44.63.76.87.53.39,1.15.39,1.8-.49.18-.24.29-.52.34-.89.11-.69-.05-1.33-.24-2.34-.32-1.59-.47-2.5-.24-3.82.13-.73.35-1.31.85-1.99.68-.92,1.66-1.61,2.79-1.79,1.17-.18,2.14.07,3.07.76.67.49,1.17.99,1.53,1.56.4.64.62,1.07.71,1.42.06.13.04.37-.03.47-.06.08-.17.15-.27.2-.51.27-1.46.8-1.94,1.06-.06.04-.15.08-.25,0-.06-.04-.15-.14-.19-.29-.07-.24-.17-.49-.36-.82-.16-.33-.38-.62-.67-.87-.51-.37-1.2-.36-1.77.41-.18.24-.3.49-.37.84-.11.57-.03,1.27.17,2.1.4,1.74.47,3.12.28,4.15-.14.79-.34,1.35-.78,1.95-.84,1.13-1.83,1.76-2.89,1.93Z"/><path class="cls-1" d="M171.68,32.93c-.47.37-.75.58-.91.7-.32.24-.55.12-.8-.13l-.96-.96c-.32-.32-.44-.27-.69-.06-.46.42-2.42,2.35-3.24,3.17s-1.84,1.91-3.11,3.26c-1.29,1.37-1.98,2.09-2.08,2.19-.21.21-.49.24-.69.05l-1.89-1.88c-.2-.2-.16-.48.05-.69.11-.11.82-.79,2.19-2.08,1.35-1.28,2.43-2.29,3.26-3.12s2.75-2.79,3.17-3.24c.21-.25.26-.37-.06-.69l-.96-.96c-.25-.25-.37-.48-.13-.79.12-.16.35-.42.7-.91.35-.49.58-.75.68-.9.14-.14.28-.21.51.02l5.84,5.83c.23.23.16.37.02.51-.14.1-.4.33-.89.68Z"/><path class="cls-1" d="M169.1,53.29l-1.53-2.06c-.14-.18-.23-.39-.04-.6l1.32-1.46c.15-.17.2-.4,0-.66l-1.29-1.74c-.14-.18-.37-.32-.63-.19l-1.74.86c-.21.09-.41.03-.58-.2l-1.38-1.86c-.15-.2-.22-.5.08-.72.1-.07.9-.42,2.42-.99,2.9-1.09,6.36-2.58,9.42-3.98,1.39-.63,2.19-1,2.34-1.09.44-.24.72-.16.97.18l1.25,1.67c.23.3.26.59-.1.98-.1.11-.69.73-1.71,1.93-2.13,2.37-4.56,5.37-6.55,7.92-1.02,1.29-1.54,1.96-1.6,2-.2.15-.46.22-.65-.05ZM173.79,43.71c.08-.09.25-.28.27-.39-.1-.02-.3.1-.43.17l-3.35,1.65c-.13.07-.2.15-.08.31l.72.97c.08.1.21.12.32.01l2.55-2.71Z"/><path class="cls-1" d="M175.62,65.37l-1.19-2.33c-.13-.25-.15-.52.17-.76.43-.36,1.08-.89,2.09-1.63,1.25-.92,1.9-1.5,2.17-1.81.39-.48.46-.91.2-1.4l-.18-.36c-1.07.57-2.56,1.36-3.63,1.99-1.07.57-1.64.92-1.75.98-.24.12-.53.1-.68-.19l-1.22-2.4c-.14-.27-.02-.53.25-.66.13-.07,1.04-.47,2.74-1.28,1.68-.8,3.02-1.45,4.06-1.95,1.04-.53,2.34-1.25,3.97-2.13,1.63-.89,2.49-1.38,2.63-1.45.29-.15.57-.09.7.18l2.06,4.06c.52,1.03.67,2.08.32,3.08-.33.99-1.08,1.76-2.29,2.38-2.08,1.06-3.54.53-4.35-.02-.29,1.08-.93,1.72-5.29,5.66-.07.09-.23.26-.32.3-.13.07-.29.09-.46-.25ZM185.04,55.19c-.4-.79-.72-.93-1.27-.65l-1.74.89c-.33.17-.5.34-.18.96.46.9,1.07,1.18,2.24.58.99-.51,1.35-1,.96-1.78Z"/><path class="cls-1" d="M180.21,75.82c-.96-.49-1.62-1.33-1.96-2.41-.33-1.03-.42-1.82-.38-2.52.04-.62.08-1.05.17-1.43.06-.21.15-.42.32-.47.14-.04.29-.07.43-.03.64.06,1.49.11,2.23.06.18,0,.3.04.35.21.02.07,0,.18-.05.33-.17.37-.31.81-.35,1.35-.04.38-.02.77.11,1.15.2.62.7.99,1.74.66.28-.09.54-.25.8-.52.49-.5.74-1.11,1.17-2.04.67-1.48,1.09-2.3,2.04-3.23.54-.51,1.05-.86,1.85-1.12,1.09-.34,2.29-.33,3.31.19,1.05.54,1.69,1.31,2.04,2.41.25.79.37,1.49.32,2.17-.05.75-.13,1.23-.26,1.56-.03.14-.18.32-.3.36-.09.03-.23.02-.34,0-.57-.08-1.65-.21-2.19-.28-.08,0-.16-.03-.2-.15-.02-.07-.04-.2.02-.35.08-.24.15-.5.19-.88.07-.36.05-.73-.04-1.1-.19-.6-.76-1-1.68-.71-.28.09-.53.22-.79.46-.42.4-.77,1.01-1.09,1.8-.7,1.65-1.45,2.81-2.21,3.52-.58.55-1.07.89-1.78,1.12-1.35.43-2.51.35-3.47-.14Z"/><polygon class="cls-1" points="164.83 95.32 144.44 95.32 140.39 107.13 160.78 107.13 164.83 95.32"/><polygon class="cls-1" points="185.81 85.37 171.17 128.28 150.02 128.28 145.96 140.09 179.76 140.09 198.55 85.37 185.81 85.37"/><polygon class="cls-1" points="147.48 91.43 151.94 78.43 144.27 78.43 139.84 91.43 147.48 91.43"/><polygon class="cls-1" points="134.42 78.43 129.99 91.43 137.63 91.43 142.09 78.43 134.42 78.43"/><polygon class="cls-1" points="61 107.13 65.05 95.32 54.18 95.32 57.59 85.37 44.86 85.37 41.46 95.32 28.67 95.32 32.09 85.37 19.35 85.37 15.93 95.32 4.13 95.32 0 107.36 11.81 107.32 6.94 121.51 19.67 121.51 24.56 107.27 37.4 107.22 26.18 140.09 38.8 140.09 50.11 107.17 61 107.13"/><polygon class="cls-1" points="131.26 107.13 135.31 95.32 124.44 95.32 127.86 85.37 115.12 85.37 111.72 95.32 98.93 95.32 102.35 85.37 89.61 85.37 86.19 95.32 74.39 95.32 70.26 107.36 82.07 107.32 77.2 121.51 89.93 121.51 94.83 107.27 107.66 107.22 96.44 140.09 109.06 140.09 120.37 107.17 131.26 107.13"/><polygon class="cls-1" points="54.38 158.11 32.81 158.11 32.81 158.11 30.98 163.6 52.55 163.6 54.38 158.11"/><polygon class="cls-1" points="170.23 158.11 148.67 158.11 148.67 158.11 146.84 163.6 168.41 163.6 170.23 158.11"/><polygon class="cls-1" points="35.13 156.15 36.99 150.67 32.74 150.67 34.31 146.11 28.58 146.11 27.01 150.67 6.73 150.67 4.85 156.15 15.76 156.15 0 174.84 6.97 174.84 22.62 156.15 25.13 156.15 20.59 169.36 18.45 169.36 16.56 174.84 18.71 174.84 23.75 174.84 24.44 174.84 30.86 156.15 35.13 156.15"/><polygon class="cls-1" points="61.06 146.04 51.17 174.84 56.91 174.81 66.79 146.04 61.06 146.04"/><polygon class="cls-1" points="76.86 164.05 75.04 169.36 67.43 169.36 75.45 146.04 69.68 146.04 59.82 174.81 78.88 174.84 82.59 164.05 76.86 164.05"/><polygon class="cls-1" points="115.45 153.2 122.21 147.72 90.15 147.69 88.25 153.2 107.1 153.2 99.17 159.64 97.97 160.61 97.97 160.61 80.49 174.81 88.82 174.83 100.55 165.3 105.8 174.84 112.74 174.81 105.33 161.42 115.45 153.2"/><polygon class="cls-1" points="151.92 147.69 124.01 147.69 114.08 163.83 120.41 163.83 126.98 153.14 142.21 153.14 137.65 160.44 127.49 160.44 125.61 165.92 134.22 165.92 128.66 174.81 134.96 174.81 140.52 165.92 144.01 165.92 145.9 160.44 143.95 160.44 151.92 147.69"/><polygon class="cls-1" points="198.3 147.72 193.94 147.71 195.81 142.26 191.76 142.26 189.89 147.71 188.42 147.71 190.29 142.26 186.24 142.26 184.38 147.7 166.24 147.69 164.34 153.2 183.19 153.2 178.84 156.73 178.84 156.73 174.07 160.61 174.07 160.61 156.59 174.81 164.91 174.83 176.65 165.3 181.9 174.84 188.83 174.81 181.43 161.42 191.55 153.2 198.3 147.72"/></g></svg>