<svg xmlns="http://www.w3.org/2000/svg" width="388.60549" height="166.0732" viewBox="0 0 388.60549 166.0732"><defs><style>.cls-1{fill:#e72410;}.cls-2{fill:#59c3e1;}.cls-3{fill:#fff;}</style></defs><g id="レイヤー_2" data-name="レイヤー 2"><g id="Layout"><path class="cls-1" d="M219.82229,165.4736s12.626-3.2783,12.626-19.0576h-8.2276C224.22069,155.7187,223.27439,159.5332,219.82229,165.4736Z"/><path class="cls-1" d="M249.50689,137.4551c-8.5997-1.0205-13.919-1.0401-24.03129-1.0401,0,0,14.33109,5.9727,24.03129,10.8067Z"/><path class="cls-1" d="M253.53029,149.0586a83.46508,83.46508,0,0,0-10.126-2.2686,115.67628,115.67628,0,0,1,8.5557,10.0371,25.3293,25.3293,0,0,1-3.9785.4141H242.0166V145.124h-8.97071v14.3828c-.0918,4.8516,1.5752,6.4746,6.5225,6.5664h8.0918c3.789-.0488,5.4101-.416,6.8447-1.6191v-9.1094l-.9746.7871Z"/><path class="cls-1" d="M239.84769,123.9521H228.9756v2.8653H214.003v21.7343c0,10.8184-4.7442,15.961-6.9083,17.0997,3.3848,0,16.1905-1.0489,16.1905-17.0997V135.0478h31.2197v-8.2304h-14.6572Z"/><path class="cls-1" d="M294.91509,127.5849V120.833a104.33585,104.33585,0,0,1-25.18949,4.1992C275.20309,128.9502,291.07809,128.4004,294.91509,127.5849Z"/><path class="cls-1" d="M268.66019,138.7451v-4.1973h2.4531v-7.4394h-2.4531v-4.9883h-7.6768v4.9883h-2.4951v7.4394h2.65331v5.2666c-.85151.0508-1.74021.0811-2.65331.0772v7.7031a15.10977,15.10977,0,0,0,2.65331-.2275v4.1758a5.7208,5.7208,0,0,1-2.65331-.5518s1.0098,7.7598,10.1719,7.7598V142.8974a13.80586,13.80586,0,0,0,2.4951-4.8144S270.22849,138.3857,268.66019,138.7451Z"/><path class="cls-1" d="M295.35349,128.917h-7.1914l-1.2441,2.5703-1.2959-2.5703H279.3946a13.47447,13.47447,0,0,0,2.64059,2.7344h-2.3613l-1.32229-2.7344h-6.27541a9.51869,9.51869,0,0,0,3.1572,2.7344h-3.3535v5.0781h3.6143v.8691h-3.6143v5.0391h3.1543c-.8037,5.124-5.7148,16.1133-5.7148,16.1133a19.37023,19.37023,0,0,0,10.4238-7.6944,15.23623,15.23623,0,0,0,1.7568,2.0537,56.65711,56.65711,0,0,1-9.9502,5.6407c3.54981,0,9.3252.291,14.6797-2.2696a19.49021,19.49021,0,0,0,9.124,2.0664V152.164a14.31513,14.31513,0,0,1-2.9267-.3066,10.32331,10.32331,0,0,0,2.8887-7.874v-.4375h-11.8184l.2373-.9082h11.5811v-5.0391h-10.6143l.083-.8691h10.543v-5.0781H292.8916S295.003,130.2431,295.35349,128.917Zm-7.92089,19.1797a8.21222,8.21222,0,0,1-1.56731,1.3906,16.06448,16.06448,0,0,1-2.1475-1.3906Z"/><path class="cls-1" d="M300.06839,163.1699h22.7109c9.7178,0,13.3975-4.876,13.3975-13.1445V127.2197h-36.1084Zm7.3594-29.7158h21.3476v23.2031h-21.3476Z"/><path class="cls-1" d="M325.5196,134.4443h-7.19731v2.4688h-9.8594v6.4297h9.8594v6.7285c-2.3496-5.0449-8.3926-6.1016-8.3926-6.1016a18.10687,18.10687,0,0,1,1.92291,7.6387h3.497v4.0088l5.15139-.003c3.2012,0,5.01861-2.0234,5.01861-5.1709v-7.1005h2.22459v-6.4297H325.5196Z"/><rect class="cls-1" x="189.36819" y="84.9756" width="28.1133" height="9.1679"/><rect class="cls-1" x="325.52149" y="84.7959" width="23.7656" height="9.1631"/><path class="cls-1" d="M132.0196,63.0889c6.6357,15.1357-1.4082,23.7363-12.8965,23.7363H106.0987v9.539h16.9687C141.166,96.3642,147.16209,73.6045,132.0196,63.0889Z"/><path class="cls-1" d="M124.7305,78.3389V66.7471a28.01464,28.01464,0,0,0-18.2979-1.003,53.12173,53.12173,0,0,1,9.9092,5.8252C120.2256,74.4287,124.7305,78.3389,124.7305,78.3389Z"/><path class="cls-1" d="M298.57619,100.4658h12.7432c-2.9493,6.917-10.3907,10.1152-16.9825,11.7305,14.3164,2.7109,27.8868-3.2491,27.8868-17.4268V78.8428h-28.9346v6.749c0,4.9287-.9082,9.6826-6.68949,13.0078,4.97849,0,9.167-.96,11.97659-3.5498Zm3.6113-13.4219h10.4414v5.4649h-12.0468A14.233,14.233,0,0,0,302.18749,87.0439Z"/><path class="cls-1" d="M276.72069,107.918l4.0391,8.6748h11.8476c-4.71479-5.5303-9.6123-11.4004-12.1044-14.3946a47.39541,47.39541,0,0,0,4.6191-19.583h-29.0107v8.8789h17.4384c-1.6455,13.0479-11.2441,21.7666-22.6816,24.6924C262.961,117.9326,271.29689,114.2871,276.72069,107.918Z"/><path class="cls-1" d="M376.49219,98.7959a43.47557,43.47557,0,0,0,4.1328-13.8594h-5.6738V79.2197h-22.8428v8.8789h17.4395c-1.6475,13.0488-11.2461,21.7676-22.6846,24.6944,12.0908,1.7431,20.4229-1.9024,25.8467-8.2784l4.042,8.6836h11.8535C383.88869,107.6631,378.98339,101.7939,376.49219,98.7959Z"/><rect class="cls-1" x="376.70899" y="77.0889" width="4.1572" height="6.3203"/><rect class="cls-1" x="381.9766" y="77.0889" width="4.15529" height="6.3203"/><path class="cls-1" d="M93.5733,61.4346h-5.251V72.6172h-8.145V63.9004H71.187v8.7168H65.2486v8.3584H71.187V88.289h8.9903V80.9756h8.145v4.7197c0,11.9092-11.0191,18.042-11.0191,18.042s20.6939-1.9102,20.6939-18.042V80.9756h4.832V72.6172H93.5733Z"/><rect class="cls-1" x="95.1026" y="64.7724" width="4.1587" height="6.3262"/><rect class="cls-1" x="100.3701" y="64.7724" width="4.1592" height="6.3262"/><path class="cls-1" d="M54.4346,56.499H39.1338V72.6172H25.7676V61.0303H11.626V72.6172H0V86.7764H11.626V99.1553H25.7676V86.7764H39.1338v5.8203c0,20.1728-18.6704,30.5586-18.6704,30.5586s33.9712-3.2325,33.9712-30.5586V86.7764H62.628V72.6172H54.4346Z"/><path class="cls-1" d="M198.81549,68.1855h-12.9698V55.2724h-14.4004V68.1855H143.3975V81.083h20.29589v.0264c0,14.3877-10.6914,26.0556-23.877,26.0556a22.73582,22.73582,0,0,1-16.2304-6.959,26.04778,26.04778,0,0,0,47.85929.6797v15.753h14.4004V81.083h12.9698Z"/><path class="cls-1" d="M230.17579,113.5674V84.9814h-9.2061v20.294a28.69634,28.69634,0,0,1-9.1162-1.1592S216.36329,113.5674,230.17579,113.5674Z"/><path class="cls-1" d="M251.07229,87.8408c.73831,8.8379-3.2266,14.9727-8.5928,14.9727V76.3525h-9.539v37.2149h5.8017C255.36229,113.5674,257.50689,94.8711,251.07229,87.8408Z"/><path class="cls-2" d="M227.87889,2.8457l.4825-1.9404L224.73639,0c-3.3829,13.5654-17.0997,68.6553-20.1915,81.0732h3.8506l8.0293-32.2822c38.8164,32.8945,92.1201-6.5625,130.1309,30.3867q5.7246-22.9746,11.456-45.9453C320.002-3.7246,266.70019,35.7402,227.87889,2.8457Z"/><path class="cls-3" d="M229.18849,25.2617c.0469-.0937.24611-.1279.4277-.0586a2.58244,2.58244,0,0,1,.6192.3652c.2285.1709.4853.3789.7656.6192a8.26794,8.26794,0,0,0,.875.7119.85241.85241,0,0,0,.3662.1182.861.861,0,0,0,.3233-.0293,1.35371,1.35371,0,0,0,.3056-.1231,2.48537,2.48537,0,0,1,.3106-.1543c.0097-.0019.0234-.0156.041-.0371a.391.391,0,0,0,.0293-.0469c.0478-.3007.0693-.4502.1191-.75-.0156-.0175-.06349-.0918-.14549-.2197-.07911-.1299-.14451-.2314-.18941-.3057a1.187,1.187,0,0,0-.087-.1289.875.875,0,0,0-.09659-.1015c-.292-.2305-.58111-.5918-.84771-.836a8.9373,8.9373,0,0,1-.7295-.7558,4.28136,4.28136,0,0,1-.5644-.8438,2.52292,2.52292,0,0,1-.335-1.0918c0-.0185.01461-.0605.0215-.1113a1.64387,1.64387,0,0,0,.0185-.1641c.0039-.0605.0079-.1132.0157-.1621.0048-.0478.0107-.0791.0136-.0957.0244-.1103.0381-.248.0577-.3867a.69657.69657,0,0,1,.13861-.332c.01759-.0215.05079-.0713.09869-.1406.0507-.0665.1015-.1319.1611-.1973.0605-.0645.11721-.125.1709-.1817.0508-.0605.0849-.1064.1025-.1298.0069-.0244.00881-.0381.0147-.0625a.8544.8544,0,0,1,.1943-.0694.90972.90972,0,0,0,.1651-.039.85453.85453,0,0,1,.1289-.0352,3.57924,3.57924,0,0,1,1.0791-.1035,3.53216,3.53216,0,0,1,1.1884.3809,4.7932,4.7932,0,0,1,.52931.3457c.22559.1679.44829.3515.669.5429a4.76272,4.76272,0,0,1,.56349.5879.7021.7021,0,0,1,.1992.4854,1.17333,1.17333,0,0,1-.085.2832,1.71378,1.71378,0,0,1-.1816.3154.86087.86087,0,0,1-.2539.2324.3.3,0,0,1-.28519.0176,5.6554,5.6554,0,0,1-.73831-.4121c-.2402-.1563-.4951-.293-.7304-.4238-.0459-.0244-.1465-.0782-.295-.1485-.1494-.0664-.2558-.1318-.292-.1435-.0224-.0069-.083-.0088-.1494-.0274a1.20459,1.20459,0,0,0-.2011-.0312.86083.86083,0,0,0-.17779.0039c-.05271.0068-.08011.0273-.08881.0586-.043.3076-.0645.4619-.1094.7724-.0127.0391.0078.0967.0605.1709.0518.0743.1084.1495.169.2276a2.88776,2.88776,0,0,0,.1933.2285c.06741.0723.1182.1221.1416.1465.336.3457.6426.7168.918,1.0332a5.80173,5.80173,0,0,1,.6865.9277,3.31576,3.31576,0,0,1,.3858.9551A3.04525,3.04525,0,0,1,234.89749,27a2.402,2.402,0,0,1-.3233.9472,1.79235,1.79235,0,0,1-.6601.6348,1.86435,1.86435,0,0,1-.9297.2168A2.63483,2.63483,0,0,1,231.8496,28.5a6.88466,6.88466,0,0,1-1.01361-.5957,5.174,5.174,0,0,1-.8955-.7735,3.30748,3.30748,0,0,1-.6055-.8964A1.44214,1.44214,0,0,1,229.18849,25.2617Z"/><path class="cls-3" d="M236.18169,28.7109c.00191-.0332.00191-.0849.0097-.1445l.0293-.1758c.0088-.0605.0176-.1113.0205-.1582.0078-.0488.0157-.0781.0186-.0947.0332-.1533.0693-.3643.1221-.6143.05071-.2539.1025-.5019.1543-.749.0488-.248.0947-.4688.1308-.6572.0371-.1924.0567-.3008.0645-.3223.0605-.2441.1338-.5098.2177-.7871a7.44094,7.44094,0,0,1,.3135-.8291,3.50477,3.50477,0,0,1,.4522-.749,2.10042,2.10042,0,0,1,.6269-.5391,1.79764,1.79764,0,0,1,.834-.2207,3.07477,3.07477,0,0,1,1.1025.2051c.1192.0498.1768.0742.292.123a7.66056,7.66056,0,0,1,.7559.4698,3.659,3.659,0,0,1,.6211.5478,2.71359,2.71359,0,0,1,.4346.6172,1.81369,1.81369,0,0,1,.2011.707c.001.0352-.0068.1201-.0205.251-.0176.1318-.0303.2178-.039.2568-.0176.0664-.0391.1621-.0664.2891s-.042.1992-.043.2129c-.02349.082-.06349.2598-.126.5332-.06349.2725-.1279.5713-.1992.8945q-.1026.48345-.2119.9414c-.0713.3047-.1231.5323-.1592.6797-.0508.2012-.1045.4346-.165.6992-.0625.2637-.1436.5313-.2364.8067a5.60974,5.60974,0,0,1-.34079.792,2.028,2.028,0,0,1-.50291.625,1.60686,1.60686,0,0,1-.711.3291,1.89612,1.89612,0,0,1-.95409-.1133,4.507,4.507,0,0,1-.875-.4102c-.26461-.164-.53411-.3574-.80271-.5586a2.41723,2.41723,0,0,1-.626-.6601,2.60183,2.60183,0,0,1-.3086-.7383,3.00387,3.00387,0,0,1-.0849-.7559C236.11429,29.1601,236.166,28.9043,236.18169,28.7109Zm1.9472.7842a1.10429,1.10429,0,0,0,.0674.5361.712.712,0,0,0,.4619.3848.53847.53847,0,0,0,.3789.0293.50386.50386,0,0,0,.2344-.1885,1.14565,1.14565,0,0,0,.1387-.2959c.0322-.1123.0722-.2168.0986-.3086.0049-.0156.0127-.0478.0264-.1025.0137-.0518.0293-.1084.0488-.167.01861-.0576.0352-.1123.0498-.167.0137-.0537.0176-.083.0205-.0889.11531-.3925.2471-.7763.333-1.122.083-.3418.1494-.7452.23731-1.1524.00779-.0439.02739-.1279.043-.2402.01659-.1162.03609-.2373.05959-.3643.02241-.1289.039-.25.0576-.3633.0176-.1113.043-.2001.0439-.2431a.90177.90177,0,0,0-.0615-.2451,2.60771,2.60771,0,0,0-.1113-.3145,1.63372,1.63372,0,0,0-.1719-.29.54371.54371,0,0,0-.2207-.1865.40629.40629,0,0,0-.2842.0078.67636.67636,0,0,0-.2353.1757,1.65224,1.65224,0,0,0-.1797.254c-.0488.0917-.0801.1855-.1113.2265a.41966.41966,0,0,0-.0586.1094c-.0254.0615-.0557.1308-.0909.2041-.0341.0742-.0673.1445-.1015.21a.93818.93818,0,0,0-.0547.124l-.041.1709c-.02349.0976-.0537.207-.083.3281-.0342.1221-.06249.2393-.0977.3545-.0322.1162-.0596.2041-.0742.2705-.0088.0371-.0147.0586-.0234.0957a.09306.09306,0,0,0,0,.041.09561.09561,0,0,1-.003.0391.24567.24567,0,0,0-.0136.0488c-.0118.0859-.0264.2344-.0518.4483-.0293.2099-.0566.4355-.084.6718-.0244.2334-.0517.458-.083.668C238.16119,29.2656,238.1416,29.414,238.12889,29.4951Z"/><path class="cls-3" d="M247.04489,34.8623a.28538.28538,0,0,1-.1728-.1826.93628.93628,0,0,1-.0498-.2559c-.0029-.0898-.0078-.166-.0078-.2285,0-.0654-.0225-.1045-.0596-.1123a.61736.61736,0,0,0-.2627.0508c-.1133.042-.2373.0888-.3779.1357a3.26756,3.26756,0,0,1-.4678.127,1.2834,1.2834,0,0,1-.5-.003,2.804,2.804,0,0,1-.5898-.1884,2.06963,2.06963,0,0,1-.4912-.3243,2.70981,2.70981,0,0,1-.6915-.8847,3.36093,3.36093,0,0,1-.27439-.9697,4.48524,4.48524,0,0,1-.00881-.9971c.0381-.336.0694-.6621.1036-.9727a8.55565,8.55565,0,0,1,.3847-1.6992q.2769-.81735.56551-1.6562a.65623.65623,0,0,0,.02829-.1006,1.06463,1.06463,0,0,1,.0644-.1905,1.53955,1.53955,0,0,0,.0616-.1904c.0156-.0596.0214-.0986.0263-.1142.0362-.1221.0762-.2393.1026-.335a.48393.48393,0,0,1,.1191-.2295.44166.44166,0,0,1,.249-.1123,1.58872,1.58872,0,0,1,.4678.0264.94189.94189,0,0,1,.2148.0722c.0928.044.1875.0938.2862.1485.0986.0566.1894.1113.2793.1718.0869.0586.1601.1231.1621.1514,0,.0107-.0039.0479-.0039.0908a.48377.48377,0,0,1-.0078.0879,5.61762,5.61762,0,0,1-.1231.5625c-.0596.1904-.1299.3809-.208.5723-.0801.1894-.1553.3779-.2275.5664-.07519.1855-.1358.3711-.1944.541a6.14868,6.14868,0,0,0-.2509,1.0742c-.04589.3594-.086.7324-.12989,1.1074-.03131.2598-.05181.5157-.05761.7715a1.2256,1.2256,0,0,0,.30461.7559c.01659.0195.06059.0713.13869.1533.0772.0811.125.1436.1387.1533.0058.0059.0273.0117.0508.0274a.26569.26569,0,0,0,.04881.0283.2232.2232,0,0,1,.03219.0049l.0147.0058c.0215-.0029.0654-.0078.1318-.0156a.25629.25629,0,0,0,.1455-.0644,4.662,4.662,0,0,0,.67581-.8711,5.76529,5.76529,0,0,0,.40919-.9239,9.4388,9.4388,0,0,0,.2666-.9726c.0713-.333.15721-.6758.2568-1.0322.002-.0079.0098-.0323.0186-.0791.0146-.043.0254-.0918.0449-.1446.0185-.0478.0351-.0976.0537-.1445.0146-.0469.0283-.082.03421-.1074.00189-.0078.01659-.0401.041-.0957.02249-.0528.04979-.1133.07709-.1778.0254-.0664.0518-.125.0733-.1748a.58991.58991,0,0,0,.043-.1006,3.52959,3.52959,0,0,0,.1132-.5644,1.08783,1.08783,0,0,1,.1133-.4121.44878.44878,0,0,1,.3106-.211,2.451,2.451,0,0,1,.7343.0274c.0606.0078.1455.0195.2491.0351a2.47449,2.47449,0,0,1,.2998.0616,1.209,1.209,0,0,1,.2627.1123c.0781.0468.1523.1289.1523.1914.001.0332-.0186.1152-.0234.2168-.0049.1084-.003.1836-.0049.2138a4.00152,4.00152,0,0,1-.2578,1.1455c-.1309.3653-.2491.7471-.3701,1.1241a1.80313,1.80313,0,0,0-.0782.3808,2.18331,2.18331,0,0,1-.1152.3975c-.08109.2969-.0674.7695-.1328,1.1435-.0664.3741-.1406.7471-.2237,1.1221-.08.375-.165.7481-.248,1.1231a10.44913,10.44913,0,0,1-.2168,1.1289.86792.86792,0,0,1-.124.1797.22.22,0,0,1-.211.0664,3.99265,3.99265,0,0,1-.5771-.1153C247.49029,34.9199,247.24419,34.9131,247.04489,34.8623Z"/><path class="cls-3" d="M251.70219,35.6484a1.82448,1.82448,0,0,0,.042-.2041,1.37844,1.37844,0,0,1,.0273-.2021,4.83821,4.83821,0,0,1,.1865-.7207,4,4,0,0,1,.2832-.7188.09035.09035,0,0,0,.0186-.0654.31075.31075,0,0,1-.0039-.0586,3.5076,3.5076,0,0,1,.2021-.585,4.28186,4.28186,0,0,0,.2178-.5859,8.305,8.305,0,0,0,.2647-1.1182,10.88147,10.88147,0,0,1,.246-1.1123c.0088-.0312.0215-.0791.042-.1426.0215-.0654.043-.1289.0645-.1923.0234-.0625.043-.1211.05761-.1729.01859-.0527.03129-.0859.03519-.1015.0039-.0166.0185-.0518.041-.1094.0254-.0528.04881-.1094.0752-.168.0254-.0586.0517-.1152.0752-.166s.0351-.082.042-.0977c.0019-.0156.0048-.0234.0078-.039a.13161.13161,0,0,0-.0469-.1407.35379.35379,0,0,0-.1396-.0781c-.2754-.0625-.6094-.0879-.8897-.1494-.2803-.0635-.6221-.0869-.8877-.1592a.45575.45575,0,0,1-.21-.1289c-.0058-.0176.02351-.1172.0411-.2285.0156-.1123.0195-.1865.02241-.2187.001-.0704.01659-.1895.03129-.3497a4.01732,4.01732,0,0,1,.0683-.4755,1.399,1.399,0,0,1,.1612-.4151.31892.31892,0,0,1,.3134-.1621c.0274.0059.0381.0069.0635.0137,2.044.4043,3.0772.5703,5.1572.8418a.22421.22421,0,0,1,.1592.0752.36842.36842,0,0,1,.0703.1396.5012.5012,0,0,1,.0157.1582.52606.52606,0,0,1-.0157.1289c-.0009.0078-.0048.0381-.0136.0928-.0069.0508-.0147.1143-.0215.1826-.0078.0723-.0137.1436-.0205.2129a1.42308,1.42308,0,0,1-.0283.1748c-.0069.0264-.0118.0674-.02249.125-.00981.0557-.02051.1201-.03321.1905-.01079.0664-.0215.1328-.0313.1953-.0107.0605-.0214.1054-.0254.1289a.2233.2233,0,0,1-.07809.1152.20954.20954,0,0,1-.14161.0606,5.11585,5.11585,0,0,1-.7929-.0508,7.04835,7.04835,0,0,0-.794-.0655.787.787,0,0,1-.1367-.0146.22192.22192,0,0,0-.1572.0371.39773.39773,0,0,0-.1661.1855,1.20077,1.20077,0,0,0-.0849.2481,1.73121,1.73121,0,0,0-.0508.2578,1.31027,1.31027,0,0,1-.0391.2246c-.2461.8809-.5293,1.8067-.75869,2.7168-.22861.9082-.31741,1.9014-.45411,2.7324a.83535.83535,0,0,1-.1006.2344.2417.2417,0,0,1-.2491.1299l-.0156-.0029c-.0195-.002-.05859-.0118-.1221-.0235-.05949-.0136-.1298-.0293-.205-.0488a2.02316,2.02316,0,0,0-.2061-.0439c-.0635-.0108-.1006-.0147-.10839-.0166a1.84641,1.84641,0,0,0-.24221-.0391c-.1015-.0068-.2002-.0176-.29679-.0332a1.37064,1.37064,0,0,1-.27451-.0684C251.78419,35.7471,251.70219,35.6797,251.70219,35.6484Z"/><path class="cls-3" d="M260.78319,36.9502c-.0029-.0147.0117-.0713.0196-.1397.00581-.0703.0087-.1435.0136-.2226.0039-.0782.0098-.1524.0147-.2207a1.27155,1.27155,0,0,1,.01951-.1407c.03909-.2187.06639-.4746.12109-.7089.0537-.2344.1123-.4688.1777-.709.0645-.2373.126-.4776.1827-.711a4.74306,4.74306,0,0,0,.1289-.706c.0068-.0654.0107-.1416.01461-.2246.00879-.0869-.05081-.1338-.17671-.1416a1.84129,1.84129,0,0,0-.2598,0c-.1172.0058-.251.0097-.3887.0097-.1416.0039-.2764.0039-.3994.0098-.124.002-.2305-.0098-.2656-.0019a.31975.31975,0,0,1-.0674.0107.74915.74915,0,0,1-.0811,0,.33412.33412,0,0,0-.27829.1689,1.70646,1.70646,0,0,0-.15431.3731,1.997,1.997,0,0,0-.0791.414,2.79156,2.79156,0,0,1-.043.2979c-.0458.2002-.0781.3936-.1064.5635-.03419.1709-.0557.3418-.07319.5117-.01571.1748-.03231.3516-.05081.5322s-.03319.376-.044.5899c-.1025.1816-.1543.2705-.2588.4492-.6621-.0752-.9921-.1182-1.6533-.208-.042-.0049-.0713-.0401-.0898-.0957a.23609.23609,0,0,1-.0205-.1026c.041-.2685.2246-.6513.28121-.9746a8.0321,8.0321,0,0,1,.22169-.9775c.1279-.4502.2734-.9004.4307-1.3438.1533-.4463.29-.8945.4121-1.3359.0859-.3135.1699-.627.2422-.9336.06931-.3086.1347-.625.206-.9287.0029-.0225.0127-.0811.0274-.1738.0117-.0967.0302-.1944.0498-.295.0195-.1015.03511-.1982.0478-.2939.0147-.0947.0215-.1523.02831-.1758.01569-.0664.03809-.1777.06639-.3379a4.5487,4.5487,0,0,1,.1231-.4863,1.76775,1.76775,0,0,1,.2002-.4375.35464.35464,0,0,1,.2988-.2012c.0186,0,.043.002.06251.0039a.135.135,0,0,0,.04979-.0058.13817.13817,0,0,1,.0645.0234c.0351.0137.0703.0313.1103.0479.042.0156.0791.0322.1172.0468a.26315.26315,0,0,0,.07521.0264,2.8612,2.8612,0,0,0,.30179.0518,2.20941,2.20941,0,0,1,.3398.0576.8784.8784,0,0,1,.2695.123c.0723.0518.0704.1699.087.2227a.1027.1027,0,0,1,.00291.0625c-.10941.376-.26171.7637-.38971,1.1406a6.55924,6.55924,0,0,0-.23529,1.1621c-.00291.0215-.01171.0703-.01761.1348-.0049.0683-.0117.1367-.0195.2109-.00589.0723-.0137.1416-.0205.2071-.0059.0664-.0215.1269-.0166.1347.0166.043.2324.082.3847.0752.1534-.0107.2969-.0185.4287-.0273a.4088.4088,0,0,0,.25981-.0869.35832.35832,0,0,0,.11329-.1836,1.40019,1.40019,0,0,0,.0342-.2383,1.244,1.244,0,0,1,.0371-.2403c.0547-.2177.1191-.4384.1963-.664a5.362,5.362,0,0,0,.1826-.666c0-.0078.0078-.0469.01951-.1153.01079-.0683.02739-.1533.044-.2461a2.86316,2.86316,0,0,0,.04679-.2851c.0147-.0996.03421-.1807.045-.2315a.26709.26709,0,0,1,.1308-.2021.6863.6863,0,0,1,.292-.0801,3.68433,3.68433,0,0,1,.4756-.001,5.938,5.938,0,0,1,.668.0655,2.94039,2.94039,0,0,1,.58981.1543c.168.0664.252.1523.24319.2568a4.796,4.796,0,0,1-.24419,1.1797c-.12891.3857-.26751.7822-.373,1.165-.00491.0156-.00881.0576-.02051.127a.40324.40324,0,0,0-.0098.1289c-.2851,1.4629-.42969,2.1914-.7178,3.6504-.0156.0234-.038.0635-.0683.1181-.0293.0577-.06059.1202-.0879.1885-.0264.0684-.0508.1328-.0713.1924-.0195.0615-.0332.1045-.0391.1279a1.99588,1.99588,0,0,0-.081.3946,4.5769,4.5769,0,0,1-.1026.5312,1.741,1.741,0,0,1-.1923.4785.45573.45573,0,0,1-.3555.2324c-.0752.0079-.1875.0079-.335.0079-.1435.0009-.29389-.003-.4492-.0108a2.7107,2.7107,0,0,1-.4209-.0498C260.89549,37.0254,260.791,36.9785,260.78319,36.9502Z"/><path class="cls-3" d="M265.02739,36.8574a.53533.53533,0,0,1-.1094-.082.10424.10424,0,0,1-.0371-.1045,6.05716,6.05716,0,0,1,.2988-1.1787,8.59492,8.59492,0,0,0,.3828-1.1768c.12111-.4844.2256-.9717.3096-1.4619.0859-.4902.168-.9824.2441-1.4727.0811-.4921.168-.9804.2637-1.4648.09471-.4863.2246-.9785.3506-1.4492a.42389.42389,0,0,1,.0957-.1563.27794.27794,0,0,1,.1943-.0898,1.97494,1.97494,0,0,1,.37311.0195,2.22584,2.22584,0,0,0,.35449.0205c.0439-.0029.125,0,.247,0,.1172-.0029.2403-.0068.377-.0068.1348-.002.2617-.0039.3809-.0078.1181-.002.1992-.0039.2441-.0039a.86861.86861,0,0,0,.1309-.0078c.0771-.0079.1572-.0157.246-.0235.0879-.0058.168-.0156.2403-.0234.07031-.0078.1191-.0117.1396-.0117.0655,0,.169,0,.3184-.0098.1484-.0059.291-.0059.4355.002a2.50979,2.50979,0,0,1,.3799.0468c.1143.0254.168.0733.1582.1475-.0556.4072-.0849.6094-.1406,1.0205-.0059.0625-.05569.1172-.1543.1621a.79877.79877,0,0,1-.2617.0801,2.73244,2.73244,0,0,1-.63869-.0195,3.84186,3.84186,0,0,0-.65531-.0206c-.05269.001-.1279,0-.2129.003a1.94273,1.94273,0,0,0-.2724.0293,1.04,1.04,0,0,0-.252.0683.21407.21407,0,0,0-.1328.1465,7.37875,7.37875,0,0,1-.25,1.0069,6.84616,6.84616,0,0,0-.2383,1.0195,1.44984,1.44984,0,0,0-.0234.1592.17236.17236,0,0,0,.0586.1582.39279.39279,0,0,0,.18651.0566,2.206,2.206,0,0,0,.27439.0225c.0977,0,.1895,0,.2793-.0039.086-.0039.1494-.0079.1934-.0079.042,0,.125-.0029.2441-.0107.1211-.0059.2432-.0156.376-.0273.13181-.0118.25881-.0215.38181-.0313.11529-.0078.20119-.0137.24319-.0137a.07585.07585,0,0,1,.0713.045.10215.10215,0,0,1,.0137.0664c-.03319.3164-.0479.4756-.083.79a.34552.34552,0,0,1-.127.2178.42215.42215,0,0,1-.248.123,3.3558,3.3558,0,0,1-.7081-.0068,3.32382,3.32382,0,0,0-.7197-.0225.846.846,0,0,0-.3467.0889.47091.47091,0,0,0-.1699.1631.78327.78327,0,0,0-.0849.2168c-.0215.082-.0411.166-.0616.2558-.0078.0245-.02929.0821-.0625.1748-.0322.0948-.0713.1924-.1142.2998-.041.1045-.0791.2012-.1113.2891-.0342.0879-.0772.166-.0772.169a.08082.08082,0,0,1,0,.0752.13685.13685,0,0,0-.0088.0976c.0049.0293-.0166.1055-.0127.1738.0049.0684.0557.1065.15141.1065.07709.001.20019.001.37689.0029.1778,0,.3662.002.5655.002.1972.0019.38861.0029.5654.0029s.2959-.001.3623-.001a2.4964,2.4964,0,0,1,.457.0332.26558.26558,0,0,1,.2266.2676.52947.52947,0,0,0-.0039.1133c0,.0605,0,.1308-.0039.207-.00289.0791-.00689.1543-.0098.2305-.0019.0762-.0049.1347-.0049.1777-.0078.0283-.0117.041-.0185.0723a.18241.18241,0,0,1-.1621.1924c-.09959.0185-.2129.039-.334.0517a8.56406,8.56406,0,0,1-1.3604.0332c-.44819-.0234-.9511.0059-1.3408-.0537a1.28564,1.28564,0,0,0-.2441.0039c-.1299.0088-.208.0147-.2315.0147-.041,0-.1181-.003-.2314.0009-.1143.001-.23439.0069-.35939.0108-.123.0078-.23921.0098-.34861.0117A1.33692,1.33692,0,0,1,265.02739,36.8574Z"/><path class="cls-3" d="M275.96779,37.0469a2.70507,2.70507,0,0,1-.3438-.5577,5.33078,5.33078,0,0,0-.27339-.5244.514.514,0,0,0-.085-.1035.916.916,0,0,1-.121-.1328.63.63,0,0,1-.084-.1357c-.02351-.043.01459-.1084.01459-.128,0-.0644-.1904-.2685-.2783-.4101-.0869-.1416-.1758-.2793-.2588-.4141h-.0312c-.0127.001-.0215-.0068-.03229-.0098a.10585.10585,0,0,0-.13961.1006,4.37827,4.37827,0,0,1-.0733.4346c-.0429.209-.0859.4346-.1289.6738-.042.2364-.0849.4629-.1181.6778-.03909.2129-.0625.3613-.0713.4404.0019.0127.0049.0234.0078.0361a1.35605,1.35605,0,0,1-.1221.0957c-.0527.0362-.082.0518-.0918.043-.6728.0547-1.0078.082-1.6758.1269a.22184.22184,0,0,1-.2197-.0859.272.272,0,0,1-.0644-.1875.02153.02153,0,0,1,.0117-.0166.05445.05445,0,0,0,.0137-.0303.26067.26067,0,0,0,.0097-.0371c.002-.0078.0156-.0293.0352-.0664.0195-.0351.039-.0752.0595-.1172.0196-.039.0391-.0761.0596-.1093a.62885.62885,0,0,0,.0313-.0606.89563.89563,0,0,0,.0146-.1641c.00591-.082.0137-.1708.0293-.2636.0108-.0938.0215-.1826.0303-.2647.0107-.0791.0185-.1318.0234-.1552.0127-.0411.0362-.1397.0752-.2989.0391-.1562.0801-.3242.1172-.5049.04-.1748.0752-.3447.1104-.5009.0312-.1582.0556-.2559.0664-.2969.0088-.041.0205-.1152.0361-.2188.01561-.1054.0352-.2187.0527-.3408.0215-.1211.0352-.2334.0537-.3379a1.074,1.074,0,0,1,.0381-.2177.48687.48687,0,0,0,.043-.1114c.0137-.0556.0225-.0937.0254-.1103.1914-.6944.38871-1.3994.5381-2.0889.1504-.6875.2861-1.3945.4375-2.0742.0068-.0234.0136-.0703.0254-.1348.01071-.0634.0205-.1328.0263-.2041.0078-.0732.0186-.1435.02741-.2129.01559-.0673.02149-.1201.02929-.1396a.17775.17775,0,0,1,.1084-.085.75881.75881,0,0,1,.125-.0146c.4277-.0196.86131-.0567,1.2744-.0713a5.63437,5.63437,0,0,1,1.1387.0664,2.51072,2.51072,0,0,1,.8935.3135,1.38331,1.38331,0,0,1,.5615.666c.086.2041.1778.4043.2715.5957a1.07414,1.07414,0,0,1,.0801.6426,2.72779,2.72779,0,0,1-.6699,1.3652,7.91778,7.91778,0,0,1-1.4121,1.1777.22823.22823,0,0,0-.1006.1348.34585.34585,0,0,0,.0703.2041.186.186,0,0,1,.00391.2051c.16989.3857.252.582.41989.9707a.11634.11634,0,0,0-.0088.0351c.1866.3116.2832.4678.4688.7754a1.1864,1.1864,0,0,0,.0879.1963c.0615.1221.1318.2598.2109.4102a4.25458,4.25458,0,0,1,.209.4609.87046.87046,0,0,1,.0742.3535.43446.43446,0,0,1-.168.2461,2.18773,2.18773,0,0,1-.3593.2559,4.51592,4.51592,0,0,1-.4229.2031,1.40417,1.40417,0,0,1-.3652.0908C276.1416,37.1211,276.0196,37.1094,275.96779,37.0469Zm-1.291-5.6914c.00581.0263.0625.0703.0849.0888a.195.195,0,0,0,.126.0381,1.07271,1.07271,0,0,0,.5733-.1934,1.462,1.462,0,0,0,.3955-.3574,1.85379,1.85379,0,0,0,.24311-.4238,2.28149,2.28149,0,0,0,.126-.3799.96964.96964,0,0,0-.00781-.292,1.00355,1.00355,0,0,0-.0938-.3301.65841.65841,0,0,0-.2207-.2519.58128.58128,0,0,0-.3896-.0781.44491.44491,0,0,0-.28709.1386,1.01188,1.01188,0,0,0-.18951.2813,1.86325,1.86325,0,0,0-.1103.3105c-.0244.1016-.044.1719-.0547.2139-.001.0068-.0049.0381-.0117.085-.0069.0478-.0157.1054-.0244.1699-.0137.0635-.02639.1328-.0381.1972-.0088.0704-.0117.127-.0157.1641-.0039.0234-.0097.0664-.0205.125-.0107.0547-.0195.1172-.0312.1865-.0108.0674-.0205.1299-.0303.1866C274.69139,31.292,274.67479,31.3418,274.67679,31.3555Z"/><path class="cls-3" d="M281.6426,33.3574a.25407.25407,0,0,0,.00289-.166.17293.17293,0,0,0-.1787-.0879l-.0488.002c-.0156.0664-.0479.1757-.0928.3339s-.0918.3252-.14159.5039c-.05081.1788-.09961.3487-.14351.5118-.0459.163-.0743.2734-.0889.33-.0264.1006-.0391.1514-.0664.2539a3.72171,3.72171,0,0,0-.0518.4756,3.01673,3.01673,0,0,1-.0537.4756.46569.46569,0,0,1-.0869.1807.36377.36377,0,0,1-.2373.0781c-.2246.0186-.4521.04-.6533.042-.2071.0039-.4873.0762-.6758.0586-.0313-.0039-.0703-.0469-.0898-.0938a.81633.81633,0,0,1-.043-.0937c0-.0098.0068-.0615.0107-.1387a1.35015,1.35015,0,0,1,.01271-.1523c.04979-.2354.10159-.5.17969-.75.0791-.252.1748-.5108.2461-.7559.1133-.3926.1943-.8164.2744-1.2129a6.00569,6.00569,0,0,1,.4092-1.2187c.252-1.3614.3779-2.042.624-3.4043.0108-.0391.0274-.0928.0489-.1563a.753.753,0,0,1,.0976-.1914.71541.71541,0,0,1,.1494-.1621.36581.36581,0,0,1,.2071-.0762c.0273-.0019.041-.0039.0644-.0039.2559.0039.4697.0118.6318.0186a.28548.28548,0,0,1,.2823.2627,3.85386,3.85386,0,0,0,.1533.5185,2.70005,2.70005,0,0,0,.17281.4961.05054.05054,0,0,1,.00789.0401.22813.22813,0,0,0-.0108.0449,1.85324,1.85324,0,0,0,.0938.6602,3.54985,3.54985,0,0,1,.1826.6171.57281.57281,0,0,0-.0049.2774,1.94059,1.94059,0,0,0,.15041.3027c.06249.1016.11619.2002.16309.293a.364.364,0,0,1,.0117.2383.87637.87637,0,0,0,.042.1465,1.51429,1.51429,0,0,1,.0615.2421c.0156.087.0352.169.05471.2432a.95658.95658,0,0,0,.04879.1582c.0059.0205.0069.0586.0147.1045q.00735.0645.02051.1406c.00779.0498.01559.0996.01849.1485a.9417.9417,0,0,1,0,.0957c.001.0722.044.1943.0391.2968-.0039.1055.1211.252.166.2432.043-.0078.1182-.1846.1455-.2725.2862-.8613.667-1.7929.8682-2.6582a14.772,14.772,0,0,1,.6025-2.6562,1.06478,1.06478,0,0,1,.1084-.1016c.0557-.0508.09181-.0761.1153-.0781.5312-.0586.7978-.0869,1.3281-.1445.0957-.0059.1396.0097.1299.0508-.0108.0429.0703.0693.0761.08a10.83459,10.83459,0,0,1-.2675,1.0742,5.41153,5.41153,0,0,1-.2832,1.0772c-.2002.5264-.4024,1.0498-.58989,1.5527a7.967,7.967,0,0,0-.39351,1.5557c-.3194,1.0752-.48049,1.6113-.7999,2.6914a1.14388,1.14388,0,0,1-.2392.3047.84262.84262,0,0,1-.3858.2558c-.0185.004-.08.0079-.1708.0157-.0987.0097-.1573.0136-.17779.0156-.27051.0234-.539.0498-.78511.0547-.2491.0068-.5118-.0078-.7705-.0156a.275.275,0,0,1-.2715-.209,1.50766,1.50766,0,0,1-.0528-.4649,4.18187,4.18187,0,0,1,.043-.4951,2.99414,2.99414,0,0,0,.0371-.3037c-.0019-.0332-.0098-.1035-.0137-.2051a1.43548,1.43548,0,0,0-.0273-.2129,2.04174,2.04174,0,0,1-.043-.2148c-.0185-.1025-.0381-.2119-.0576-.3281-.0195-.1153-.0361-.2217-.0527-.3262C281.66989,33.4687,281.63969,33.3808,281.6426,33.3574Z"/><path class="cls-3" d="M295.22069,35.6719a.3736.3736,0,0,1-.1416-.0713.14691.14691,0,0,1-.0703-.1104c.1006-1.0234.1484-1.5351.2529-2.5556a.07432.07432,0,0,0-.041-.0811.10454.10454,0,0,0-.0967-.0195c-.77239.0898-1.1572.1347-1.9277.2304-.0869.8399-.1318,1.2637-.21869,2.1075a.6677.6677,0,0,0,.05949.3505.69694.69694,0,0,1,.0596.337c-.0029.0468-.0146.0781-.03909.0918a.45358.45358,0,0,1-.15431.039c-.0214.002-.05369.0039-.09269.0098-.04011.0058-.06551.0097-.07331.0097-.0459.002-.1123.0059-.206.0098-.0918.0059-.1895.0117-.2881.0225-.09959.0088-.1885.0166-.2715.0244-.083.0098-.1348.0137-.1572.0146a1.78513,1.78513,0,0,1-.461-.0224.441.441,0,0,1-.2431-.1289.38809.38809,0,0,1-.0782-.2285,2.4193,2.4193,0,0,1,.0069-.3204c.042-.4287.1221-.8789.2002-1.3203q.11565-.6591.2539-1.3379c.0019-.0078.0107-.0527.02341-.1328.01559-.082.03129-.1738.04589-.2793.0137-.1035.0283-.207.043-.3066.0137-.0986.0215-.1836.0254-.2363a2.779,2.779,0,0,1,.2705-.8516,4.15883,4.15883,0,0,0,.417-.8623.75628.75628,0,0,1,.1504-.4375,4.964,4.964,0,0,0,.3252-.4238,1.11163,1.11163,0,0,0,.083-.1885c.0195-.0547.0781-.1299.1054-.1953a.1697.1697,0,0,1,.0303-.043.11407.11407,0,0,1,.0371-.0342c.13481-.0615.3057-.3349.4326-.5068a3.32608,3.32608,0,0,1,.4825-.5107,4.1229,4.1229,0,0,1,.4336-.3174c.1679-.1094.3427-.2129.5302-.3106a3.859,3.859,0,0,1,.5674-.2451,3.01971,3.01971,0,0,1,.5576-.1357,2.0061,2.0061,0,0,1,1.1045.0976,1.13031,1.13031,0,0,1,.5166.4844,1.86192,1.86192,0,0,1,.1924.6826c.0225.2529.1172.5322.1172.6983,0,.0195-.0107.0683-.0107.1328a1.85835,1.85835,0,0,1-.0098.2031,1.2982,1.2982,0,0,0-.0078.2002.73365.73365,0,0,1-.0078.1279c-.0869.4893-.1455,1.0664-.26569,1.6094-.11911.541-.21771,1.0967-.32521,1.6113a2.74732,2.74732,0,0,1-.1494.4258,2.144,2.144,0,0,0-.1308.4258,1.20409,1.20409,0,0,0-.0147.1279c-.0058.0693-.0146.1416-.0234.2207a1.71727,1.71727,0,0,0-.0176.2246,1.02241,1.02241,0,0,1-.00489.128c-.04.1591-.06151.2412-.10151.4023-.0039.0156-.0118.0566-.02149.126-.01171.0674-.02541.1435-.03911.2236-.0176.0791-.0312.1563-.041.2227-.0117.0693-.0205.1162-.0244.1406a1.59394,1.59394,0,0,1-.0899.2187.31825.31825,0,0,1-.2529.1797l-.0351.001c-.0088,0-.0459-.001-.0997-.0068-.0585-.0059-.0937-.0098-.1074-.0098-.0312.002-.0967.0078-.1953.0156-.1006.0088-.19919.0137-.3017.0176-.10549.0059-.2032.0137-.2959.0215A1.28711,1.28711,0,0,1,295.22069,35.6719Zm-1.583-4.2383c-.0146.0957.042.1621.1738.1953a2.08235,2.08235,0,0,0,.4698.0517c.1836.003.3681-.0009.5537-.0156.18461-.0146.334-.0303.4277-.0381.0205-.0009.0664-.0078.1328-.0136.0655-.0078.1182-.0078.1338-.0108a.37293.37293,0,0,0,.0645-.0693.33713.33713,0,0,0,.04681-.0684,1.137,1.137,0,0,0,.044-.2363c.01559-.1094.03809-.2266.06439-.3555.0264-.1318.0528-.2519.0752-.3574a1.4196,1.4196,0,0,1,.0479-.2383.48166.48166,0,0,0,.0449-.1103c.0137-.0557.0235-.0977.0293-.1201.0527-.4698.0801-.7022.1309-1.1729a.46106.46106,0,0,0-.0332-.1894.62.62,0,0,0-.1133-.1924.46448.46448,0,0,0-.1992-.1328.57133.57133,0,0,0-.2754-.0293.85529.85529,0,0,0-.2598.0722,2.31478,2.31478,0,0,0-.8838.8994,4.52548,4.52548,0,0,0-.3916.9893c-.0508.1904-.1035.3848-.1601.5742A3.612,3.612,0,0,0,293.63769,31.4336Z"/><path class="cls-3" d="M298.82809,34.9248a6.10644,6.10644,0,0,1,.2803-1.3936,13.0546,13.0546,0,0,0,.36721-1.4082c.08789-.4384.16209-.8633.22359-1.2812a11.84885,11.84885,0,0,1,.2705-1.2774c.1192-.4648.2305-.9072.334-1.3105.1065-.4072.1182-.916.2012-1.2842a.54843.54843,0,0,1,.3408-.3076,1.9852,1.9852,0,0,1,.4951-.1436,3.55565,3.55565,0,0,1,.5762-.0195c.208.0117.4619.1025.4815.169a.74336.74336,0,0,1-.0137.0976c-.0078.0488-.0137.0791-.0176.0938a4.42385,4.42385,0,0,1-.2441.9257,4.93526,4.93526,0,0,0-.2774.9112c-.0078.0322-.0312.1552-.0683.3701s-.0791.459-.126.7344c-.0459.2724-.09379.5488-.1416.8281-.0488.2793-.0889.501-.11719.6601-.06741.3848-.14061.7676-.22661,1.1348a7.42928,7.42928,0,0,0-.19039,1.1201.21984.21984,0,0,0,.20119.2608,2.66357,2.66357,0,0,0,.4717.0195c.1728-.0098.333-.0098.4765-.0049s.2188.083.2002.2002a3.62676,3.62676,0,0,1-.18059.6289,3.40914,3.40914,0,0,1-.18071.4317.3705.3705,0,0,1-.21.1972.17039.17039,0,0,1-.0595.0127c-.0254.001-.0459.001-.0577.001-.4003,0-.82609-.0098-1.2548-.0098-.4307-.0019-.8604-.0117-1.28129-.0273-.13771-.0039-.22071-.0313-.24711-.082A.53181.53181,0,0,1,298.82809,34.9248Z"/><path class="cls-3" d="M303.917,34.8066a6.05455,6.05455,0,0,1,.2842-1.3945,13.208,13.208,0,0,0,.3662-1.4092c.0889-.4346.16021-.8623.2236-1.2803a12.32889,12.32889,0,0,1,.26761-1.2793c.126-.4648.23149-.9101.33789-1.3134.1045-.4034.1172-.919.2002-1.2881a.56733.56733,0,0,1,.3408-.2998,1.88551,1.88551,0,0,1,.4932-.1299,3.2769,3.2769,0,0,1,.5732-.0039c.2051.0156.4561.1133.4785.1807a.43646.43646,0,0,1-.0175.0966.8187.8187,0,0,1-.0157.0977,4.25338,4.25338,0,0,1-.2451.9238,5.14378,5.14378,0,0,0-.2744.9111c-.0058.0323-.0293.1553-.0683.3692-.0381.2168-.0811.4619-.128.7373-.04779.2754-.0947.5508-.1426.8301-.0498.2793-.0869.5009-.1181.6621-.0664.3857-.1406.7676-.2246,1.1357a7.50119,7.50119,0,0,0-.1914,1.124.228.228,0,0,0,.1992.2686,2.8221,2.8221,0,0,0,.4678.0303c.17091-.0039.33,0,.4716.0088.1436.0107.2168.0927.19731.2099a3.47137,3.47137,0,0,1-.18071.625,3.12234,3.12234,0,0,1-.1806.4307.34446.34446,0,0,1-.208.1924.15868.15868,0,0,1-.0586.0117h-.0557c-.3975-.0117-.81839-.0352-1.2471-.0469-.4248-.0137-.8554-.0381-1.2734-.0625-.1367-.0078-.2207-.0371-.2441-.0879A.51262.51262,0,0,1,303.917,34.8066Z"/><path class="cls-3" d="M312.57519,33.7129a.66708.66708,0,0,1,.4795-.2774,2.36675,2.36675,0,0,1,.708.0069,8.00186,8.00186,0,0,1,.877.1748,9.28624,9.28624,0,0,0,.9941.2363,1.039,1.039,0,0,0,.4082-.0527,1.6216,1.6216,0,0,0,.3545-.1641,2.45666,2.45666,0,0,0,.334-.2344,3.49361,3.49361,0,0,1,.3418-.2656.18262.18262,0,0,0,.043-.0518.27879.27879,0,0,0,.02931-.0517c.04589-.2891.07029-.4356.11709-.7246a1.33289,1.33289,0,0,1-.1689-.1397c-.0879-.083-.168-.1474-.2168-.1933a.92037.92037,0,0,0-.1016-.0782.42161.42161,0,0,0-.1093-.0517c-.2959-.0781-.6563-.2793-.96-.377a7.12668,7.12668,0,0,1-.8379-.3242,2.20749,2.20749,0,0,1-.6572-.4629,1.34773,1.34773,0,0,1-.4111-.7793c0-.0185.0136-.0615.0185-.1113.0049-.0469.0107-.0996.0156-.1523.002-.0538.0078-.1016.0098-.1475.00981-.044.0137-.0752.0186-.0889.0224-.1113.03121-.2383.0498-.3711a.89019.89019,0,0,1,.1455-.3613c.0175-.0273.0527-.0869.1064-.1699.0547-.083.1152-.169.1787-.2559.0645-.0859.124-.1689.1797-.248.0586-.0801.0957-.1338.1143-.166.00781-.0225.00881-.0352.0156-.0606a1.63724,1.63724,0,0,1,.2187-.1601,1.51612,1.51612,0,0,0,.1797-.1192c.0586-.04.1114-.0713.1475-.0937a5.91766,5.91766,0,0,1,1.208-.6133,4.01256,4.01256,0,0,1,1.3291-.1914,3.15534,3.15534,0,0,1,.5918.0879,6.05805,6.05805,0,0,1,.751.2197,2.64406,2.64406,0,0,1,.6299.3232c.1709.1211.2451.2461.2294.3672a1.16993,1.16993,0,0,1-.0878.2891,2.25251,2.25251,0,0,1-.1924.3535,1.23344,1.23344,0,0,1-.2686.2988.45186.45186,0,0,1-.3125.1231,5.8835,5.8835,0,0,1-.8183-.086,6.75684,6.75684,0,0,0-.8164-.08c-.04989-.002-.1641-.0059-.3321-.002-.166.002-.2881-.0098-.3271-.0039-.0313.0039-.0899.0273-.167.041a1.97662,1.97662,0,0,0-.22269.0635,1.7591,1.7591,0,0,0-.20021.0859c-.0537.0303-.0859.0586-.0937.0928-.042.293-.0625.4414-.1016.7334-.0117.042.0156.082.0733.1221a2.14688,2.14688,0,0,0,.1914.1269,1.99543,1.99543,0,0,0,.2236.1162,1.58686,1.58686,0,0,0,.16021.0694,11.59507,11.59507,0,0,1,1.04189.539,3.17206,3.17206,0,0,1,.7754.5752,1.86585,1.86585,0,0,1,.4385.7256,2.281,2.281,0,0,1,.0537.9863,2.57653,2.57653,0,0,1-.331.9727,2.91508,2.91508,0,0,1-.7032.8145,3.35045,3.35045,0,0,1-1.0146.5488,3.74018,3.74018,0,0,1-1.2559.1973,8.81916,8.81916,0,0,1-1.1464-.0782,4.57219,4.57219,0,0,1-1.0206-.2558,1.7718,1.7718,0,0,1-.7119-.4805A.84244.84244,0,0,1,312.57519,33.7129Z"/><path class="cls-3" d="M321.11529,36.5097a1.61343,1.61343,0,0,0,.04-.1992c.0117-.1035.0234-.1758.02931-.207a5.198,5.198,0,0,1,.18649-.7207,3.69327,3.69327,0,0,1,.2861-.7178.1.1,0,0,0,.0137-.0664.27112.27112,0,0,1,0-.0576,3.54256,3.54256,0,0,1,.2022-.5879,5.20925,5.20925,0,0,0,.2177-.582,8.79086,8.79086,0,0,0,.2637-1.1201,10.62984,10.62984,0,0,1,.2442-1.1094c.0068-.0322.0224-.0811.04291-.1436.02249-.0625.04489-.1289.06739-.1933.0215-.0645.041-.1231.05761-.1758.01859-.0527.03029-.085.03519-.1006a.6889.6889,0,0,1,.041-.1084c.0264-.0527.04881-.1113.0762-.1699.0234-.0596.0488-.1143.0752-.168.0205-.0488.0322-.082.0371-.0976.0029-.0137.0058-.0215.0097-.0352a.12486.12486,0,0,0-.0459-.1396.3409.3409,0,0,0-.1406-.0791c-.2764-.0586-.6152-.0743-.8984-.126-.2822-.0537-.624-.0615-.89849-.1162a.4225.4225,0,0,1-.21091-.1133,1.55089,1.55089,0,0,1,.041-.2285,1.73,1.73,0,0,0,.0225-.2178c.001-.0693.0166-.1885.0283-.3457a4.0677,4.0677,0,0,1,.0693-.4727,1.365,1.365,0,0,1,.1631-.417.35014.35014,0,0,1,.3164-.1806c.0244.0039.0371.0068.0616.0107,2.0791.2842,3.1093.4541,5.1484.8819a.25456.25456,0,0,1,.1572.0888.43643.43643,0,0,1,.0674.1485.56737.56737,0,0,1,.01371.1621.67315.67315,0,0,1-.01371.1308c-.0029.0088-.0068.0401-.0156.0938-.0078.0527-.0176.1152-.0235.1865-.0048.0713-.0127.1436-.0195.2139a1.51648,1.51648,0,0,1-.0283.1777c-.0059.0244-.0147.0664-.0235.1231-.0078.0585-.0195.122-.0312.1923-.0098.0694-.0234.1358-.0332.1973-.0117.0625-.01949.1055-.0254.1299a.23107.23107,0,0,1-.0752.1113.19029.19029,0,0,1-.1396.0469,6.22031,6.22031,0,0,1-.78229-.1055,5.80344,5.80344,0,0,0-.77631-.1094.65417.65417,0,0,1-.1416-.0185.22.22,0,0,0-.1553.0303.42271.42271,0,0,0-.1641.1865,1.48013,1.48013,0,0,0-.0859.2412,1.914,1.914,0,0,0-.0469.2617,1.898,1.898,0,0,1-.042.2266c-.247.8808-.5283,1.8027-.7588,2.7129-.2256.9121-.3164,1.9043-.45409,2.7402A.93542.93542,0,0,1,323,36.8105a.23453.23453,0,0,1-.248.1211.0263.0263,0,0,0-.0156-.0039c-.0206-.0039-.0616-.0117-.1231-.0273s-.1289-.0313-.2051-.0547c-.0742-.0195-.1435-.0352-.2041-.0459-.06149-.0108-.0986-.0186-.1074-.0205a1.93265,1.93265,0,0,0-.2422-.0381c-.0986-.0088-.1973-.0205-.2978-.0352a1.42,1.42,0,0,1-.2725-.0693C321.20119,36.6094,321.11529,36.541,321.11529,36.5097Z"/><path class="cls-3" d="M330.18949,38.4648a.43777.43777,0,0,1-.13189-.123.23652.23652,0,0,1-.06151-.1416c.1153-1.0742.169-1.6084.2813-2.6787a.10278.10278,0,0,0-.0313-.0996.11887.11887,0,0,0-.0928-.0547c-.7138-.1446-1.0693-.21-1.7871-.336-.09759.8799-.14159,1.3184-.2402,2.1993a.9353.9353,0,0,0,.0479.3916,1.02828,1.02828,0,0,1,.05071.3837c-.00491.0508-.01661.0801-.04.0879a.4094.4094,0,0,1-.14261-.0058c-.0185-.0039-.0488-.0098-.0849-.0157a.5605.5605,0,0,1-.0704-.0117c-.041-.0117-.1045-.0293-.1904-.0508-.0849-.0195-.1748-.039-.2676-.0566-.0898-.0195-.1757-.0351-.2519-.0508-.07719-.0136-.124-.0244-.1465-.0293a1.77521,1.77521,0,0,1-.42869-.1543.58316.58316,0,0,1-.22271-.207.55424.55424,0,0,1-.06929-.2666,2.713,2.713,0,0,1,.00879-.3369c.0469-.4473.1299-.9082.2109-1.3574.0781-.4473.1651-.8985.2588-1.3594.001-.0059.0078-.0508.0234-.1358.0157-.082.0323-.1767.0489-.2841.0146-.1075.03121-.211.0459-.3145.0156-.1045.0215-.1894.02731-.2441a2.80869,2.80869,0,0,1,.26559-.8399,3.92063,3.92063,0,0,0,.40341-.8047.74223.74223,0,0,1,.14549-.4277,3.35437,3.35437,0,0,0,.31151-.3691.65213.65213,0,0,0,.082-.1739c.02049-.0537.07519-.1211.10259-.1826a.229.229,0,0,1,.0263-.0351.06217.06217,0,0,1,.04011-.0244c.10349-.0274.28809-.2784.41009-.4219a2.15705,2.15705,0,0,1,.4551-.4151,3.0938,3.0938,0,0,1,.4082-.2129,4.4624,4.4624,0,0,1,.4971-.1767,2.75308,2.75308,0,0,1,.5312-.0977,2.20519,2.20519,0,0,1,.5176.0254,2.00232,2.00232,0,0,1,1.0176.4502,1.81975,1.81975,0,0,1,.4639.6944,2.80738,2.80738,0,0,1,.1611.8027c.0166.2793.0996.5937.0937.793,0,.0195-.0097.0693-.0107.1396-.00289.0703-.0068.1436-.0147.2197-.0058.0762-.0127.1455-.0127.211-.0029.0664-.0068.1123-.0087.1347-.0957.5137-.1573,1.1114-.2784,1.6563-.1181.5488-.2168,1.1123-.333,1.6357a2.25722,2.25722,0,0,1-.1435.4151,1.94494,1.94494,0,0,0-.126.416c-.00389.0156-.0107.0615-.0195.1357-.0069.0703-.0176.1475-.02639.2295-.00881.086-.01661.166-.01661.2383-.0029.0723-.0068.1191-.0098.1367-.041.1582-.0605.2383-.10059.3985-.00391.0175-.01171.0605-.02341.1298-.0137.0733-.0293.1475-.0459.2315-.01169.082-.0244.1601-.0371.2285-.01459.0723-.0225.1172-.0293.1416a1.15386,1.15386,0,0,1-.084.21.19706.19706,0,0,1-.23529.1054l-.03231-.0078c-.00969-.0039-.038-.0176-.09269-.041a.56593.56593,0,0,0-.09181-.0449c-.0323-.0098-.0928-.0274-.1826-.0508-.0909-.0234-.18359-.0488-.2793-.0801-.0948-.0283-.1856-.0547-.2696-.0742A1.5649,1.5649,0,0,1,330.18949,38.4648Zm-1.3867-5.0527a.2636.2636,0,0,0,.1601.2617,2.69519,2.69519,0,0,0,.4336.1973c.169.0566.3418.1074.5147.1504.1699.041.3066.0703.3945.0898.0215.0059.0615.0147.1211.0293a.88745.88745,0,0,0,.1221.0274c.0175-.002.0468-.0372.0634-.0538a.62035.62035,0,0,0,.0469-.0586,1.47742,1.47742,0,0,0,.0449-.2412c.0166-.1113.0391-.2324.0664-.3642.0254-.1319.0498-.253.0752-.3623a1.18612,1.18612,0,0,1,.0508-.2393.51476.51476,0,0,0,.04-.1045c.0127-.0566.0245-.0967.0313-.1201.0566-.4893.084-.7353.1426-1.2226a.75924.75924,0,0,0-.0274-.2139.93189.93189,0,0,0-.1015-.2442.72508.72508,0,0,0-.1807-.207.55815.55815,0,0,0-.2559-.1152.578.578,0,0,0-.2392,0,1.57774,1.57774,0,0,0-.8379.7011,4.20872,4.20872,0,0,0-.3789.9483c-.0508.1904-.1045.3838-.1582.5674A3.65867,3.65867,0,0,0,328.80279,33.4121Z"/><path class="cls-3" d="M337.0156,41.4023a5.37276,5.37276,0,0,1-.29191-.7685c-.0655-.2139-.1358-.4561-.2276-.6983-.0137-.0312-.04-.082-.0752-.1474a2.17168,2.17168,0,0,1-.1074-.1983,1.94776,1.94776,0,0,1-.0723-.1855c-.0195-.0557.0147-.1172.0147-.1348.0176-.0918-.1572-.374-.2334-.5664-.0762-.1914-.1543-.3789-.2246-.5605a.1791.1791,0,0,1-.02929-.0118c-.01171-.0039-.01961-.0175-.02741-.0234-.0547-.0547-.1181-.0273-.1259.0547a4.15615,4.15615,0,0,1-.0791.4512c-.043.2129-.086.4443-.1319.6855-.0439.2461-.0879.4785-.126.6992-.039.2207-.0625.3731-.0742.459l.0069.0449c-.02639.0137-.0625.0332-.11039.0528-.04781.0205-.07421.0254-.082.0136-.60941-.206-.91311-.3046-1.52541-.4921a.30912.30912,0,0,1-.1973-.1719.42514.42514,0,0,1-.0576-.2256c0-.0078.0078-.0117.0137-.0156a.04961.04961,0,0,0,.01361-.0284.133.133,0,0,0,.00979-.0351.35528.35528,0,0,1,.0293-.0625c.0205-.0332.0391-.0684.0596-.1065a1.02885,1.02885,0,0,1,.0586-.0966.55991.55991,0,0,0,.0293-.0567c.0039-.0215.0117-.082.0195-.1699.00491-.0918.0166-.1855.0293-.2812.0117-.0977.0234-.1875.0322-.2715.0117-.084.0196-.1387.02641-.1641.00779-.0391.03419-.1396.07419-.2969.0391-.1562.0781-.3281.1182-.5078.039-.1777.0781-.3496.1113-.5078.0352-.1601.0557-.2598.0664-.3008.0088-.04.0244-.1142.04-.2226.0157-.1114.0352-.2246.0567-.3496.0176-.128.0371-.2442.0537-.3526a1.239,1.239,0,0,1,.0371-.2246.36819.36819,0,0,0,.043-.1045c.0137-.0547.02341-.0918.0273-.1094.1865-.6816.3838-1.3867.5362-2.082s.29-1.414.4433-2.1035c.0059-.0215.01661-.0703.0274-.1348.0097-.0664.0214-.1386.0283-.2148.0088-.0762.0166-.1504.0303-.2227a.66905.66905,0,0,1,.0283-.1396.10114.10114,0,0,1,.1035-.0557.50329.50329,0,0,1,.1123.0254c.3838.127.7871.2461,1.1611.3867a5.30644,5.30644,0,0,1,1.02641.5137,3.43382,3.43382,0,0,1,.79489.7168,2.58433,2.58433,0,0,1,.4824.9775c.0684.2666.1495.5284.2246.7823a1.65915,1.65915,0,0,1,.0547.7509,2.04994,2.04994,0,0,1-.6338,1.2188,4.18455,4.18455,0,0,1-1.2929.6914.14939.14939,0,0,0-.0908.1064.62073.62073,0,0,0,.0546.2539.23661.23661,0,0,1,0,.2286c.1426.5.21.7519.3477,1.2578-.002.0117-.0049.0195-.0078.0351.1601.4268.2353.6407.3955,1.0703a2.0436,2.0436,0,0,0,.0723.2569c.0498.1631.1084.3506.1757.5576.0664.207.1221.4082.169.6094a1.32319,1.32319,0,0,1,.0547.4258.27553.27553,0,0,1-.1524.1992,1.00232,1.00232,0,0,1-.3291.1172,1.73577,1.73577,0,0,1-.3779.0312.86861.86861,0,0,1-.3262-.0605A.52723.52723,0,0,1,337.0156,41.4023Zm-1.00971-6.8066c.0039.041.05371.0976.0732.1308a.29087.29087,0,0,0,.1153.0899.73727.73727,0,0,0,.5185.0117.79926.79926,0,0,0,.3633-.2363,1.16482,1.16482,0,0,0,.23141-.3672,2.17868,2.17868,0,0,0,.12019-.3652,1.32005,1.32005,0,0,0,.0019-.3272,1.70146,1.70146,0,0,0-.0752-.4004,1.1991,1.1991,0,0,0-.1933-.3662.71248.71248,0,0,0-.3497-.2422.26556.26556,0,0,0-.2626.0488.65123.65123,0,0,0-.1788.2334,1.60716,1.60716,0,0,0-.1064.2989c-.0264.1006-.0449.1709-.0527.2119a.64481.64481,0,0,0-.0127.0879c-.0069.0498-.0166.1113-.0303.1777-.0088.0645-.0205.1328-.0342.2022-.0117.0713-.0117.1357-.0185.1738-.003.0225-.01469.0664-.0225.125-.0088.0586-.0195.124-.03319.1924-.01371.0713-.02251.1377-.03321.1953C336.0186,34.5273,336.00589,34.5791,336.00589,34.5957Z"/><path class="cls-3" d="M339.49029,40.0762c.0468-.1055.2529-.1602.4394-.1143a2.16374,2.16374,0,0,1,.6377.2871,9.52284,9.52284,0,0,1,.7813.5479c.2832.2216.5908.4931.8886.6796a.83413.83413,0,0,0,.3662.1163.98994.98994,0,0,0,.3194-.0274,1.30928,1.30928,0,0,0,.30471-.1201,2.383,2.383,0,0,1,.31249-.1475.11683.11683,0,0,0,.041-.039.228.228,0,0,0,.0283-.0459c.0488-.3008.0723-.4492.1191-.75a2.6116,2.6116,0,0,1-.1425-.2256c-.0811-.1309-.1465-.2363-.1885-.3096-.0166-.0234-.04489-.0703-.08989-.1308a.7345.7345,0,0,0-.09371-.1026c-.291-.2324-.583-.5888-.8496-.8222-.2715-.2354-.5205-.4678-.7471-.7071a3.92981,3.92981,0,0,1-.5781-.7715,2.20392,2.20392,0,0,1-.3496-1.0205c0-.0205.0107-.0625.0185-.1133a1.36562,1.36562,0,0,0,.0157-.164c.00391-.0567.0117-.1113.0166-.1572.0068-.0459.0117-.0791.0146-.0928.0234-.1113.0371-.2481.05571-.3858a.7261.7261,0,0,1,.14159-.333c.0166-.0273.0498-.0781.0986-.1484.05181-.0732.1064-.1406.165-.2129.0616-.0654.1202-.1348.1729-.1982a1.33177,1.33177,0,0,0,.1064-.1387c.0069-.0264.0108-.0381.0176-.0615a.858.858,0,0,1,.1944-.0908c.05851-.0167.1142-.0323.1718-.0538a1.0335,1.0335,0,0,1,.1319-.0488,3.31422,3.31422,0,0,1,1.1006-.1816,3.07728,3.07728,0,0,1,1.1953.3437,3.72841,3.72841,0,0,1,.5263.3526,7.22846,7.22846,0,0,1,.6612.5732,4.25562,4.25562,0,0,1,.5527.6338.79542.79542,0,0,1,.1963.5117,1.12211,1.12211,0,0,1-.0869.2842,1.43555,1.43555,0,0,1-.1826.3027.79573.79573,0,0,1-.2452.2168.29477.29477,0,0,1-.2832-.0039,6.70639,6.70639,0,0,1-.7226-.457,7.56353,7.56353,0,0,0-.7305-.4395c-.0449-.0254-.1455-.0771-.2949-.1465-.1475-.0664-.2568-.1289-.2959-.1406-.0234-.0078-.0801-.0078-.1455-.0234a1.8073,1.8073,0,0,0-.2022-.0235,1.23825,1.23825,0,0,0-.1826.0118c-.0517.0097-.0801.0273-.0869.0605-.0449.3086-.0674.4609-.1113.7705-.0108.0381.0088.0947.0644.1631.0498.0703.1084.1445.1719.2207a2.58483,2.58483,0,0,0,.19241.2246c.06639.0684.11809.1162.14159.1426.3379.3398.6445.7197.918,1.043a5.90828,5.90828,0,0,1,.6738.9765,3.66608,3.66608,0,0,1,.3701,1.0059,3.39657,3.39657,0,0,1,.01951,1.1211,2.30407,2.30407,0,0,1-.32131.9336,1.56722,1.56722,0,0,1-.6474.5898,1.86632,1.86632,0,0,1-.918.1602,3.00076,3.00076,0,0,1-1.1269-.3291,10.32,10.32,0,0,1-1.0205-.5655,5.98316,5.98316,0,0,1-.9122-.7002,3.0599,3.0599,0,0,1-.6308-.8095A1.28562,1.28562,0,0,1,339.49029,40.0762Z"/><path class="cls-3" d="M226.02829,40.7168c.003-.0352.0059-.0869.0147-.1455.0068-.0596.01761-.1201.0273-.1787.0088-.0606.0176-.1153.0244-.1621s.0118-.0821.0157-.0967c.03121-.1524.0693-.3653.122-.6201.0528-.252.1036-.502.1573-.751.0498-.251.0937-.4697.1328-.6631.03511-.1914.0576-.3008.0635-.3242.0605-.2461.1318-.5039.2197-.7823a6.05821,6.05821,0,0,1,.3105-.8134,3.064,3.064,0,0,1,.4405-.7149,1.73987,1.73987,0,0,1,.6093-.4687,1.50173,1.50173,0,0,1,.81061-.1104,3.07631,3.07631,0,0,1,1.06349.3614c.1103.0664.167.0986.2812.163a8.8944,8.8944,0,0,1,.7217.586,4.72333,4.72333,0,0,1,.60061.6445,3.57212,3.57212,0,0,1,.41309.6943,2.14226,2.14226,0,0,1,.1884.7569,2.11558,2.11558,0,0,1-.0214.2558c-.0176.1329-.0313.2178-.04109.2569-.01751.0654-.039.165-.06441.292-.0264.1269-.0401.1972-.0459.2148-.0205.0801-.0606.2568-.124.5313-.0635.2754-.1289.5722-.2002.8974-.0684.3262-.1397.6416-.211.9502-.0703.3028-.124.5293-.1631.6738-.0488.2032-.10439.4375-.165.7012a7.1093,7.1093,0,0,1-.23339.8076,5.3513,5.3513,0,0,1-.33791.7705,1.71656,1.71656,0,0,1-.49409.5821,1.30237,1.30237,0,0,1-.68651.2461,1.83876,1.83876,0,0,1-.9288-.2412,4.77,4.77,0,0,1-.8339-.5391c-.2569-.2051-.5137-.4404-.7725-.6865a2.97806,2.97806,0,0,1-.5996-.7696,3.04859,3.04859,0,0,1-.291-.8046,3.44573,3.44573,0,0,1-.0742-.7979C225.96,41.1719,226.01369,40.9121,226.02829,40.7168Zm1.877,1.084a1.206,1.206,0,0,0,.0605.5586.83393.83393,0,0,0,.4434.4638.53261.53261,0,0,0,.3643.0772A.41129.41129,0,0,0,229,42.7383a1.07157,1.07157,0,0,0,.1367-.292c.0323-.1094.0713-.21.1006-.2998.003-.0147.0127-.0508.0244-.1035.0127-.0547.0293-.1075.04791-.167a1.48474,1.48474,0,0,0,.05079-.1651c.0127-.0527.0195-.082.0224-.0898.1114-.3897.2403-.7696.3282-1.1133.082-.3438.1504-.7481.2363-1.1592.0098-.0498.02731-.1318.0488-.2471.0166-.1132.0371-.2363.0586-.3662.0215-.1318.042-.2529.0576-.3681.0186-.1153.042-.2051.0479-.2442a1.30369,1.30369,0,0,0-.0547-.2607c-.0342-.1152-.0674-.2285-.1094-.3408a1.98982,1.98982,0,0,0-.1631-.3223.62976.62976,0,0,0-.2099-.2207.36489.36489,0,0,0-.2764-.0313.5475.5475,0,0,0-.2295.1504,1.13622,1.13622,0,0,0-.1728.2373,2.31606,2.31606,0,0,1-.1114.2178.60774.60774,0,0,0-.0595.1074c-.0254.0586-.0547.125-.08889.1973s-.06741.1416-.09961.207a.66609.66609,0,0,0-.0537.1172c-.0049.0186-.0166.0733-.0401.1719-.0254.0977-.0537.2051-.082.3281-.0303.1201-.0645.2403-.09959.3535-.03421.1153-.05661.2022-.07231.2676-.00969.041-.0156.0586-.0254.0977a.07934.07934,0,0,0-.0019.042.08306.08306,0,0,1-.0029.04c-.004.0195-.0069.0293-.0108.0498-.01069.0869-.0303.2373-.0566.4531-.0283.2178-.0547.4463-.084.6846-.0254.2393-.0567.4678-.0869.6777C227.93749,41.5644,227.91409,41.7129,227.90529,41.8008Z"/><path class="cls-3" d="M232.96879,42.7881q.4131-1.17045.7256-2.419c.07521-.3066.1416-.6172.19721-.9306.05759-.3116.124-.6221.20219-.9288.0361-.1464.0527-.2197.09181-.3671a.20309.20309,0,0,1,.15519-.0782.79107.79107,0,0,1,.2207-.0039c.0567.0157.1973.0899.3926.1719.1934.085.39551.1699.6094.2598.2168.0879.418.1699.6074.2441.1914.0772.3252.1318.4033.1641.0108.0039.0557.0215.1338.0527.0772.0313.1621.0645.2569.0967s.1894.0693.2881.1084c.09761.0371.1748.0683.2343.0937.3116.1202.5948.2305.8457.3282a6.00358,6.00358,0,0,1,.8389.3515.36706.36706,0,0,1,.1748.2715.92744.92744,0,0,1-.0234.2832c-.0059.0234-.0215.0879-.0469.1895a1.60917,1.60917,0,0,1-.1182.3076,1.07019,1.07019,0,0,1-.1885.2685.22238.22238,0,0,1-.2548.0645.08288.08288,0,0,1-.03029-.0186.09767.09767,0,0,0-.02641-.0156.639.639,0,0,1-.10059-.0557.51423.51423,0,0,0-.09861-.0546c-1.1601-.4219-1.7353-.6465-2.8779-1.1319-.0781.0235-.1153.0362-.1934.0635-.0234.0957-.03609.1455-.0615.2402-.0654.2696-.126.5352-.1807.8028a6.48711,6.48711,0,0,0-.1591.8281.24445.24445,0,0,0,.0273.1113.1847.1847,0,0,0,.0996.0918c.4199.1758.6318.2647,1.0527.4336a.29939.29939,0,0,1,.1534.1289.40506.40506,0,0,1,.0566.1797,1.30156,1.30156,0,0,1,.0029.1953,1.033,1.033,0,0,1-.0195.1485c-.0156.0546-.0352.1259-.0625.2128a.92144.92144,0,0,1-.1191.2432.50108.50108,0,0,1-.1866.165.31054.31054,0,0,1-.2568-.0058c-.3145-.125-.4717-.1895-.7871-.3242a.35128.35128,0,0,0-.207-.0186.31358.31358,0,0,0-.1582.0664,1.25988,1.25988,0,0,0-.0518.2324c-.0254.1163-.0508.2354-.082.3584-.0323.128-.0655.2461-.09769.3565-.03321.1123-.05571.1933-.06841.2412a1.12714,1.12714,0,0,1-.0664.166c-.0361.0879-.07119.1856-.1093.2891-.0391.1054-.0713.2011-.1035.2929-.0342.086-.0528.1446-.0616.168a2.75406,2.75406,0,0,0-.083.3399c-.0244.1406-.0595.2832-.0996.4277a1.86392,1.86392,0,0,1-.1504.3799.27121.27121,0,0,1-.2363.167c-.0322-.0059-.10349-.041-.2002-.0743-.0908-.0312-.1904-.0703-.2998-.1152-.1074-.043-.21-.0859-.3066-.1269-.0987-.0391-.168-.0704-.2041-.0879a.17257.17257,0,0,1-.0313-.0137.30693.30693,0,0,1-.1582-.1943,1.11287,1.11287,0,0,1-.0518-.3096,2.13324,2.13324,0,0,1,.0059-.3164,1.24953,1.24953,0,0,1,.0264-.1973c.0381-.1504.0537-.2265.0927-.3769Q232.55574,43.958,232.96879,42.7881Z"/><path class="cls-3" d="M239.08689,45.2207c.2764-.791.51571-1.6016.7246-2.4356q.11867-.4599.2012-.9257c.0537-.3096.1211-.6192.1963-.9239.0381-.1465.05761-.2207.0938-.3652a.26857.26857,0,0,1,.1611-.0996.97367.97367,0,0,1,.2236-.0274c.0596.0079.20411.0664.4063.125.1992.0577.4092.1192.6299.1797.2216.0645.4316.1211.62691.1739.19729.0507.334.0918.41309.1123.0098.0039.0557.0146.1348.04.081.0215.1679.043.2675.0674.0948.0205.1963.0439.2979.0732.1016.0254.17971.0479.2402.0645.3223.084.6123.164.8692.2324a6.05831,6.05831,0,0,1,.8642.2549.3098.3098,0,0,1,.1768.249.7559.7559,0,0,1-.0196.2754c-.0068.0254-.0224.0879-.0458.1895a1.42793,1.42793,0,0,1-.1182.3115,1.21187,1.21187,0,0,1-.1924.2842.25416.25416,0,0,1-.26369.0878.0855.0855,0,0,1-.02731-.0156.11056.11056,0,0,0-.0283-.0137.48942.48942,0,0,1-.1026-.0429.497.497,0,0,0-.1015-.0449c-1.1905-.2891-1.7852-.4454-2.9639-.795-.0781.0332-.1182.0489-.1963.0821-.0254.0976-.03709.1474-.0605.2441-.0664.2676-.127.5352-.18459.8008a6.39293,6.39293,0,0,0-.15631.8203.24921.24921,0,0,0,.02931.1074.14312.14312,0,0,0,.10359.0742c.4316.127.64941.1895,1.082.3086a.25527.25527,0,0,1,.1592.1094.36537.36537,0,0,1,.0605.1719.92824.92824,0,0,1,.0029.1885.9725.9725,0,0,1-.0185.1435c-.0156.0586-.0361.1289-.0635.2168a.88058.88058,0,0,1-.11819.2461.61535.61535,0,0,1-.18941.1836.33407.33407,0,0,1-.2627.0215c-.3271-.086-.4902-.1328-.8145-.2285a.33879.33879,0,0,0-.2109.0039.38689.38689,0,0,0-.165.081,1.77925,1.77925,0,0,0-.0508.2334c-.0244.1153-.0498.2344-.0801.3594-.0312.125-.0625.2441-.0967.3574-.0322.1114-.0556.1914-.0674.2383-.0048.0234-.0312.082-.0673.1719-.0391.0898-.07619.1875-.1133.293-.0391.1054-.0723.2011-.1065.2949a1.75026,1.75026,0,0,0-.0586.1699,2.22856,2.22856,0,0,0-.083.3398,3.44372,3.44372,0,0,1-.0986.4278,1.92883,1.92883,0,0,1-.15619.3847c-.06061.1114-.16121.1954-.24031.1875-.0312,0-.1074-.0273-.2041-.0488s-.2012-.0469-.3115-.0781c-.1104-.0274-.2139-.0586-.3154-.086s-.1729-.0488-.2119-.0605a.30617.30617,0,0,0-.0303-.0117.25368.25368,0,0,1-.1651-.1719,1.01175,1.01175,0,0,1-.0556-.2949,2.30727,2.30727,0,0,1,.0039-.3086,1.49282,1.49282,0,0,1,.02631-.1934c.03719-.1523.05469-.2285.09379-.3769Q238.66854,46.4033,239.08689,45.2207Z"/><path class="cls-3" d="M244.83989,50.1094a.11025.11025,0,0,1,.0293-.0528.05333.05333,0,0,0,.0097-.0429,1.59721,1.59721,0,0,1,.1416-.3731,1.33731,1.33731,0,0,1,.2002-.3476.29765.29765,0,0,1,.1846-.0938c.0801-.0117.1582-.0234.2412-.0273.08111-.0039.16111-.0118.2363-.0157a1.01611,1.01611,0,0,0,.1953-.0683.08168.08168,0,0,0,.0323-.0332c.0088-.0235.0185-.041.0234-.0567a.65141.65141,0,0,1,.0283-.0976c.0196-.0469.0381-.1016.0596-.1621.0186-.0586.0352-.1153.0498-.1719.0147-.0586.0264-.0996.0303-.1231.1426-.6425.2851-1.3164.46481-1.9609.17869-.6426.29889-1.3242.43169-1.9551.0019-.0136.0058-.0478.0088-.0996a.89.89,0,0,1,.01851-.1601l.02149-.1602c.0078-.0508.0166-.0898.01951-.1113a.17436.17436,0,0,0-.11131-.1641c-.0742-.0293-.1553-.0644-.2422-.0976a.9824.9824,0,0,1-.2256-.1309.21966.21966,0,0,1-.0732-.2256.047.047,0,0,0,0-.0283.04268.04268,0,0,1-.0039-.0264c.0117-.0468.03421-.1318.0625-.248.0283-.1182.0635-.2403.1015-.3731.0401-.1318.0743-.2588.1055-.3759.0283-.1172.0449-.2051.0586-.2373a1.88565,1.88565,0,0,1,.1348-.2256.23924.23924,0,0,1,.2099-.1348.16224.16224,0,0,1,.0293.0176.1383.1383,0,0,1,.0293.0058,3.6342,3.6342,0,0,0,.6367.1621c.2774.0508.5586.1055.8448.1719a7.142,7.142,0,0,1,.789.2324.91135.91135,0,0,1,.4737.3262.30066.30066,0,0,1,.0205.2442,1.6217,1.6217,0,0,0-.044.2441,1.65135,1.65135,0,0,1-.2217.7227.60435.60435,0,0,1-.5351.3017.24489.24489,0,0,0-.20309.168,6.87931,6.87931,0,0,0-.377,1c-.09471.3379-.18071.6758-.249,1.0205-.06741.3418-.12791.6836-.18361,1.0254-.0518.3418-.1025.6992-.1768,1.0273-.0019.0176-.0117.0606-.0283.1289s-.0381.1426-.0557.2246c-.0224.0821-.0371.1563-.0498.2266-.0117.0684-.0185.1113-.0224.127-.0069.039-.0147.0585-.02439.0976a.20375.20375,0,0,0,.08979.2188,2.5022,2.5022,0,0,0,.2588.1367,1.55778,1.55778,0,0,1,.2559.1543.29063.29063,0,0,1,.10151.2773c-.00781.0528-.03421.1406-.05471.25a1.77946,1.77946,0,0,1-.1025.3242,1.02774,1.02774,0,0,1-.1943.2793.38237.38237,0,0,1-.3047.1016,3.9497,3.9497,0,0,1-.71-.0977c-.25779-.0605-.5029-.0976-.7041-.125-.0283-.0058-.1055-.0136-.2275-.0254-.1201-.0097-.2481-.0195-.378-.0332-.1308-.0136-.2558-.0273-.375-.0429-.1211-.0176-.19719-.0254-.2275-.0332a.874.874,0,0,1-.3818-.1485A.33231.33231,0,0,1,244.83989,50.1094Z"/><path class="cls-3" d="M250.6836,50.541a.25024.25024,0,0,0,.00289-.1113c-.0107-.0606-.0253-.1289-.04589-.2032-.01951-.0722-.03711-.1425-.06051-.2089a.57694.57694,0,0,1-.0352-.1465c.044-.1739.0625-.2559.1055-.4258.0381-.166.0606-.2481.1026-.4121q.01755-.0732.0878-.3223c.0469-.164.0977-.3418.1495-.5332.0537-.1875.1025-.3652.1494-.5312.04591-.166.0771-.2715.0888-.3203.0733-.3008.1114-.4512.1846-.7549a1.88317,1.88317,0,0,0,.0918-.2686c.0361-.125.0791-.2519.1221-.3828.0429-.1348.082-.2568.1142-.3691.0362-.1153.06741-.1905.0821-.2286.0039-.0117.0224-.0625.0527-.1474a.73543.73543,0,0,1,.0898-.1729,1.59384,1.59384,0,0,0,.1729-.4297,1.64993,1.64993,0,0,1,.2012-.4218,2.98664,2.98664,0,0,1,.4121-.4219,3.684,3.684,0,0,1,.6181-.4434,4.19864,4.19864,0,0,1,.7383-.3339,1.76582,1.76582,0,0,1,.7637-.0899c.18751.0195.334.0391.4346.0586a1.3674,1.3674,0,0,1,.2636.0742.53308.53308,0,0,1,.1866.1387c.0468.0586.167.1719.1796.2461a.06607.06607,0,0,0,.0196.0508.38318.38318,0,0,0,.0273.0293c-.1133.4433-.1699.6679-.2803,1.1152-.05849.0254-.0869.0371-.14549.0605a3.10685,3.10685,0,0,0-1.17961.1192,1.25749,1.25749,0,0,0-.7208.583c-.0283.0596-.0644.168-.1181.3154-.0527.1504-.1123.3067-.1748.4698-.0615.1621-.1201.3173-.1778.4648-.0585.1475-.0966.251-.1113.3076-.0449.1895-.0713.2832-.1162.4727q-.11715.4599-.207.8613c-.0606.2715-.127.5703-.1807.8945a1.0209,1.0209,0,0,0,.0459.5899.98939.98939,0,0,0,.2881.3886,1.664,1.664,0,0,0,.4228.2442c.1573.0605.3038.1133.4454.1582a2.70808,2.70808,0,0,1,.3545.1308c.09661.0469.1455.1016.1503.17-.0332.1308-.0488.1953-.081.3261a1.44062,1.44062,0,0,0-.043.2383,1.23929,1.23929,0,0,1-.0771.2793.75248.75248,0,0,1-.166.2403.4932.4932,0,0,1-.3213.1191c-.169-.0176-.2539-.0254-.4248-.043a4.42318,4.42318,0,0,1-1.60449-.4375C251.11529,51.2988,250.63869,50.748,250.6836,50.541Z"/><path class="cls-3" d="M255.74319,51.6172a.1213.1213,0,0,1,.0293-.0528.04824.04824,0,0,0,.0097-.0429,1.69748,1.69748,0,0,1,.1436-.3789,1.28177,1.28177,0,0,1,.2022-.3614.39068.39068,0,0,1,.1904-.1172c.081-.0214.165-.041.248-.0546.083-.0157.1651-.0293.2451-.045a1.2718,1.2718,0,0,0,.1993-.0918.08163.08163,0,0,0,.0332-.0351.35019.35019,0,0,0,.0215-.0625c.0058-.0156.0175-.0469.0332-.0977.0175-.0468.038-.0996.0595-.1621.0176-.0605.0352-.1191.0479-.1758.0166-.0547.0244-.0976.0322-.1211.1436-.6386.2891-1.3086.4629-1.955.1787-.6465.3018-1.3272.4297-1.9473a.36738.36738,0,0,0,.0078-.0977c.00291-.0498.0088-.1035.0166-.1601.0098-.0547.0156-.1094.0215-.1582.00781-.0498.0166-.0879.0205-.1084a.14259.14259,0,0,0-.1143-.1436c-.0781-.0224-.1611-.0429-.2519-.0664a.77656.77656,0,0,1-.2344-.0996.19368.19368,0,0,1-.0732-.2099.06059.06059,0,0,0-.003-.0225.04474.04474,0,0,1-.00289-.0254c.01169-.0488.03419-.1348.06249-.25.0264-.1191.06151-.2412.1016-.374.038-.1319.0722-.2598.1015-.376.0283-.1172.0449-.2051.0586-.2373.0244-.0586.083-.1436.1387-.2393a.29528.29528,0,0,1,.2168-.1562.2089.2089,0,0,0,.02831.0156.164.164,0,0,0,.03129.002,4.02189,4.02189,0,0,0,.6621.0742c.2851.0137.5742.0351.8662.0625a6.78168,6.78168,0,0,1,.81741.1289.85006.85006,0,0,1,.49309.2617.28741.28741,0,0,1,.0196.2324,2.24882,2.24882,0,0,0-.044.2461,1.67312,1.67312,0,0,1-.2236.7266.79037.79037,0,0,1-.2764.2715,1.01644,1.01644,0,0,1-.2695.0859.273.273,0,0,0-.2071.1836,6.89334,6.89334,0,0,0-.3828,1.0156q-.14355.50985-.2451,1.0215c-.0703.3399-.1308.6777-.1836,1.0176-.0517.3359-.1025.6855-.1728,1.0176-.002.0156-.0157.0586-.0323.125-.0166.0703-.0351.1445-.0566.2265-.0195.0782-.0351.1543-.04689.2246-.01361.0704-.01951.1094-.02341.127-.0107.0391-.01559.0586-.0254.0977a.16854.16854,0,0,0,.0957.1992,2.09,2.09,0,0,0,.2656.1054,1.436,1.436,0,0,1,.2676.1211.24386.24386,0,0,1,.1065.2559c-.0098.0527-.0332.1406-.0557.2461a1.507,1.507,0,0,1-.1045.3301,1.13129,1.13129,0,0,1-.1963.2929.44415.44415,0,0,1-.3144.1328,4.01039,4.01039,0,0,1-.7315-.0078c-.2656-.0293-.5176-.0332-.7226-.0371-.0313,0-.1114,0-.2364.0039-.125.0078-.2558.0117-.3896.0157-.1377.0039-.26559.0058-.3887.0058-.124,0-.2031-.0039-.2353-.0039a.92092.92092,0,0,1-.39359-.0957A.28091.28091,0,0,1,255.74319,51.6172Z"/><path class="cls-3" d="M265.69529,52.3711a.292.292,0,0,1-.1406-.0762.1463.1463,0,0,1-.0654-.1152c.0967-1.0313.1504-1.543.25-2.5723a.08051.08051,0,0,0-.0352-.0859.12036.12036,0,0,0-.0967-.0254c-.7607.0566-1.1416.0801-1.9013.125-.0899.8515-.1348,1.2773-.2246,2.1308a.75849.75849,0,0,0,.0566.3594.76311.76311,0,0,1,.0576.3477c-.001.0468-.0127.0781-.039.0898a.47562.47562,0,0,1-.1514.0274c-.0195.0019-.05269.0019-.0898.0058-.0411.0039-.0616.0059-.0743.0059-.042,0-.1103-.002-.2031-.002-.0908,0-.1816,0-.2793.0039-.0996.002-.1894.0059-.2695.0078-.0811.0039-.1348.0059-.1533.0039a1.59572,1.59572,0,0,1-.4551-.0566.4536.4536,0,0,1-.23629-.1523.41269.41269,0,0,1-.07721-.2383,2.528,2.528,0,0,1,.0068-.3262c.044-.4355.127-.8906.2041-1.3301.0782-.4433.1612-.8906.253-1.3457.0029-.0078.0117-.0508.02731-.1308.01269-.0821.03029-.1758.044-.2813.01849-.1055.03019-.209.04589-.3125.0127-.0996.0195-.1836.0244-.2363a2.93618,2.93618,0,0,1,.2695-.8477,4.04867,4.04867,0,0,0,.415-.8457.78027.78027,0,0,1,.1475-.4375,3.89782,3.89782,0,0,0,.3193-.4082.83284.83284,0,0,0,.087-.1787c.0166-.0556.0742-.1289.1025-.1943a.47489.47489,0,0,1,.0264-.041.08585.08585,0,0,1,.04-.0293c.126-.0508.3018-.3213.4287-.4883a2.85984,2.85984,0,0,1,.4785-.4844,3.36073,3.36073,0,0,1,.4258-.293,5.2,5.2,0,0,1,.52151-.2793,3.90968,3.90968,0,0,1,.55859-.2168,2.96038,2.96038,0,0,1,.5517-.1074,2.01184,2.01184,0,0,1,1.0918.1504,1.19058,1.19058,0,0,1,.5088.5127,1.95586,1.95586,0,0,1,.1924.6943c.0225.254.1123.5372.1104.7061,0,.0186-.0078.0703-.0078.1338,0,.0664-.00489.1309-.0118.207-.0048.0713-.0097.1406-.0088.1983a.85591.85591,0,0,1-.0068.1259c-.0908.4913-.14549,1.0743-.2646,1.6133-.1172.543-.2188,1.0996-.3311,1.6153a2.5887,2.5887,0,0,1-.1455.4257,2.237,2.237,0,0,0-.1328.4278c-.001.0156-.0088.0547-.0147.1269-.00579.0684-.0166.1407-.0234.2227-.0088.082-.0156.1562-.0166.2246a.85377.85377,0,0,1-.00679.1269c-.03911.1602-.05961.2422-.10061.4004-.003.0176-.0108.0567-.0225.125s-.0264.1446-.042.2246c-.0107.084-.0263.1582-.04.2247-.0117.0703-.0195.1171-.0254.1406a1.3969,1.3969,0,0,1-.0859.2207.30489.30489,0,0,1-.254.1719h-.0312c-.0088,0-.0439-.0039-.1025-.0118-.0586-.0058-.09089-.0097-.1006-.0097-.0342,0-.0967.0039-.19529.0078-.09771.0039-.19931.0078-.30181.0078-.1006.002-.19819.0039-.292.0098C265.792,52.3672,265.72169,52.375,265.69529,52.3711Zm-1.55269-4.375c-.01271.0957.04589.164.17379.207a2.06114,2.06114,0,0,0,.4639.082c.1797.0137.36131.0176.5439.0137.1846-.0019.3282-.0137.4229-.0156.02251-.002.06351-.002.1299-.0078.0664-.0039.1211,0,.1328-.0039a.25888.25888,0,0,0,.0654-.0684.53613.53613,0,0,0,.0479-.0684,1.41717,1.41717,0,0,0,.0439-.2343c.01861-.1094.0381-.2305.0635-.3594.0283-.1289.0537-.248.0752-.3574a1.86409,1.86409,0,0,1,.0508-.2364.36784.36784,0,0,0,.042-.1093c.0156-.0567.0244-.0957.0312-.1221.0518-.4717.0791-.708.13091-1.1768a.486.486,0,0,0-.03031-.1943.60018.60018,0,0,0-.1123-.2002.534.534,0,0,0-.1973-.1465.55266.55266,0,0,0-.2724-.0449.78109.78109,0,0,0-.2578.0625,2.15362,2.15362,0,0,0-.8711.8555,4.4408,4.4408,0,0,0-.3907.9834c-.0507.1904-.1025.3838-.16009.5732A3.687,3.687,0,0,0,264.1426,47.9961Z"/><path class="cls-3" d="M269.27829,51.7109a6.36615,6.36615,0,0,1,.2832-1.3965,13.16788,13.16788,0,0,0,.3692-1.4082c.08891-.4336.1631-.8632.2236-1.2832a12.05486,12.05486,0,0,1,.2686-1.2763c.1211-.462.2275-.9073.3359-1.3116.1065-.4043.1143-.9199.1983-1.2851a.55719.55719,0,0,1,.3437-.3028,1.93469,1.93469,0,0,1,.4922-.1396,3.69243,3.69243,0,0,1,.5781-.0156c.2051.0107.461.0986.4834.167.001.0058-.0117.0488-.0195.0957-.0059.0478-.0137.08-.0147.0957a4.44408,4.44408,0,0,1-.2451.9238,5.496,5.496,0,0,0-.2773.9121c-.0059.0332-.03129.1563-.07029.3711-.03421.2129-.07621.458-.12311.7305-.0478.2773-.0947.5547-.1426.832-.0459.2773-.0869.4981-.1142.6582-.0674.3828-.1416.7676-.2276,1.1328a7.206,7.206,0,0,0-.1923,1.1211.219.219,0,0,0,.2021.2598,2.466,2.466,0,0,0,.47171.0117c.17479-.0078.33589-.0137.47849-.0117.14651.0039.2197.082.2002.1992a3.74971,3.74971,0,0,1-.17769.625,3.94491,3.94491,0,0,1-.18271.4336.35527.35527,0,0,1-.2128.2012.20927.20927,0,0,1-.0586.0156h-.0557c-.3984.0078-.8301,0-1.2588.0019-.4316.002-.8613-.0097-1.2842-.0253-.1377-.0079-.2187-.0333-.24219-.0879A.48825.48825,0,0,1,269.27829,51.7109Z"/><path class="cls-3" d="M279.78809,48.3242q.42915-1.2246.7393-2.4766c.0771-.3066.1416-.6113.1963-.914.0527-.3018.1201-.6074.1962-.9151.0352-.1474.0538-.2177.0899-.3623a.43859.43859,0,0,1,.17381-.1484,1.17386,1.17386,0,0,1,.24319-.1055c.0635-.0127.2226-.0127.4433-.0293.2198-.0175.4493-.0332.68951-.0508.24219-.0175.47069-.0351.68069-.0498.2138-.0166.3642-.0263.4502-.0322.0136-.0019.0625-.0029.1503-.0078.087-.0039.1817-.0137.2881-.0234.1026-.0098.21-.0176.3203-.0254.10841-.0078.1963-.0098.2608-.0117.34961-.0235.6601-.0391.9385-.0508a5.37316,5.37316,0,0,1,.9316-.0108.21636.21636,0,0,1,.1943.1807.71026.71026,0,0,1-.0166.2637c-.0068.0244-.0195.0879-.0439.1894a1.838,1.838,0,0,1-.124.3203,1.575,1.575,0,0,1-.2002.3184.36888.36888,0,0,1-.2803.1523.17221.17221,0,0,1-.0322-.0019.0578.0578,0,0,0-.0313-.0059.3944.3944,0,0,1-.1084-.0117.84365.84365,0,0,0-.1103-.0117c-1.2813.0742-1.9229.1123-3.2051.1855-.084.0547-.127.086-.2119.1446-.0235.0966-.0371.1465-.0625.2422-.0645.2675-.127.5312-.1807.7929a5.06821,5.06821,0,0,0-.15139.8076.13668.13668,0,0,0,.03129.085.12.12,0,0,0,.1123.0371c.4746-.0254.709-.0391,1.1777-.0664a.23739.23739,0,0,1,.1748.0488.2525.2525,0,0,1,.0704.1387.94283.94283,0,0,1,.0058.1758.80656.80656,0,0,1-.0195.1367c-.0147.0566-.0371.1309-.0625.2207a1.2335,1.2335,0,0,1-.124.2617.8585.8585,0,0,1-.2002.2266.49906.49906,0,0,1-.2842.1094c-.3535.0195-.5303.0273-.8848.0468a.53547.53547,0,0,0-.2256.0723.6739.6739,0,0,0-.1787.1309,1.44441,1.44441,0,0,0-.05079.2324c-.02341.1133-.04781.2305-.08.3574-.03031.125-.06351.2461-.09871.3594-.0312.1113-.0556.1933-.0654.2422-.0078.0254-.0313.084-.0713.1777-.0381.0918-.0762.1973-.1172.3047-.0361.1113-.0713.2129-.10739.3066-.03421.0938-.05181.1563-.05961.1778a2.45026,2.45026,0,0,0-.083.3379c-.02339.1386-.0586.2793-.0986.4257a2.27707,2.27707,0,0,1-.1592.4043.47249.47249,0,0,1-.2529.2539c-.0371.0079-.1211.0098-.2276.0235-.1064.0156-.2197.0273-.3378.0371-.1221.0098-.23929.0234-.3487.0312-.1084.0137-.1865.0157-.2295.0176-.0127,0-.0185.0039-.0312.0039a.18.18,0,0,1-.1856-.0976.6213.6213,0,0,1-.0674-.25,1.601,1.601,0,0,1-.00289-.2813,1.36569,1.36569,0,0,1,.02349-.1855c.0361-.1504.0546-.2266.0918-.375Q279.36089,49.5507,279.78809,48.3242Z"/><path class="cls-3" d="M289.95609,51.2871a.33763.33763,0,0,1-.1436-.0684.14257.14257,0,0,1-.0674-.1113c.0987-1.0234.14851-1.5352.2491-2.5527a.08334.08334,0,0,0-.0381-.086.10317.10317,0,0,0-.0967-.0175c-.7744.0957-1.1611.1406-1.9297.2363-.0889.8418-.1328,1.2637-.2187,2.1055a.666.666,0,0,0,.05761.3496.69354.69354,0,0,1,.05949.3398.11.11,0,0,1-.038.0918.605.605,0,0,1-.1563.0391c-.0195.0019-.0508.0039-.0898.0078a.4795.4795,0,0,1-.0782.0117c-.04.0039-.1093.0059-.2041.0117-.0918.0039-.1875.0117-.28609.0215-.10061.0098-.18941.0195-.27541.0273-.0801.0079-.1308.0137-.1543.0137a1.72081,1.72081,0,0,1-.4629-.0215.41308.41308,0,0,1-.2412-.1308.38209.38209,0,0,1-.0791-.2285,2.35732,2.35732,0,0,1,.00591-.3165c.04489-.4316.122-.8847.20019-1.3242q.11565-.6591.2539-1.3359c.001-.0078.0117-.0547.0254-.1348.0146-.0801.0302-.1718.0459-.2773.01361-.1055.0283-.207.041-.3067.01561-.1015.0215-.1816.0293-.2363a2.85366,2.85366,0,0,1,.2685-.8545,3.94577,3.94577,0,0,0,.4161-.8584.78716.78716,0,0,1,.1503-.4414,4.43256,4.43256,0,0,0,.3252-.4258.77154.77154,0,0,0,.084-.1826c.0215-.0576.07521-.1299.1055-.1992.0039-.0049.01271-.0225.0283-.0439a.08779.08779,0,0,1,.041-.0293c.1319-.0616.3037-.3409.4336-.5127a3.53638,3.53638,0,0,1,.4805-.5108,4.469,4.469,0,0,1,.4346-.3154,5.77472,5.77472,0,0,1,.5293-.3096,4.18381,4.18381,0,0,1,.56541-.248,3.04263,3.04263,0,0,1,.55859-.1367,2.02706,2.02706,0,0,1,1.10841.0918,1.12656,1.12656,0,0,1,.51559.4863,1.7987,1.7987,0,0,1,.19341.6797c.02339.248.11519.5293.11519.6972a1.04542,1.04542,0,0,0-.0068.1328,1.931,1.931,0,0,1-.0108.2022,1.64393,1.64393,0,0,0-.0117.1982.46044.46044,0,0,1-.0078.127c-.084.4902-.1426,1.0674-.2637,1.6094-.1191.541-.2139,1.0957-.3271,1.6093a2.75733,2.75733,0,0,1-.1455.4297,1.914,1.914,0,0,0-.1309.4258.722.722,0,0,0-.0186.127c-.0048.0644-.0117.1425-.0205.2207a1.75665,1.75665,0,0,0-.0156.2246,1.16285,1.16285,0,0,1-.0068.123c-.0401.1602-.0615.2442-.1026.4043-.0029.0156-.0117.0586-.0224.125-.0117.0703-.0283.1445-.0391.2246-.0156.0801-.02829.1563-.0371.2246-.0127.0684-.0234.1153-.0283.1387a1.48248,1.48248,0,0,1-.08889.2188.31583.31583,0,0,1-.25581.1816c-.0118,0-.0196.002-.0313.002a.68055.68055,0,0,1-.0996-.0079c-.0605-.0039-.0947-.0058-.1045-.0058-.0312.0019-.1016.0058-.2002.0156-.09859.0078-.2002.0137-.2998.0195-.1064.0039-.2041.0118-.29779.0196A1.39648,1.39648,0,0,1,289.95609,51.2871Zm-1.5899-4.2305c-.0127.0977.0469.1621.1778.1934a1.92365,1.92365,0,0,0,.4677.0527c.1856.002.3721-.0039.5567-.0176.1855-.0156.3349-.0312.4306-.039.01761-.002.06161-.0078.129-.0137.0634-.0078.1191-.0078.1328-.0117.0244-.0098.0507-.0488.0664-.0703a.39557.39557,0,0,0,.0488-.0684,1.49182,1.49182,0,0,0,.0439-.2353c.01471-.1084.0372-.2295.0635-.3604.0264-.1279.0498-.2451.0723-.3555a1.60084,1.60084,0,0,1,.0488-.2343.38262.38262,0,0,0,.0449-.1123c.0137-.0557.0254-.0967.0303-.1211.0537-.4678.0781-.7022.12891-1.1709a.45948.45948,0,0,0-.03121-.1875.59186.59186,0,0,0-.1143-.1934.4874.4874,0,0,0-.1982-.1318.56608.56608,0,0,0-.2774-.0283.71351.71351,0,0,0-.2568.0752,2.28444,2.28444,0,0,0-.8867.8964,4.80362,4.80362,0,0,0-.3936.9932c-.04879.1914-.0996.3848-.1572.5703A3.76033,3.76033,0,0,0,288.36619,47.0566Z"/><path class="cls-3" d="M296.02439,47.9687a.24973.24973,0,0,0,0-.1679.17411.17411,0,0,0-.1797-.0899h-.0468c-.0166.0664-.0469.1758-.0908.334-.0459.1582-.0938.3262-.1446.5059-.0488.1777-.0976.3496-.1435.5117-.0459.1601-.0743.2695-.0889.3262-.0234.1015-.0381.1543-.06249.2539a3.79929,3.79929,0,0,0-.05571.4785,2.85246,2.85246,0,0,1-.0576.4785.37612.37612,0,0,1-.0801.1758.34606.34606,0,0,1-.2363.0761c-.2226.0157-.4521.0352-.6562.0332-.2012,0-.4864.0704-.6709.0508-.0323-.0019-.0684-.0449-.0909-.0918a.566.566,0,0,1-.041-.0957c-.0019-.0078.0078-.0605.0098-.1367a1.05474,1.05474,0,0,1,.0146-.1523c.0508-.2383.1016-.502.1797-.7539.0791-.25.1709-.5098.2422-.7539.1172-.3907.1963-.8165.2813-1.2129a5.59568,5.59568,0,0,1,.40911-1.2188c.24809-1.3603.37309-2.043.62409-3.4023a1.22327,1.22327,0,0,1,.04591-.1592.7499.7499,0,0,1,.09469-.1895.71342.71342,0,0,1,.15231-.163.35124.35124,0,0,1,.20409-.0733c.0284-.001.042-.001.0655-.0029.2558.0068.4658.0137.6328.0234a.28774.28774,0,0,1,.2793.2666,4.721,4.721,0,0,0,.15131.5244,2.763,2.763,0,0,0,.17289.4991.05124.05124,0,0,1,.0078.0419.14965.14965,0,0,0-.01269.044,1.87718,1.87718,0,0,0,.09379.665,3.49724,3.49724,0,0,1,.1816.6289.5744.5744,0,0,0-.0049.2745,1.72049,1.72049,0,0,0,.1504.3115c.0596.1015.1104.1992.1572.2939a.37279.37279,0,0,1,.0118.2412.80931.80931,0,0,0,.0439.1485,1.998,1.998,0,0,1,.0625.248c.01271.0869.0313.1699.0479.2461.0195.0742.039.1309.04781.1602a.52622.52622,0,0,1,.01559.1035c.0039.043.0137.0918.0225.1445.0078.0508.0127.1016.0166.1504a.46354.46354,0,0,1,0,.0938,2.44613,2.44613,0,0,1,.0391.3027c-.0049.1055.1211.2558.164.248.041-.0058.11721-.1816.1494-.2695.2823-.8594.6602-1.7832.8614-2.6484a14.54076,14.54076,0,0,1,.60541-2.6602.90263.90263,0,0,1,.10549-.0986.26832.26832,0,0,1,.1162-.0752c.5254-.041.7881-.0615,1.3154-.0977.0957-.0029.1377.0196.128.0596s.0703.0732.0781.085a11.02809,11.02809,0,0,1-.2676,1.0742,5.72627,5.72627,0,0,1-.2851,1.0761c-.1983.5235-.4034,1.0411-.586,1.543a7.86622,7.86622,0,0,0-.39649,1.5547c-.32121,1.0742-.48041,1.6094-.79881,2.6856a1.04926,1.04926,0,0,1-.2373.3027.82089.82089,0,0,1-.3818.2402c-.0196.002-.07909.002-.1709.0078-.0948.0059-.1524.0078-.1719.0078-.2676.0157-.5381.0332-.7822.0332-.24809-.0019-.5088-.0253-.7637-.0429a.27391.27391,0,0,1-.2676-.2149,1.3895,1.3895,0,0,1-.0527-.4668,3.86629,3.86629,0,0,1,.04491-.5c.02149-.1543.03519-.2597.03519-.3066-.002-.0273-.0078-.0977-.0137-.2051a1.11109,1.11109,0,0,0-.0274-.2148,1.55455,1.55455,0,0,1-.0439-.2129c-.0176-.1055-.0361-.2149-.0547-.3301-.01949-.1172-.039-.2305-.0547-.332C296.04789,48.0781,296.02049,47.9922,296.02439,47.9687Z"/><path class="cls-3" d="M301.96189,49.7148a.19853.19853,0,0,0,.002-.1074c-.0117-.0566-.03129-.1211-.0488-.1914-.02249-.0684-.0411-.1348-.06349-.1953a.49021.49021,0,0,1-.03711-.1426c.03811-.1699.0595-.2539.1045-.4258.041-.1621.0625-.2461.1035-.4121.0117-.0469.04-.1543.0869-.3203s.0977-.3437.1514-.5332c.0507-.1914.0996-.3691.1464-.5361.0499-.166.0782-.2725.0899-.3223.0752-.2988.1133-.4502.18651-.751a1.68373,1.68373,0,0,0,.08989-.2724c.04-.126.081-.253.124-.3877.0439-.1328.081-.2578.1152-.3731.0342-.1094.0684-.1894.082-.2285.00591-.0127.0215-.0664.0547-.1504a.90962.90962,0,0,1,.0918-.1758,1.89677,1.89677,0,0,0,.1739-.4336,1.68454,1.68454,0,0,1,.2041-.4365,3.45145,3.45145,0,0,1,.4199-.4541,4.32323,4.32323,0,0,1,.6289-.4863,4.37426,4.37426,0,0,1,.7471-.3828,1.86129,1.86129,0,0,1,.7812-.1406c.1904.0087.3359.0175.4404.0322a1.21452,1.21452,0,0,1,.2657.0635.45913.45913,0,0,1,.1875.1259c.05071.0557.1689.1631.1826.2373a.08278.08278,0,0,0,.0195.0489c.0098.0097.0147.0156.0254.0273-.1103.4473-.167.669-.2793,1.1172-.0566.0254-.085.0371-.14449.0644a3.137,3.137,0,0,0-1.19531.1739,1.36173,1.36173,0,0,0-.7276.6191,3.082,3.082,0,0,0-.12109.3242c-.05471.1504-.11131.3067-.17281.4688q-.09375.2505-.1846.4726c-.0557.1495-.0918.2539-.1074.3077-.0469.1904-.0703.2822-.11719.4736-.07621.3105-.14551.5976-.20611.8613-.0615.2676-.12789.5684-.1835.8887a.98531.98531,0,0,0,.0507.5801.8927.8927,0,0,0,.29591.3633,1.66535,1.66535,0,0,0,.42869.2148c.1631.0527.3096.0957.4541.1328a2.74886,2.74886,0,0,1,.3565.1152c.09671.043.1475.0977.1523.1622-.0322.1328-.0488.1972-.08.33a1.78208,1.78208,0,0,0-.0459.2364,1.1464,1.1464,0,0,1-.0782.2793.69189.69189,0,0,1-.1631.2421.5335.5335,0,0,1-.3261.1309c-.1709-.0078-.2578-.0137-.4278-.0234a4.8766,4.8766,0,0,1-1.6367-.3262C302.40719,50.414,301.92089,49.914,301.96189,49.7148Z"/><path class="cls-3" d="M307.61619,50.0879a6.13235,6.13235,0,0,1,.2852-1.4004,12.58708,12.58708,0,0,0,.36521-1.4082q.13333-.65625.22659-1.2891a11.20419,11.20419,0,0,1,.27241-1.2851c.12109-.462.22759-.9024.335-1.3086.10449-.4043.11519-.9219.20219-1.2959a.48845.48845,0,0,1,.33781-.2793,1.575,1.575,0,0,1,.48049-.0928,2.91717,2.91717,0,0,1,.56151.0469c.20119.0332.44539.1474.46489.2246a.79826.79826,0,0,1-.0147.0996c-.0078.0488-.0136.083-.0156.0996a4.24143,4.24143,0,0,1-.2471.9189,5.108,5.108,0,0,0-.2734.9083c-.0078.0302-.0312.1552-.0693.3701-.0371.2168-.0821.4638-.1299.7402q-.06734.41745-.1455.8379c-.0479.2812-.086.5039-.1143.6631-.0683.3916-.1416.7744-.2295,1.1435a7.65311,7.65311,0,0,0-.1943,1.1309.25638.25638,0,0,0,.1943.291,2.19247,2.19247,0,0,0,.458.0762c.169.0137.3243.0351.4619.0547.1387.0234.2139.1132.1934.2343a3.68872,3.68872,0,0,1-.1816.6211,3.24363,3.24363,0,0,1-.1768.4258.30745.30745,0,0,1-.207.1778.15421.15421,0,0,1-.0586.0039c-.0244-.002-.04489-.0039-.0547-.0039-.3867-.0489-.8018-.1114-1.2168-.1641-.416-.0508-.8369-.1113-1.2451-.1719-.1328-.0215-.2139-.0586-.23729-.1133A.53065.53065,0,0,1,307.61619,50.0879Z"/><path class="cls-3" d="M316.87989,51.832a.26634.26634,0,0,1-.1738-.1738.84851.84851,0,0,1-.0498-.25c-.0069-.0879-.0108-.1621-.0108-.2266,0-.0625-.0205-.1015-.0625-.1035a.61072.61072,0,0,0-.2636.0645c-.1143.0468-.2413.0976-.38579.1562a3.22906,3.22906,0,0,1-.47561.1582,1.43081,1.43081,0,0,1-.5107.041,2.87625,2.87625,0,0,1-.6055-.123,1.965,1.965,0,0,1-.5088-.252,2.24533,2.24533,0,0,1-.7197-.7578,2.62719,2.62719,0,0,1-.2969-.8887,3.73469,3.73469,0,0,1-.0185-.9531c.0302-.3262.0615-.6445.09671-.9472a8.12063,8.12063,0,0,1,.38369-1.6915c.1827-.5517.3741-1.1142.57231-1.6806l.02539-.1045a1.27823,1.27823,0,0,1,.0625-.1943,1.06652,1.06652,0,0,0,.0645-.1924c.01561-.0586.0234-.0957.0302-.1133.0352-.125.0742-.2412.0987-.3359a.53143.53143,0,0,1,.1259-.2432.611.611,0,0,1,.253-.1494,1.84306,1.84306,0,0,1,.4873-.0469.916.916,0,0,1,.2246.0371,2.89029,2.89029,0,0,1,.2978.0996,2.83466,2.83466,0,0,1,.29011.1309c.09079.0449.166.1015.16989.1269.001.0108-.0068.045-.0068.0889a.30336.30336,0,0,1-.0049.0869,5.2622,5.2622,0,0,1-.1221.5586,5.7784,5.7784,0,0,1-.2109.5801c-.083.1953-.1563.3867-.2305.5781-.0772.1895-.13969.377-.1953.5488a5.83714,5.83714,0,0,0-.249,1.0704c-.0459.3554-.085.7226-.126,1.0917a6.84882,6.84882,0,0,0-.0528.752,1.01576,1.01576,0,0,0,.31741.6992,1.66639,1.66639,0,0,0,.14459.1387c.0781.0703.1298.1289.1425.1367.00691.0039.0245.0078.0508.0215a.16795.16795,0,0,0,.0508.0215c.0156.0019.0186.0039.03131.0058l.01359.002c.02541-.0039.06941-.0137.1358-.0293a.25189.25189,0,0,0,.1504-.0762,5.01671,5.01671,0,0,0,.6865-.9062,5.96055,5.96055,0,0,0,.4101-.9375,8.85751,8.85751,0,0,0,.2647-.9707c.0732-.334.1601-.6797.2598-1.0332.0019-.0078.0097-.0332.0224-.0801.0088-.043.0244-.0899.0401-.1445.0185-.0498.038-.0997.05461-.1465a.834.834,0,0,0,.03419-.1094c.0029-.0078.0176-.0391.0401-.0957.0244-.0547.05071-.1133.0781-.1826.0273-.0664.0508-.125.0742-.1748a.9752.9752,0,0,0,.0439-.1016,3.31592,3.31592,0,0,0,.1143-.5644,1.01782,1.01782,0,0,1,.1133-.4102.49073.49073,0,0,1,.3115-.2266,2.34974,2.34974,0,0,1,.7461-.0058c.0625.0049.1465.0117.251.0234a2.38384,2.38384,0,0,1,.2988.0547.95156.95156,0,0,1,.2637.1045c.0801.0469.1533.1299.1533.1924,0,.0332-.0156.1113-.02149.2197-.00191.1045-.00191.1768-.00191.21a3.95037,3.95037,0,0,1-.2637,1.1445c-.1299.3652-.2451.749-.3682,1.125a1.74709,1.74709,0,0,0-.0761.3789,2.39819,2.39819,0,0,1-.1172.3965c-.0791.2969-.0635.7695-.13089,1.1406-.06841.377-.14261.75-.22361,1.127-.083.373-.168.7461-.249,1.123a11.15671,11.15671,0,0,1-.2178,1.1289.80123.80123,0,0,1-.126.1778.21118.21118,0,0,1-.2109.0703,4.292,4.292,0,0,1-.5762-.1075C317.33009,51.8711,317.08109,51.873,316.87989,51.832Z"/><path class="cls-3" d="M320.59569,52.6601a1.1412,1.1412,0,0,1,.0254-.1621.5415.5415,0,0,1,.0694-.1504c.24511-1.0156.373-1.5254.621-2.541a11.56463,11.56463,0,0,1,.2832-1.9219c.1495-.6386.3028-1.2792.4014-1.8808.0469-.2793.085-.5772.1299-.8682a7.70369,7.70369,0,0,1,.1885-.8564.37419.37419,0,0,0,.0127-.1426.15958.15958,0,0,1,.0576-.1367.55154.55154,0,0,1,.3096-.1035,2.10045,2.10045,0,0,1,.3994.0039,3.6848,3.6848,0,0,1,.4111.0664c.1318.0322.2481.0547.3379.0703a2.2648,2.2648,0,0,1,.6689.2363,2.62541,2.62541,0,0,1,.5342.3789,2.7872,2.7872,0,0,1,.4102.4805,2.46282,2.46282,0,0,1,.2871.5303.86248.86248,0,0,1,.042.2568.77712.77712,0,0,0,.042.2402c-.0381.334-.0557.501-.0948.8379a.39517.39517,0,0,0-.0634.1211c-.02839.0703-.044.1192-.0518.1426a1.14873,1.14873,0,0,1-.2158.3555.71043.71043,0,0,0-.1582.3652.47993.47993,0,0,0,.1191.3418c.0938.1211.1719.2383.2315.3301.0234.0351.0664.0996.1289.1992a1.52328,1.52328,0,0,1,.12791.1992.3977.3977,0,0,0,.03129.166c.0351.0918.08.1934.1318.3125a2.70028,2.70028,0,0,1,.123.3438.52854.52854,0,0,1,.0127.2344.89736.89736,0,0,0,.03521.1562c.01849.0762.03419.1582.05079.2422.0146.084.0293.1621.0381.2324a.93091.93091,0,0,1,.0214.1445c0,.004-.0068.0606-.0224.1563a1.40861,1.40861,0,0,0-.0078.2285,2.42151,2.42151,0,0,1-.3008,1.0391,9.84212,9.84212,0,0,0-.57129.9023.10539.10539,0,0,1-.01461.0606.35644.35644,0,0,1-.045.0507,2.745,2.745,0,0,1-.4433.3204.89814.89814,0,0,1-.5987.1152c-.039-.0059-.10539-.0293-.1943-.0469-.085-.0215-.1787-.039-.2842-.0566-.0996-.0215-.1953-.0391-.2832-.0547a1.30356,1.30356,0,0,1-.1885-.0469c-.0595-.0156-.1416-.0351-.2441-.0586-.1016-.0215-.20509-.041-.3066-.0625s-.1914-.041-.2696-.0566c-.0752-.0176-.1181-.0274-.12789-.0313a.5222.5222,0,0,0-.07811-.0136c-.0401-.0079-.085-.0176-.1367-.0313-.0518-.0156-.0997-.0312-.1495-.0488-.0488-.0176-.083-.0293-.1054-.0371-.127-.0352-.2617-.0782-.40629-.1289a4.0766,4.0766,0,0,0-.42771-.1309c-.1504-.0351-.2774-.0547-.3721-.0684C320.625,52.8691,320.583,52.793,320.59569,52.6601Zm2.9141-5.7949a.08414.08414,0,0,0,.0547.0664.28506.28506,0,0,0,.08011.0371.11993.11993,0,0,0,.10839-.0371,1.72152,1.72152,0,0,0,.26361-.3691,1.22542,1.22542,0,0,0,.11039-.4356.98965.98965,0,0,0-.003-.1504.43672.43672,0,0,0-.039-.1679.57372.57372,0,0,0-.0996-.1455.36458.36458,0,0,0-.1739-.0772.14725.14725,0,0,0-.0546-.0019.13284.13284,0,0,1-.0557-.0039c-.0254.0254-.041.0371-.0645.0595C323.585,46.1289,323.5606,46.3769,323.50979,46.8652Zm-1.15719,4.9727c-.01471.082.04.1601.15909.2265a.99044.99044,0,0,0,.29891.127,1.77084,1.77084,0,0,0,.69039.0156.82316.82316,0,0,0,.4248-.2246,1.02006,1.02006,0,0,0,.2256-.4004,2.336,2.336,0,0,0,.0937-.4941,3.92768,3.92768,0,0,0-.039-1.0117,1.71364,1.71364,0,0,0-.5469-.9747,1.91047,1.91047,0,0,0-.166-.1308.55229.55229,0,0,0-.1992-.0762.15259.15259,0,0,0-.14939.0254.31805.31805,0,0,0-.09871.1211.86877.86877,0,0,0-.0547.1582c-.01359.0586-.0254.1016-.0351.1328-.0987.4024-.14749.6055-.2471,1.0098a.739.739,0,0,1-.0049.1465c-.0097.082-.0176.1289-.02149.1464a4.73514,4.73514,0,0,1-.17281.5997A2.36354,2.36354,0,0,0,322.3526,51.8379Z"/></g></g></svg>